%TF.GenerationSoftware,KiCad,Pcbnew,(7.0.0)*%
%TF.CreationDate,2023-09-18T04:22:57-04:00*%
%TF.ProjectId,Rangefinder,52616e67-6566-4696-9e64-65722e6b6963,rev?*%
%TF.SameCoordinates,Original*%
%TF.FileFunction,Legend,Top*%
%TF.FilePolarity,Positive*%
%FSLAX46Y46*%
G04 Gerber Fmt 4.6, Leading zero omitted, Abs format (unit mm)*
G04 Created by KiCad (PCBNEW (7.0.0)) date 2023-09-18 04:22:57*
%MOMM*%
%LPD*%
G01*
G04 APERTURE LIST*
%ADD10C,0.125000*%
%ADD11C,0.254000*%
%ADD12C,0.150000*%
%ADD13C,0.250000*%
%ADD14C,0.187500*%
%ADD15C,0.120000*%
%ADD16C,0.200000*%
%ADD17C,0.100000*%
G04 APERTURE END LIST*
D10*
X142809523Y-117782380D02*
X142476190Y-117306190D01*
X142238095Y-117782380D02*
X142238095Y-116782380D01*
X142238095Y-116782380D02*
X142619047Y-116782380D01*
X142619047Y-116782380D02*
X142714285Y-116830000D01*
X142714285Y-116830000D02*
X142761904Y-116877619D01*
X142761904Y-116877619D02*
X142809523Y-116972857D01*
X142809523Y-116972857D02*
X142809523Y-117115714D01*
X142809523Y-117115714D02*
X142761904Y-117210952D01*
X142761904Y-117210952D02*
X142714285Y-117258571D01*
X142714285Y-117258571D02*
X142619047Y-117306190D01*
X142619047Y-117306190D02*
X142238095Y-117306190D01*
X143666666Y-117782380D02*
X143666666Y-117258571D01*
X143666666Y-117258571D02*
X143619047Y-117163333D01*
X143619047Y-117163333D02*
X143523809Y-117115714D01*
X143523809Y-117115714D02*
X143333333Y-117115714D01*
X143333333Y-117115714D02*
X143238095Y-117163333D01*
X143666666Y-117734761D02*
X143571428Y-117782380D01*
X143571428Y-117782380D02*
X143333333Y-117782380D01*
X143333333Y-117782380D02*
X143238095Y-117734761D01*
X143238095Y-117734761D02*
X143190476Y-117639523D01*
X143190476Y-117639523D02*
X143190476Y-117544285D01*
X143190476Y-117544285D02*
X143238095Y-117449047D01*
X143238095Y-117449047D02*
X143333333Y-117401428D01*
X143333333Y-117401428D02*
X143571428Y-117401428D01*
X143571428Y-117401428D02*
X143666666Y-117353809D01*
X144142857Y-117115714D02*
X144142857Y-117782380D01*
X144142857Y-117210952D02*
X144190476Y-117163333D01*
X144190476Y-117163333D02*
X144285714Y-117115714D01*
X144285714Y-117115714D02*
X144428571Y-117115714D01*
X144428571Y-117115714D02*
X144523809Y-117163333D01*
X144523809Y-117163333D02*
X144571428Y-117258571D01*
X144571428Y-117258571D02*
X144571428Y-117782380D01*
X145476190Y-117115714D02*
X145476190Y-117925238D01*
X145476190Y-117925238D02*
X145428571Y-118020476D01*
X145428571Y-118020476D02*
X145380952Y-118068095D01*
X145380952Y-118068095D02*
X145285714Y-118115714D01*
X145285714Y-118115714D02*
X145142857Y-118115714D01*
X145142857Y-118115714D02*
X145047619Y-118068095D01*
X145476190Y-117734761D02*
X145380952Y-117782380D01*
X145380952Y-117782380D02*
X145190476Y-117782380D01*
X145190476Y-117782380D02*
X145095238Y-117734761D01*
X145095238Y-117734761D02*
X145047619Y-117687142D01*
X145047619Y-117687142D02*
X145000000Y-117591904D01*
X145000000Y-117591904D02*
X145000000Y-117306190D01*
X145000000Y-117306190D02*
X145047619Y-117210952D01*
X145047619Y-117210952D02*
X145095238Y-117163333D01*
X145095238Y-117163333D02*
X145190476Y-117115714D01*
X145190476Y-117115714D02*
X145380952Y-117115714D01*
X145380952Y-117115714D02*
X145476190Y-117163333D01*
X146333333Y-117734761D02*
X146238095Y-117782380D01*
X146238095Y-117782380D02*
X146047619Y-117782380D01*
X146047619Y-117782380D02*
X145952381Y-117734761D01*
X145952381Y-117734761D02*
X145904762Y-117639523D01*
X145904762Y-117639523D02*
X145904762Y-117258571D01*
X145904762Y-117258571D02*
X145952381Y-117163333D01*
X145952381Y-117163333D02*
X146047619Y-117115714D01*
X146047619Y-117115714D02*
X146238095Y-117115714D01*
X146238095Y-117115714D02*
X146333333Y-117163333D01*
X146333333Y-117163333D02*
X146380952Y-117258571D01*
X146380952Y-117258571D02*
X146380952Y-117353809D01*
X146380952Y-117353809D02*
X145904762Y-117449047D01*
X146666667Y-117115714D02*
X147047619Y-117115714D01*
X146809524Y-117782380D02*
X146809524Y-116925238D01*
X146809524Y-116925238D02*
X146857143Y-116830000D01*
X146857143Y-116830000D02*
X146952381Y-116782380D01*
X146952381Y-116782380D02*
X147047619Y-116782380D01*
X147380953Y-117782380D02*
X147380953Y-117115714D01*
X147380953Y-116782380D02*
X147333334Y-116830000D01*
X147333334Y-116830000D02*
X147380953Y-116877619D01*
X147380953Y-116877619D02*
X147428572Y-116830000D01*
X147428572Y-116830000D02*
X147380953Y-116782380D01*
X147380953Y-116782380D02*
X147380953Y-116877619D01*
X147857143Y-117115714D02*
X147857143Y-117782380D01*
X147857143Y-117210952D02*
X147904762Y-117163333D01*
X147904762Y-117163333D02*
X148000000Y-117115714D01*
X148000000Y-117115714D02*
X148142857Y-117115714D01*
X148142857Y-117115714D02*
X148238095Y-117163333D01*
X148238095Y-117163333D02*
X148285714Y-117258571D01*
X148285714Y-117258571D02*
X148285714Y-117782380D01*
X149190476Y-117782380D02*
X149190476Y-116782380D01*
X149190476Y-117734761D02*
X149095238Y-117782380D01*
X149095238Y-117782380D02*
X148904762Y-117782380D01*
X148904762Y-117782380D02*
X148809524Y-117734761D01*
X148809524Y-117734761D02*
X148761905Y-117687142D01*
X148761905Y-117687142D02*
X148714286Y-117591904D01*
X148714286Y-117591904D02*
X148714286Y-117306190D01*
X148714286Y-117306190D02*
X148761905Y-117210952D01*
X148761905Y-117210952D02*
X148809524Y-117163333D01*
X148809524Y-117163333D02*
X148904762Y-117115714D01*
X148904762Y-117115714D02*
X149095238Y-117115714D01*
X149095238Y-117115714D02*
X149190476Y-117163333D01*
X150047619Y-117734761D02*
X149952381Y-117782380D01*
X149952381Y-117782380D02*
X149761905Y-117782380D01*
X149761905Y-117782380D02*
X149666667Y-117734761D01*
X149666667Y-117734761D02*
X149619048Y-117639523D01*
X149619048Y-117639523D02*
X149619048Y-117258571D01*
X149619048Y-117258571D02*
X149666667Y-117163333D01*
X149666667Y-117163333D02*
X149761905Y-117115714D01*
X149761905Y-117115714D02*
X149952381Y-117115714D01*
X149952381Y-117115714D02*
X150047619Y-117163333D01*
X150047619Y-117163333D02*
X150095238Y-117258571D01*
X150095238Y-117258571D02*
X150095238Y-117353809D01*
X150095238Y-117353809D02*
X149619048Y-117449047D01*
X150523810Y-117782380D02*
X150523810Y-117115714D01*
X150523810Y-117306190D02*
X150571429Y-117210952D01*
X150571429Y-117210952D02*
X150619048Y-117163333D01*
X150619048Y-117163333D02*
X150714286Y-117115714D01*
X150714286Y-117115714D02*
X150809524Y-117115714D01*
X151600001Y-116782380D02*
X151933334Y-117782380D01*
X151933334Y-117782380D02*
X152266667Y-116782380D01*
X152504763Y-116782380D02*
X153123810Y-116782380D01*
X153123810Y-116782380D02*
X152790477Y-117163333D01*
X152790477Y-117163333D02*
X152933334Y-117163333D01*
X152933334Y-117163333D02*
X153028572Y-117210952D01*
X153028572Y-117210952D02*
X153076191Y-117258571D01*
X153076191Y-117258571D02*
X153123810Y-117353809D01*
X153123810Y-117353809D02*
X153123810Y-117591904D01*
X153123810Y-117591904D02*
X153076191Y-117687142D01*
X153076191Y-117687142D02*
X153028572Y-117734761D01*
X153028572Y-117734761D02*
X152933334Y-117782380D01*
X152933334Y-117782380D02*
X152647620Y-117782380D01*
X152647620Y-117782380D02*
X152552382Y-117734761D01*
X152552382Y-117734761D02*
X152504763Y-117687142D01*
X153552382Y-117687142D02*
X153600001Y-117734761D01*
X153600001Y-117734761D02*
X153552382Y-117782380D01*
X153552382Y-117782380D02*
X153504763Y-117734761D01*
X153504763Y-117734761D02*
X153552382Y-117687142D01*
X153552382Y-117687142D02*
X153552382Y-117782380D01*
X154219048Y-116782380D02*
X154314286Y-116782380D01*
X154314286Y-116782380D02*
X154409524Y-116830000D01*
X154409524Y-116830000D02*
X154457143Y-116877619D01*
X154457143Y-116877619D02*
X154504762Y-116972857D01*
X154504762Y-116972857D02*
X154552381Y-117163333D01*
X154552381Y-117163333D02*
X154552381Y-117401428D01*
X154552381Y-117401428D02*
X154504762Y-117591904D01*
X154504762Y-117591904D02*
X154457143Y-117687142D01*
X154457143Y-117687142D02*
X154409524Y-117734761D01*
X154409524Y-117734761D02*
X154314286Y-117782380D01*
X154314286Y-117782380D02*
X154219048Y-117782380D01*
X154219048Y-117782380D02*
X154123810Y-117734761D01*
X154123810Y-117734761D02*
X154076191Y-117687142D01*
X154076191Y-117687142D02*
X154028572Y-117591904D01*
X154028572Y-117591904D02*
X153980953Y-117401428D01*
X153980953Y-117401428D02*
X153980953Y-117163333D01*
X153980953Y-117163333D02*
X154028572Y-116972857D01*
X154028572Y-116972857D02*
X154076191Y-116877619D01*
X154076191Y-116877619D02*
X154123810Y-116830000D01*
X154123810Y-116830000D02*
X154219048Y-116782380D01*
X164730971Y-106579361D02*
X164683352Y-106555551D01*
X164683352Y-106555551D02*
X164611923Y-106555551D01*
X164611923Y-106555551D02*
X164540495Y-106579361D01*
X164540495Y-106579361D02*
X164492876Y-106626980D01*
X164492876Y-106626980D02*
X164469066Y-106674599D01*
X164469066Y-106674599D02*
X164445257Y-106769837D01*
X164445257Y-106769837D02*
X164445257Y-106841265D01*
X164445257Y-106841265D02*
X164469066Y-106936503D01*
X164469066Y-106936503D02*
X164492876Y-106984122D01*
X164492876Y-106984122D02*
X164540495Y-107031741D01*
X164540495Y-107031741D02*
X164611923Y-107055551D01*
X164611923Y-107055551D02*
X164659542Y-107055551D01*
X164659542Y-107055551D02*
X164730971Y-107031741D01*
X164730971Y-107031741D02*
X164754780Y-107007932D01*
X164754780Y-107007932D02*
X164754780Y-106841265D01*
X164754780Y-106841265D02*
X164659542Y-106841265D01*
X164969066Y-107055551D02*
X164969066Y-106555551D01*
X164969066Y-106555551D02*
X165254780Y-107055551D01*
X165254780Y-107055551D02*
X165254780Y-106555551D01*
X165492876Y-107055551D02*
X165492876Y-106555551D01*
X165492876Y-106555551D02*
X165611924Y-106555551D01*
X165611924Y-106555551D02*
X165683352Y-106579361D01*
X165683352Y-106579361D02*
X165730971Y-106626980D01*
X165730971Y-106626980D02*
X165754781Y-106674599D01*
X165754781Y-106674599D02*
X165778590Y-106769837D01*
X165778590Y-106769837D02*
X165778590Y-106841265D01*
X165778590Y-106841265D02*
X165754781Y-106936503D01*
X165754781Y-106936503D02*
X165730971Y-106984122D01*
X165730971Y-106984122D02*
X165683352Y-107031741D01*
X165683352Y-107031741D02*
X165611924Y-107055551D01*
X165611924Y-107055551D02*
X165492876Y-107055551D01*
X167170552Y-106487751D02*
X166932457Y-106487751D01*
X166932457Y-106487751D02*
X166908648Y-106725846D01*
X166908648Y-106725846D02*
X166932457Y-106702037D01*
X166932457Y-106702037D02*
X166980076Y-106678227D01*
X166980076Y-106678227D02*
X167099124Y-106678227D01*
X167099124Y-106678227D02*
X167146743Y-106702037D01*
X167146743Y-106702037D02*
X167170552Y-106725846D01*
X167170552Y-106725846D02*
X167194362Y-106773465D01*
X167194362Y-106773465D02*
X167194362Y-106892513D01*
X167194362Y-106892513D02*
X167170552Y-106940132D01*
X167170552Y-106940132D02*
X167146743Y-106963941D01*
X167146743Y-106963941D02*
X167099124Y-106987751D01*
X167099124Y-106987751D02*
X166980076Y-106987751D01*
X166980076Y-106987751D02*
X166932457Y-106963941D01*
X166932457Y-106963941D02*
X166908648Y-106940132D01*
X167337219Y-106487751D02*
X167503885Y-106987751D01*
X167503885Y-106987751D02*
X167670552Y-106487751D01*
X169732990Y-103982228D02*
X169732990Y-104220323D01*
X169732990Y-104220323D02*
X169232990Y-104220323D01*
X169732990Y-103815561D02*
X169232990Y-103815561D01*
X169732990Y-103577466D02*
X169232990Y-103577466D01*
X169232990Y-103577466D02*
X169232990Y-103458418D01*
X169232990Y-103458418D02*
X169256800Y-103386990D01*
X169256800Y-103386990D02*
X169304419Y-103339371D01*
X169304419Y-103339371D02*
X169352038Y-103315561D01*
X169352038Y-103315561D02*
X169447276Y-103291752D01*
X169447276Y-103291752D02*
X169518704Y-103291752D01*
X169518704Y-103291752D02*
X169613942Y-103315561D01*
X169613942Y-103315561D02*
X169661561Y-103339371D01*
X169661561Y-103339371D02*
X169709180Y-103386990D01*
X169709180Y-103386990D02*
X169732990Y-103458418D01*
X169732990Y-103458418D02*
X169732990Y-103577466D01*
X169590133Y-103101275D02*
X169590133Y-102863180D01*
X169732990Y-103148894D02*
X169232990Y-102982228D01*
X169232990Y-102982228D02*
X169732990Y-102815561D01*
X169732990Y-102363181D02*
X169494895Y-102529847D01*
X169732990Y-102648895D02*
X169232990Y-102648895D01*
X169232990Y-102648895D02*
X169232990Y-102458419D01*
X169232990Y-102458419D02*
X169256800Y-102410800D01*
X169256800Y-102410800D02*
X169280609Y-102386990D01*
X169280609Y-102386990D02*
X169328228Y-102363181D01*
X169328228Y-102363181D02*
X169399657Y-102363181D01*
X169399657Y-102363181D02*
X169447276Y-102386990D01*
X169447276Y-102386990D02*
X169471085Y-102410800D01*
X169471085Y-102410800D02*
X169494895Y-102458419D01*
X169494895Y-102458419D02*
X169494895Y-102648895D01*
X167057553Y-93876995D02*
X166819458Y-93876995D01*
X166819458Y-93876995D02*
X166795649Y-94115090D01*
X166795649Y-94115090D02*
X166819458Y-94091281D01*
X166819458Y-94091281D02*
X166867077Y-94067471D01*
X166867077Y-94067471D02*
X166986125Y-94067471D01*
X166986125Y-94067471D02*
X167033744Y-94091281D01*
X167033744Y-94091281D02*
X167057553Y-94115090D01*
X167057553Y-94115090D02*
X167081363Y-94162709D01*
X167081363Y-94162709D02*
X167081363Y-94281757D01*
X167081363Y-94281757D02*
X167057553Y-94329376D01*
X167057553Y-94329376D02*
X167033744Y-94353185D01*
X167033744Y-94353185D02*
X166986125Y-94376995D01*
X166986125Y-94376995D02*
X166867077Y-94376995D01*
X166867077Y-94376995D02*
X166819458Y-94353185D01*
X166819458Y-94353185D02*
X166795649Y-94329376D01*
X167224220Y-93876995D02*
X167390886Y-94376995D01*
X167390886Y-94376995D02*
X167557553Y-93876995D01*
X164685771Y-93900805D02*
X164638152Y-93876995D01*
X164638152Y-93876995D02*
X164566723Y-93876995D01*
X164566723Y-93876995D02*
X164495295Y-93900805D01*
X164495295Y-93900805D02*
X164447676Y-93948424D01*
X164447676Y-93948424D02*
X164423866Y-93996043D01*
X164423866Y-93996043D02*
X164400057Y-94091281D01*
X164400057Y-94091281D02*
X164400057Y-94162709D01*
X164400057Y-94162709D02*
X164423866Y-94257947D01*
X164423866Y-94257947D02*
X164447676Y-94305566D01*
X164447676Y-94305566D02*
X164495295Y-94353185D01*
X164495295Y-94353185D02*
X164566723Y-94376995D01*
X164566723Y-94376995D02*
X164614342Y-94376995D01*
X164614342Y-94376995D02*
X164685771Y-94353185D01*
X164685771Y-94353185D02*
X164709580Y-94329376D01*
X164709580Y-94329376D02*
X164709580Y-94162709D01*
X164709580Y-94162709D02*
X164614342Y-94162709D01*
X164923866Y-94376995D02*
X164923866Y-93876995D01*
X164923866Y-93876995D02*
X165209580Y-94376995D01*
X165209580Y-94376995D02*
X165209580Y-93876995D01*
X165447676Y-94376995D02*
X165447676Y-93876995D01*
X165447676Y-93876995D02*
X165566724Y-93876995D01*
X165566724Y-93876995D02*
X165638152Y-93900805D01*
X165638152Y-93900805D02*
X165685771Y-93948424D01*
X165685771Y-93948424D02*
X165709581Y-93996043D01*
X165709581Y-93996043D02*
X165733390Y-94091281D01*
X165733390Y-94091281D02*
X165733390Y-94162709D01*
X165733390Y-94162709D02*
X165709581Y-94257947D01*
X165709581Y-94257947D02*
X165685771Y-94305566D01*
X165685771Y-94305566D02*
X165638152Y-94353185D01*
X165638152Y-94353185D02*
X165566724Y-94376995D01*
X165566724Y-94376995D02*
X165447676Y-94376995D01*
X169278190Y-98158705D02*
X169278190Y-98063467D01*
X169278190Y-98063467D02*
X169302000Y-98015848D01*
X169302000Y-98015848D02*
X169349619Y-97968229D01*
X169349619Y-97968229D02*
X169444857Y-97944419D01*
X169444857Y-97944419D02*
X169611523Y-97944419D01*
X169611523Y-97944419D02*
X169706761Y-97968229D01*
X169706761Y-97968229D02*
X169754380Y-98015848D01*
X169754380Y-98015848D02*
X169778190Y-98063467D01*
X169778190Y-98063467D02*
X169778190Y-98158705D01*
X169778190Y-98158705D02*
X169754380Y-98206324D01*
X169754380Y-98206324D02*
X169706761Y-98253943D01*
X169706761Y-98253943D02*
X169611523Y-98277752D01*
X169611523Y-98277752D02*
X169444857Y-98277752D01*
X169444857Y-98277752D02*
X169349619Y-98253943D01*
X169349619Y-98253943D02*
X169302000Y-98206324D01*
X169302000Y-98206324D02*
X169278190Y-98158705D01*
X169778190Y-97492038D02*
X169778190Y-97730133D01*
X169778190Y-97730133D02*
X169278190Y-97730133D01*
X169516285Y-97325371D02*
X169516285Y-97158704D01*
X169778190Y-97087276D02*
X169778190Y-97325371D01*
X169778190Y-97325371D02*
X169278190Y-97325371D01*
X169278190Y-97325371D02*
X169278190Y-97087276D01*
X169778190Y-96872990D02*
X169278190Y-96872990D01*
X169278190Y-96872990D02*
X169278190Y-96753942D01*
X169278190Y-96753942D02*
X169302000Y-96682514D01*
X169302000Y-96682514D02*
X169349619Y-96634895D01*
X169349619Y-96634895D02*
X169397238Y-96611085D01*
X169397238Y-96611085D02*
X169492476Y-96587276D01*
X169492476Y-96587276D02*
X169563904Y-96587276D01*
X169563904Y-96587276D02*
X169659142Y-96611085D01*
X169659142Y-96611085D02*
X169706761Y-96634895D01*
X169706761Y-96634895D02*
X169754380Y-96682514D01*
X169754380Y-96682514D02*
X169778190Y-96753942D01*
X169778190Y-96753942D02*
X169778190Y-96872990D01*
X157302478Y-90744011D02*
X157064383Y-90744011D01*
X157064383Y-90744011D02*
X157064383Y-90244011D01*
X157683431Y-90744011D02*
X157683431Y-90482106D01*
X157683431Y-90482106D02*
X157659621Y-90434487D01*
X157659621Y-90434487D02*
X157612002Y-90410678D01*
X157612002Y-90410678D02*
X157516764Y-90410678D01*
X157516764Y-90410678D02*
X157469145Y-90434487D01*
X157683431Y-90720201D02*
X157635812Y-90744011D01*
X157635812Y-90744011D02*
X157516764Y-90744011D01*
X157516764Y-90744011D02*
X157469145Y-90720201D01*
X157469145Y-90720201D02*
X157445336Y-90672582D01*
X157445336Y-90672582D02*
X157445336Y-90624963D01*
X157445336Y-90624963D02*
X157469145Y-90577344D01*
X157469145Y-90577344D02*
X157516764Y-90553535D01*
X157516764Y-90553535D02*
X157635812Y-90553535D01*
X157635812Y-90553535D02*
X157683431Y-90529725D01*
X157897717Y-90720201D02*
X157945336Y-90744011D01*
X157945336Y-90744011D02*
X158040574Y-90744011D01*
X158040574Y-90744011D02*
X158088193Y-90720201D01*
X158088193Y-90720201D02*
X158112002Y-90672582D01*
X158112002Y-90672582D02*
X158112002Y-90648773D01*
X158112002Y-90648773D02*
X158088193Y-90601154D01*
X158088193Y-90601154D02*
X158040574Y-90577344D01*
X158040574Y-90577344D02*
X157969145Y-90577344D01*
X157969145Y-90577344D02*
X157921526Y-90553535D01*
X157921526Y-90553535D02*
X157897717Y-90505916D01*
X157897717Y-90505916D02*
X157897717Y-90482106D01*
X157897717Y-90482106D02*
X157921526Y-90434487D01*
X157921526Y-90434487D02*
X157969145Y-90410678D01*
X157969145Y-90410678D02*
X158040574Y-90410678D01*
X158040574Y-90410678D02*
X158088193Y-90434487D01*
X158516764Y-90720201D02*
X158469145Y-90744011D01*
X158469145Y-90744011D02*
X158373907Y-90744011D01*
X158373907Y-90744011D02*
X158326288Y-90720201D01*
X158326288Y-90720201D02*
X158302479Y-90672582D01*
X158302479Y-90672582D02*
X158302479Y-90482106D01*
X158302479Y-90482106D02*
X158326288Y-90434487D01*
X158326288Y-90434487D02*
X158373907Y-90410678D01*
X158373907Y-90410678D02*
X158469145Y-90410678D01*
X158469145Y-90410678D02*
X158516764Y-90434487D01*
X158516764Y-90434487D02*
X158540574Y-90482106D01*
X158540574Y-90482106D02*
X158540574Y-90529725D01*
X158540574Y-90529725D02*
X158302479Y-90577344D01*
X158754859Y-90744011D02*
X158754859Y-90410678D01*
X158754859Y-90505916D02*
X158778669Y-90458297D01*
X158778669Y-90458297D02*
X158802478Y-90434487D01*
X158802478Y-90434487D02*
X158850097Y-90410678D01*
X158850097Y-90410678D02*
X158897716Y-90410678D01*
X159005006Y-96330923D02*
X158766911Y-96330923D01*
X158766911Y-96330923D02*
X158743102Y-96569018D01*
X158743102Y-96569018D02*
X158766911Y-96545209D01*
X158766911Y-96545209D02*
X158814530Y-96521399D01*
X158814530Y-96521399D02*
X158933578Y-96521399D01*
X158933578Y-96521399D02*
X158981197Y-96545209D01*
X158981197Y-96545209D02*
X159005006Y-96569018D01*
X159005006Y-96569018D02*
X159028816Y-96616637D01*
X159028816Y-96616637D02*
X159028816Y-96735685D01*
X159028816Y-96735685D02*
X159005006Y-96783304D01*
X159005006Y-96783304D02*
X158981197Y-96807113D01*
X158981197Y-96807113D02*
X158933578Y-96830923D01*
X158933578Y-96830923D02*
X158814530Y-96830923D01*
X158814530Y-96830923D02*
X158766911Y-96807113D01*
X158766911Y-96807113D02*
X158743102Y-96783304D01*
X159171673Y-96330923D02*
X159338339Y-96830923D01*
X159338339Y-96830923D02*
X159505006Y-96330923D01*
X130548885Y-128297213D02*
X130548885Y-127916261D01*
X130477456Y-127211498D02*
X130501266Y-127140070D01*
X130501266Y-127140070D02*
X130525075Y-127116260D01*
X130525075Y-127116260D02*
X130572694Y-127092451D01*
X130572694Y-127092451D02*
X130644123Y-127092451D01*
X130644123Y-127092451D02*
X130691742Y-127116260D01*
X130691742Y-127116260D02*
X130715551Y-127140070D01*
X130715551Y-127140070D02*
X130739361Y-127187689D01*
X130739361Y-127187689D02*
X130739361Y-127378165D01*
X130739361Y-127378165D02*
X130239361Y-127378165D01*
X130239361Y-127378165D02*
X130239361Y-127211498D01*
X130239361Y-127211498D02*
X130263171Y-127163879D01*
X130263171Y-127163879D02*
X130286980Y-127140070D01*
X130286980Y-127140070D02*
X130334599Y-127116260D01*
X130334599Y-127116260D02*
X130382218Y-127116260D01*
X130382218Y-127116260D02*
X130429837Y-127140070D01*
X130429837Y-127140070D02*
X130453647Y-127163879D01*
X130453647Y-127163879D02*
X130477456Y-127211498D01*
X130477456Y-127211498D02*
X130477456Y-127378165D01*
X130739361Y-126663879D02*
X130477456Y-126663879D01*
X130477456Y-126663879D02*
X130429837Y-126687689D01*
X130429837Y-126687689D02*
X130406028Y-126735308D01*
X130406028Y-126735308D02*
X130406028Y-126830546D01*
X130406028Y-126830546D02*
X130429837Y-126878165D01*
X130715551Y-126663879D02*
X130739361Y-126711498D01*
X130739361Y-126711498D02*
X130739361Y-126830546D01*
X130739361Y-126830546D02*
X130715551Y-126878165D01*
X130715551Y-126878165D02*
X130667932Y-126901974D01*
X130667932Y-126901974D02*
X130620313Y-126901974D01*
X130620313Y-126901974D02*
X130572694Y-126878165D01*
X130572694Y-126878165D02*
X130548885Y-126830546D01*
X130548885Y-126830546D02*
X130548885Y-126711498D01*
X130548885Y-126711498D02*
X130525075Y-126663879D01*
X130406028Y-126497212D02*
X130406028Y-126306736D01*
X130239361Y-126425784D02*
X130667932Y-126425784D01*
X130667932Y-126425784D02*
X130715551Y-126401974D01*
X130715551Y-126401974D02*
X130739361Y-126354355D01*
X130739361Y-126354355D02*
X130739361Y-126306736D01*
X130406028Y-126211498D02*
X130406028Y-126021022D01*
X130239361Y-126140070D02*
X130667932Y-126140070D01*
X130667932Y-126140070D02*
X130715551Y-126116260D01*
X130715551Y-126116260D02*
X130739361Y-126068641D01*
X130739361Y-126068641D02*
X130739361Y-126021022D01*
X130715551Y-125663880D02*
X130739361Y-125711499D01*
X130739361Y-125711499D02*
X130739361Y-125806737D01*
X130739361Y-125806737D02*
X130715551Y-125854356D01*
X130715551Y-125854356D02*
X130667932Y-125878165D01*
X130667932Y-125878165D02*
X130477456Y-125878165D01*
X130477456Y-125878165D02*
X130429837Y-125854356D01*
X130429837Y-125854356D02*
X130406028Y-125806737D01*
X130406028Y-125806737D02*
X130406028Y-125711499D01*
X130406028Y-125711499D02*
X130429837Y-125663880D01*
X130429837Y-125663880D02*
X130477456Y-125640070D01*
X130477456Y-125640070D02*
X130525075Y-125640070D01*
X130525075Y-125640070D02*
X130572694Y-125878165D01*
X130739361Y-125425785D02*
X130406028Y-125425785D01*
X130501266Y-125425785D02*
X130453647Y-125401975D01*
X130453647Y-125401975D02*
X130429837Y-125378166D01*
X130429837Y-125378166D02*
X130406028Y-125330547D01*
X130406028Y-125330547D02*
X130406028Y-125282928D01*
X130406028Y-125163880D02*
X130739361Y-125044832D01*
X130406028Y-124925785D02*
X130739361Y-125044832D01*
X130739361Y-125044832D02*
X130858409Y-125092451D01*
X130858409Y-125092451D02*
X130882218Y-125116261D01*
X130882218Y-125116261D02*
X130906028Y-125163880D01*
X130548885Y-124435309D02*
X130548885Y-124054357D01*
X130739361Y-124244833D02*
X130358409Y-124244833D01*
X144677324Y-120176211D02*
X144677324Y-120580973D01*
X144677324Y-120580973D02*
X144701134Y-120628592D01*
X144701134Y-120628592D02*
X144724943Y-120652401D01*
X144724943Y-120652401D02*
X144772562Y-120676211D01*
X144772562Y-120676211D02*
X144867800Y-120676211D01*
X144867800Y-120676211D02*
X144915419Y-120652401D01*
X144915419Y-120652401D02*
X144939229Y-120628592D01*
X144939229Y-120628592D02*
X144963038Y-120580973D01*
X144963038Y-120580973D02*
X144963038Y-120176211D01*
X145177325Y-120652401D02*
X145248753Y-120676211D01*
X145248753Y-120676211D02*
X145367801Y-120676211D01*
X145367801Y-120676211D02*
X145415420Y-120652401D01*
X145415420Y-120652401D02*
X145439229Y-120628592D01*
X145439229Y-120628592D02*
X145463039Y-120580973D01*
X145463039Y-120580973D02*
X145463039Y-120533354D01*
X145463039Y-120533354D02*
X145439229Y-120485735D01*
X145439229Y-120485735D02*
X145415420Y-120461925D01*
X145415420Y-120461925D02*
X145367801Y-120438116D01*
X145367801Y-120438116D02*
X145272563Y-120414306D01*
X145272563Y-120414306D02*
X145224944Y-120390497D01*
X145224944Y-120390497D02*
X145201134Y-120366687D01*
X145201134Y-120366687D02*
X145177325Y-120319068D01*
X145177325Y-120319068D02*
X145177325Y-120271449D01*
X145177325Y-120271449D02*
X145201134Y-120223830D01*
X145201134Y-120223830D02*
X145224944Y-120200021D01*
X145224944Y-120200021D02*
X145272563Y-120176211D01*
X145272563Y-120176211D02*
X145391610Y-120176211D01*
X145391610Y-120176211D02*
X145463039Y-120200021D01*
X145843991Y-120414306D02*
X145915419Y-120438116D01*
X145915419Y-120438116D02*
X145939229Y-120461925D01*
X145939229Y-120461925D02*
X145963038Y-120509544D01*
X145963038Y-120509544D02*
X145963038Y-120580973D01*
X145963038Y-120580973D02*
X145939229Y-120628592D01*
X145939229Y-120628592D02*
X145915419Y-120652401D01*
X145915419Y-120652401D02*
X145867800Y-120676211D01*
X145867800Y-120676211D02*
X145677324Y-120676211D01*
X145677324Y-120676211D02*
X145677324Y-120176211D01*
X145677324Y-120176211D02*
X145843991Y-120176211D01*
X145843991Y-120176211D02*
X145891610Y-120200021D01*
X145891610Y-120200021D02*
X145915419Y-120223830D01*
X145915419Y-120223830D02*
X145939229Y-120271449D01*
X145939229Y-120271449D02*
X145939229Y-120319068D01*
X145939229Y-120319068D02*
X145915419Y-120366687D01*
X145915419Y-120366687D02*
X145891610Y-120390497D01*
X145891610Y-120390497D02*
X145843991Y-120414306D01*
X145843991Y-120414306D02*
X145677324Y-120414306D01*
X146177324Y-120485735D02*
X146558277Y-120485735D01*
X147082086Y-120628592D02*
X147058277Y-120652401D01*
X147058277Y-120652401D02*
X146986848Y-120676211D01*
X146986848Y-120676211D02*
X146939229Y-120676211D01*
X146939229Y-120676211D02*
X146867801Y-120652401D01*
X146867801Y-120652401D02*
X146820182Y-120604782D01*
X146820182Y-120604782D02*
X146796372Y-120557163D01*
X146796372Y-120557163D02*
X146772563Y-120461925D01*
X146772563Y-120461925D02*
X146772563Y-120390497D01*
X146772563Y-120390497D02*
X146796372Y-120295259D01*
X146796372Y-120295259D02*
X146820182Y-120247640D01*
X146820182Y-120247640D02*
X146867801Y-120200021D01*
X146867801Y-120200021D02*
X146939229Y-120176211D01*
X146939229Y-120176211D02*
X146986848Y-120176211D01*
X146986848Y-120176211D02*
X147058277Y-120200021D01*
X147058277Y-120200021D02*
X147082086Y-120223830D01*
X163409591Y-127989557D02*
X163433401Y-127918129D01*
X163433401Y-127918129D02*
X163433401Y-127799081D01*
X163433401Y-127799081D02*
X163409591Y-127751462D01*
X163409591Y-127751462D02*
X163385782Y-127727653D01*
X163385782Y-127727653D02*
X163338163Y-127703843D01*
X163338163Y-127703843D02*
X163290544Y-127703843D01*
X163290544Y-127703843D02*
X163242925Y-127727653D01*
X163242925Y-127727653D02*
X163219115Y-127751462D01*
X163219115Y-127751462D02*
X163195306Y-127799081D01*
X163195306Y-127799081D02*
X163171496Y-127894319D01*
X163171496Y-127894319D02*
X163147687Y-127941938D01*
X163147687Y-127941938D02*
X163123877Y-127965748D01*
X163123877Y-127965748D02*
X163076258Y-127989557D01*
X163076258Y-127989557D02*
X163028639Y-127989557D01*
X163028639Y-127989557D02*
X162981020Y-127965748D01*
X162981020Y-127965748D02*
X162957211Y-127941938D01*
X162957211Y-127941938D02*
X162933401Y-127894319D01*
X162933401Y-127894319D02*
X162933401Y-127775272D01*
X162933401Y-127775272D02*
X162957211Y-127703843D01*
X163100068Y-127537177D02*
X163433401Y-127441939D01*
X163433401Y-127441939D02*
X163195306Y-127346701D01*
X163195306Y-127346701D02*
X163433401Y-127251463D01*
X163433401Y-127251463D02*
X163100068Y-127156225D01*
X163433401Y-126965748D02*
X163100068Y-126965748D01*
X162933401Y-126965748D02*
X162957211Y-126989557D01*
X162957211Y-126989557D02*
X162981020Y-126965748D01*
X162981020Y-126965748D02*
X162957211Y-126941938D01*
X162957211Y-126941938D02*
X162933401Y-126965748D01*
X162933401Y-126965748D02*
X162981020Y-126965748D01*
X163100068Y-126799081D02*
X163100068Y-126608605D01*
X162933401Y-126727653D02*
X163361972Y-126727653D01*
X163361972Y-126727653D02*
X163409591Y-126703843D01*
X163409591Y-126703843D02*
X163433401Y-126656224D01*
X163433401Y-126656224D02*
X163433401Y-126608605D01*
X163409591Y-126227653D02*
X163433401Y-126275272D01*
X163433401Y-126275272D02*
X163433401Y-126370510D01*
X163433401Y-126370510D02*
X163409591Y-126418129D01*
X163409591Y-126418129D02*
X163385782Y-126441939D01*
X163385782Y-126441939D02*
X163338163Y-126465748D01*
X163338163Y-126465748D02*
X163195306Y-126465748D01*
X163195306Y-126465748D02*
X163147687Y-126441939D01*
X163147687Y-126441939D02*
X163123877Y-126418129D01*
X163123877Y-126418129D02*
X163100068Y-126370510D01*
X163100068Y-126370510D02*
X163100068Y-126275272D01*
X163100068Y-126275272D02*
X163123877Y-126227653D01*
X163433401Y-126013368D02*
X162933401Y-126013368D01*
X163433401Y-125799082D02*
X163171496Y-125799082D01*
X163171496Y-125799082D02*
X163123877Y-125822892D01*
X163123877Y-125822892D02*
X163100068Y-125870511D01*
X163100068Y-125870511D02*
X163100068Y-125941939D01*
X163100068Y-125941939D02*
X163123877Y-125989558D01*
X163123877Y-125989558D02*
X163147687Y-126013368D01*
X162933401Y-125165749D02*
X162933401Y-125070511D01*
X162933401Y-125070511D02*
X162957211Y-125022892D01*
X162957211Y-125022892D02*
X163004830Y-124975273D01*
X163004830Y-124975273D02*
X163100068Y-124951463D01*
X163100068Y-124951463D02*
X163266734Y-124951463D01*
X163266734Y-124951463D02*
X163361972Y-124975273D01*
X163361972Y-124975273D02*
X163409591Y-125022892D01*
X163409591Y-125022892D02*
X163433401Y-125070511D01*
X163433401Y-125070511D02*
X163433401Y-125165749D01*
X163433401Y-125165749D02*
X163409591Y-125213368D01*
X163409591Y-125213368D02*
X163361972Y-125260987D01*
X163361972Y-125260987D02*
X163266734Y-125284796D01*
X163266734Y-125284796D02*
X163100068Y-125284796D01*
X163100068Y-125284796D02*
X163004830Y-125260987D01*
X163004830Y-125260987D02*
X162957211Y-125213368D01*
X162957211Y-125213368D02*
X162933401Y-125165749D01*
X163100068Y-124522891D02*
X163433401Y-124522891D01*
X163100068Y-124737177D02*
X163361972Y-124737177D01*
X163361972Y-124737177D02*
X163409591Y-124713367D01*
X163409591Y-124713367D02*
X163433401Y-124665748D01*
X163433401Y-124665748D02*
X163433401Y-124594320D01*
X163433401Y-124594320D02*
X163409591Y-124546701D01*
X163409591Y-124546701D02*
X163385782Y-124522891D01*
X163100068Y-124356224D02*
X163100068Y-124165748D01*
X162933401Y-124284796D02*
X163361972Y-124284796D01*
X163361972Y-124284796D02*
X163409591Y-124260986D01*
X163409591Y-124260986D02*
X163433401Y-124213367D01*
X163433401Y-124213367D02*
X163433401Y-124165748D01*
X130705594Y-119904761D02*
X130729404Y-119833333D01*
X130729404Y-119833333D02*
X130729404Y-119714285D01*
X130729404Y-119714285D02*
X130705594Y-119666666D01*
X130705594Y-119666666D02*
X130681785Y-119642857D01*
X130681785Y-119642857D02*
X130634166Y-119619047D01*
X130634166Y-119619047D02*
X130586547Y-119619047D01*
X130586547Y-119619047D02*
X130538928Y-119642857D01*
X130538928Y-119642857D02*
X130515118Y-119666666D01*
X130515118Y-119666666D02*
X130491309Y-119714285D01*
X130491309Y-119714285D02*
X130467499Y-119809523D01*
X130467499Y-119809523D02*
X130443690Y-119857142D01*
X130443690Y-119857142D02*
X130419880Y-119880952D01*
X130419880Y-119880952D02*
X130372261Y-119904761D01*
X130372261Y-119904761D02*
X130324642Y-119904761D01*
X130324642Y-119904761D02*
X130277023Y-119880952D01*
X130277023Y-119880952D02*
X130253214Y-119857142D01*
X130253214Y-119857142D02*
X130229404Y-119809523D01*
X130229404Y-119809523D02*
X130229404Y-119690476D01*
X130229404Y-119690476D02*
X130253214Y-119619047D01*
X130396071Y-119452381D02*
X130729404Y-119357143D01*
X130729404Y-119357143D02*
X130491309Y-119261905D01*
X130491309Y-119261905D02*
X130729404Y-119166667D01*
X130729404Y-119166667D02*
X130396071Y-119071429D01*
X130729404Y-118880952D02*
X130396071Y-118880952D01*
X130229404Y-118880952D02*
X130253214Y-118904761D01*
X130253214Y-118904761D02*
X130277023Y-118880952D01*
X130277023Y-118880952D02*
X130253214Y-118857142D01*
X130253214Y-118857142D02*
X130229404Y-118880952D01*
X130229404Y-118880952D02*
X130277023Y-118880952D01*
X130396071Y-118714285D02*
X130396071Y-118523809D01*
X130229404Y-118642857D02*
X130657975Y-118642857D01*
X130657975Y-118642857D02*
X130705594Y-118619047D01*
X130705594Y-118619047D02*
X130729404Y-118571428D01*
X130729404Y-118571428D02*
X130729404Y-118523809D01*
X130705594Y-118142857D02*
X130729404Y-118190476D01*
X130729404Y-118190476D02*
X130729404Y-118285714D01*
X130729404Y-118285714D02*
X130705594Y-118333333D01*
X130705594Y-118333333D02*
X130681785Y-118357143D01*
X130681785Y-118357143D02*
X130634166Y-118380952D01*
X130634166Y-118380952D02*
X130491309Y-118380952D01*
X130491309Y-118380952D02*
X130443690Y-118357143D01*
X130443690Y-118357143D02*
X130419880Y-118333333D01*
X130419880Y-118333333D02*
X130396071Y-118285714D01*
X130396071Y-118285714D02*
X130396071Y-118190476D01*
X130396071Y-118190476D02*
X130419880Y-118142857D01*
X130729404Y-117928572D02*
X130229404Y-117928572D01*
X130729404Y-117714286D02*
X130467499Y-117714286D01*
X130467499Y-117714286D02*
X130419880Y-117738096D01*
X130419880Y-117738096D02*
X130396071Y-117785715D01*
X130396071Y-117785715D02*
X130396071Y-117857143D01*
X130396071Y-117857143D02*
X130419880Y-117904762D01*
X130419880Y-117904762D02*
X130443690Y-117928572D01*
X130729404Y-117176191D02*
X130229404Y-117176191D01*
X130396071Y-116938096D02*
X130729404Y-116938096D01*
X130443690Y-116938096D02*
X130419880Y-116914286D01*
X130419880Y-116914286D02*
X130396071Y-116866667D01*
X130396071Y-116866667D02*
X130396071Y-116795239D01*
X130396071Y-116795239D02*
X130419880Y-116747620D01*
X130419880Y-116747620D02*
X130467499Y-116723810D01*
X130467499Y-116723810D02*
X130729404Y-116723810D01*
X146138328Y-96544809D02*
X146090709Y-96520999D01*
X146090709Y-96520999D02*
X146019280Y-96520999D01*
X146019280Y-96520999D02*
X145947852Y-96544809D01*
X145947852Y-96544809D02*
X145900233Y-96592428D01*
X145900233Y-96592428D02*
X145876423Y-96640047D01*
X145876423Y-96640047D02*
X145852614Y-96735285D01*
X145852614Y-96735285D02*
X145852614Y-96806713D01*
X145852614Y-96806713D02*
X145876423Y-96901951D01*
X145876423Y-96901951D02*
X145900233Y-96949570D01*
X145900233Y-96949570D02*
X145947852Y-96997189D01*
X145947852Y-96997189D02*
X146019280Y-97020999D01*
X146019280Y-97020999D02*
X146066899Y-97020999D01*
X146066899Y-97020999D02*
X146138328Y-96997189D01*
X146138328Y-96997189D02*
X146162137Y-96973380D01*
X146162137Y-96973380D02*
X146162137Y-96806713D01*
X146162137Y-96806713D02*
X146066899Y-96806713D01*
X146376423Y-97020999D02*
X146376423Y-96520999D01*
X146376423Y-96520999D02*
X146662137Y-97020999D01*
X146662137Y-97020999D02*
X146662137Y-96520999D01*
X146900233Y-97020999D02*
X146900233Y-96520999D01*
X146900233Y-96520999D02*
X147019281Y-96520999D01*
X147019281Y-96520999D02*
X147090709Y-96544809D01*
X147090709Y-96544809D02*
X147138328Y-96592428D01*
X147138328Y-96592428D02*
X147162138Y-96640047D01*
X147162138Y-96640047D02*
X147185947Y-96735285D01*
X147185947Y-96735285D02*
X147185947Y-96806713D01*
X147185947Y-96806713D02*
X147162138Y-96901951D01*
X147162138Y-96901951D02*
X147138328Y-96949570D01*
X147138328Y-96949570D02*
X147090709Y-96997189D01*
X147090709Y-96997189D02*
X147019281Y-97020999D01*
X147019281Y-97020999D02*
X146900233Y-97020999D01*
X143413032Y-97043599D02*
X143413032Y-96543599D01*
X143413032Y-96543599D02*
X143698746Y-97043599D01*
X143698746Y-97043599D02*
X143698746Y-96543599D01*
X144222556Y-97043599D02*
X144055890Y-96805504D01*
X143936842Y-97043599D02*
X143936842Y-96543599D01*
X143936842Y-96543599D02*
X144127318Y-96543599D01*
X144127318Y-96543599D02*
X144174937Y-96567409D01*
X144174937Y-96567409D02*
X144198747Y-96591218D01*
X144198747Y-96591218D02*
X144222556Y-96638837D01*
X144222556Y-96638837D02*
X144222556Y-96710266D01*
X144222556Y-96710266D02*
X144198747Y-96757885D01*
X144198747Y-96757885D02*
X144174937Y-96781694D01*
X144174937Y-96781694D02*
X144127318Y-96805504D01*
X144127318Y-96805504D02*
X143936842Y-96805504D01*
X144413033Y-97019789D02*
X144484461Y-97043599D01*
X144484461Y-97043599D02*
X144603509Y-97043599D01*
X144603509Y-97043599D02*
X144651128Y-97019789D01*
X144651128Y-97019789D02*
X144674937Y-96995980D01*
X144674937Y-96995980D02*
X144698747Y-96948361D01*
X144698747Y-96948361D02*
X144698747Y-96900742D01*
X144698747Y-96900742D02*
X144674937Y-96853123D01*
X144674937Y-96853123D02*
X144651128Y-96829313D01*
X144651128Y-96829313D02*
X144603509Y-96805504D01*
X144603509Y-96805504D02*
X144508271Y-96781694D01*
X144508271Y-96781694D02*
X144460652Y-96757885D01*
X144460652Y-96757885D02*
X144436842Y-96734075D01*
X144436842Y-96734075D02*
X144413033Y-96686456D01*
X144413033Y-96686456D02*
X144413033Y-96638837D01*
X144413033Y-96638837D02*
X144436842Y-96591218D01*
X144436842Y-96591218D02*
X144460652Y-96567409D01*
X144460652Y-96567409D02*
X144508271Y-96543599D01*
X144508271Y-96543599D02*
X144627318Y-96543599D01*
X144627318Y-96543599D02*
X144698747Y-96567409D01*
X144841604Y-96543599D02*
X145127318Y-96543599D01*
X144984461Y-97043599D02*
X144984461Y-96543599D01*
X140745032Y-97042389D02*
X140816460Y-97066199D01*
X140816460Y-97066199D02*
X140935508Y-97066199D01*
X140935508Y-97066199D02*
X140983127Y-97042389D01*
X140983127Y-97042389D02*
X141006936Y-97018580D01*
X141006936Y-97018580D02*
X141030746Y-96970961D01*
X141030746Y-96970961D02*
X141030746Y-96923342D01*
X141030746Y-96923342D02*
X141006936Y-96875723D01*
X141006936Y-96875723D02*
X140983127Y-96851913D01*
X140983127Y-96851913D02*
X140935508Y-96828104D01*
X140935508Y-96828104D02*
X140840270Y-96804294D01*
X140840270Y-96804294D02*
X140792651Y-96780485D01*
X140792651Y-96780485D02*
X140768841Y-96756675D01*
X140768841Y-96756675D02*
X140745032Y-96709056D01*
X140745032Y-96709056D02*
X140745032Y-96661437D01*
X140745032Y-96661437D02*
X140768841Y-96613818D01*
X140768841Y-96613818D02*
X140792651Y-96590009D01*
X140792651Y-96590009D02*
X140840270Y-96566199D01*
X140840270Y-96566199D02*
X140959317Y-96566199D01*
X140959317Y-96566199D02*
X141030746Y-96590009D01*
X141197412Y-96566199D02*
X141316460Y-97066199D01*
X141316460Y-97066199D02*
X141411698Y-96709056D01*
X141411698Y-96709056D02*
X141506936Y-97066199D01*
X141506936Y-97066199D02*
X141625984Y-96566199D01*
X141816460Y-97066199D02*
X141816460Y-96566199D01*
X141816460Y-96566199D02*
X141935508Y-96566199D01*
X141935508Y-96566199D02*
X142006936Y-96590009D01*
X142006936Y-96590009D02*
X142054555Y-96637628D01*
X142054555Y-96637628D02*
X142078365Y-96685247D01*
X142078365Y-96685247D02*
X142102174Y-96780485D01*
X142102174Y-96780485D02*
X142102174Y-96851913D01*
X142102174Y-96851913D02*
X142078365Y-96947151D01*
X142078365Y-96947151D02*
X142054555Y-96994770D01*
X142054555Y-96994770D02*
X142006936Y-97042389D01*
X142006936Y-97042389D02*
X141935508Y-97066199D01*
X141935508Y-97066199D02*
X141816460Y-97066199D01*
X142316460Y-97066199D02*
X142316460Y-96566199D01*
X142649793Y-96566199D02*
X142745031Y-96566199D01*
X142745031Y-96566199D02*
X142792650Y-96590009D01*
X142792650Y-96590009D02*
X142840269Y-96637628D01*
X142840269Y-96637628D02*
X142864079Y-96732866D01*
X142864079Y-96732866D02*
X142864079Y-96899532D01*
X142864079Y-96899532D02*
X142840269Y-96994770D01*
X142840269Y-96994770D02*
X142792650Y-97042389D01*
X142792650Y-97042389D02*
X142745031Y-97066199D01*
X142745031Y-97066199D02*
X142649793Y-97066199D01*
X142649793Y-97066199D02*
X142602174Y-97042389D01*
X142602174Y-97042389D02*
X142554555Y-96994770D01*
X142554555Y-96994770D02*
X142530746Y-96899532D01*
X142530746Y-96899532D02*
X142530746Y-96732866D01*
X142530746Y-96732866D02*
X142554555Y-96637628D01*
X142554555Y-96637628D02*
X142602174Y-96590009D01*
X142602174Y-96590009D02*
X142649793Y-96566199D01*
X137807042Y-97042389D02*
X137878470Y-97066199D01*
X137878470Y-97066199D02*
X137997518Y-97066199D01*
X137997518Y-97066199D02*
X138045137Y-97042389D01*
X138045137Y-97042389D02*
X138068946Y-97018580D01*
X138068946Y-97018580D02*
X138092756Y-96970961D01*
X138092756Y-96970961D02*
X138092756Y-96923342D01*
X138092756Y-96923342D02*
X138068946Y-96875723D01*
X138068946Y-96875723D02*
X138045137Y-96851913D01*
X138045137Y-96851913D02*
X137997518Y-96828104D01*
X137997518Y-96828104D02*
X137902280Y-96804294D01*
X137902280Y-96804294D02*
X137854661Y-96780485D01*
X137854661Y-96780485D02*
X137830851Y-96756675D01*
X137830851Y-96756675D02*
X137807042Y-96709056D01*
X137807042Y-96709056D02*
X137807042Y-96661437D01*
X137807042Y-96661437D02*
X137830851Y-96613818D01*
X137830851Y-96613818D02*
X137854661Y-96590009D01*
X137854661Y-96590009D02*
X137902280Y-96566199D01*
X137902280Y-96566199D02*
X138021327Y-96566199D01*
X138021327Y-96566199D02*
X138092756Y-96590009D01*
X138259422Y-96566199D02*
X138378470Y-97066199D01*
X138378470Y-97066199D02*
X138473708Y-96709056D01*
X138473708Y-96709056D02*
X138568946Y-97066199D01*
X138568946Y-97066199D02*
X138687994Y-96566199D01*
X139164184Y-97018580D02*
X139140375Y-97042389D01*
X139140375Y-97042389D02*
X139068946Y-97066199D01*
X139068946Y-97066199D02*
X139021327Y-97066199D01*
X139021327Y-97066199D02*
X138949899Y-97042389D01*
X138949899Y-97042389D02*
X138902280Y-96994770D01*
X138902280Y-96994770D02*
X138878470Y-96947151D01*
X138878470Y-96947151D02*
X138854661Y-96851913D01*
X138854661Y-96851913D02*
X138854661Y-96780485D01*
X138854661Y-96780485D02*
X138878470Y-96685247D01*
X138878470Y-96685247D02*
X138902280Y-96637628D01*
X138902280Y-96637628D02*
X138949899Y-96590009D01*
X138949899Y-96590009D02*
X139021327Y-96566199D01*
X139021327Y-96566199D02*
X139068946Y-96566199D01*
X139068946Y-96566199D02*
X139140375Y-96590009D01*
X139140375Y-96590009D02*
X139164184Y-96613818D01*
X139616565Y-97066199D02*
X139378470Y-97066199D01*
X139378470Y-97066199D02*
X139378470Y-96566199D01*
X139783232Y-97066199D02*
X139783232Y-96566199D01*
X140068946Y-97066199D02*
X139854661Y-96780485D01*
X140068946Y-96566199D02*
X139783232Y-96851913D01*
X136958500Y-98040515D02*
X136982309Y-98064324D01*
X136982309Y-98064324D02*
X137006119Y-98135753D01*
X137006119Y-98135753D02*
X137006119Y-98183372D01*
X137006119Y-98183372D02*
X136982309Y-98254800D01*
X136982309Y-98254800D02*
X136934690Y-98302419D01*
X136934690Y-98302419D02*
X136887071Y-98326229D01*
X136887071Y-98326229D02*
X136791833Y-98350038D01*
X136791833Y-98350038D02*
X136720405Y-98350038D01*
X136720405Y-98350038D02*
X136625167Y-98326229D01*
X136625167Y-98326229D02*
X136577548Y-98302419D01*
X136577548Y-98302419D02*
X136529929Y-98254800D01*
X136529929Y-98254800D02*
X136506119Y-98183372D01*
X136506119Y-98183372D02*
X136506119Y-98135753D01*
X136506119Y-98135753D02*
X136529929Y-98064324D01*
X136529929Y-98064324D02*
X136553738Y-98040515D01*
X136982309Y-97850038D02*
X137006119Y-97778610D01*
X137006119Y-97778610D02*
X137006119Y-97659562D01*
X137006119Y-97659562D02*
X136982309Y-97611943D01*
X136982309Y-97611943D02*
X136958500Y-97588134D01*
X136958500Y-97588134D02*
X136910881Y-97564324D01*
X136910881Y-97564324D02*
X136863262Y-97564324D01*
X136863262Y-97564324D02*
X136815643Y-97588134D01*
X136815643Y-97588134D02*
X136791833Y-97611943D01*
X136791833Y-97611943D02*
X136768024Y-97659562D01*
X136768024Y-97659562D02*
X136744214Y-97754800D01*
X136744214Y-97754800D02*
X136720405Y-97802419D01*
X136720405Y-97802419D02*
X136696595Y-97826229D01*
X136696595Y-97826229D02*
X136648976Y-97850038D01*
X136648976Y-97850038D02*
X136601357Y-97850038D01*
X136601357Y-97850038D02*
X136553738Y-97826229D01*
X136553738Y-97826229D02*
X136529929Y-97802419D01*
X136529929Y-97802419D02*
X136506119Y-97754800D01*
X136506119Y-97754800D02*
X136506119Y-97635753D01*
X136506119Y-97635753D02*
X136529929Y-97564324D01*
X137036252Y-100240241D02*
X136798157Y-100406907D01*
X137036252Y-100525955D02*
X136536252Y-100525955D01*
X136536252Y-100525955D02*
X136536252Y-100335479D01*
X136536252Y-100335479D02*
X136560062Y-100287860D01*
X136560062Y-100287860D02*
X136583871Y-100264050D01*
X136583871Y-100264050D02*
X136631490Y-100240241D01*
X136631490Y-100240241D02*
X136702919Y-100240241D01*
X136702919Y-100240241D02*
X136750538Y-100264050D01*
X136750538Y-100264050D02*
X136774347Y-100287860D01*
X136774347Y-100287860D02*
X136798157Y-100335479D01*
X136798157Y-100335479D02*
X136798157Y-100525955D01*
X137012442Y-100049764D02*
X137036252Y-99978336D01*
X137036252Y-99978336D02*
X137036252Y-99859288D01*
X137036252Y-99859288D02*
X137012442Y-99811669D01*
X137012442Y-99811669D02*
X136988633Y-99787860D01*
X136988633Y-99787860D02*
X136941014Y-99764050D01*
X136941014Y-99764050D02*
X136893395Y-99764050D01*
X136893395Y-99764050D02*
X136845776Y-99787860D01*
X136845776Y-99787860D02*
X136821966Y-99811669D01*
X136821966Y-99811669D02*
X136798157Y-99859288D01*
X136798157Y-99859288D02*
X136774347Y-99954526D01*
X136774347Y-99954526D02*
X136750538Y-100002145D01*
X136750538Y-100002145D02*
X136726728Y-100025955D01*
X136726728Y-100025955D02*
X136679109Y-100049764D01*
X136679109Y-100049764D02*
X136631490Y-100049764D01*
X136631490Y-100049764D02*
X136583871Y-100025955D01*
X136583871Y-100025955D02*
X136560062Y-100002145D01*
X136560062Y-100002145D02*
X136536252Y-99954526D01*
X136536252Y-99954526D02*
X136536252Y-99835479D01*
X136536252Y-99835479D02*
X136560062Y-99764050D01*
X136536252Y-99621193D02*
X136536252Y-99335479D01*
X137036252Y-99478336D02*
X136536252Y-99478336D01*
X137081452Y-102333949D02*
X136581452Y-102333949D01*
X136581452Y-102333949D02*
X136581452Y-102214901D01*
X136581452Y-102214901D02*
X136605262Y-102143473D01*
X136605262Y-102143473D02*
X136652881Y-102095854D01*
X136652881Y-102095854D02*
X136700500Y-102072044D01*
X136700500Y-102072044D02*
X136795738Y-102048235D01*
X136795738Y-102048235D02*
X136867166Y-102048235D01*
X136867166Y-102048235D02*
X136962404Y-102072044D01*
X136962404Y-102072044D02*
X137010023Y-102095854D01*
X137010023Y-102095854D02*
X137057642Y-102143473D01*
X137057642Y-102143473D02*
X137081452Y-102214901D01*
X137081452Y-102214901D02*
X137081452Y-102333949D01*
X137033833Y-101548235D02*
X137057642Y-101572044D01*
X137057642Y-101572044D02*
X137081452Y-101643473D01*
X137081452Y-101643473D02*
X137081452Y-101691092D01*
X137081452Y-101691092D02*
X137057642Y-101762520D01*
X137057642Y-101762520D02*
X137010023Y-101810139D01*
X137010023Y-101810139D02*
X136962404Y-101833949D01*
X136962404Y-101833949D02*
X136867166Y-101857758D01*
X136867166Y-101857758D02*
X136795738Y-101857758D01*
X136795738Y-101857758D02*
X136700500Y-101833949D01*
X136700500Y-101833949D02*
X136652881Y-101810139D01*
X136652881Y-101810139D02*
X136605262Y-101762520D01*
X136605262Y-101762520D02*
X136581452Y-101691092D01*
X136581452Y-101691092D02*
X136581452Y-101643473D01*
X136581452Y-101643473D02*
X136605262Y-101572044D01*
X136605262Y-101572044D02*
X136629071Y-101548235D01*
X137096519Y-104729540D02*
X136596519Y-104729540D01*
X136596519Y-104729540D02*
X136953662Y-104562873D01*
X136953662Y-104562873D02*
X136596519Y-104396207D01*
X136596519Y-104396207D02*
X137096519Y-104396207D01*
X136596519Y-104062873D02*
X136596519Y-103967635D01*
X136596519Y-103967635D02*
X136620329Y-103920016D01*
X136620329Y-103920016D02*
X136667948Y-103872397D01*
X136667948Y-103872397D02*
X136763186Y-103848587D01*
X136763186Y-103848587D02*
X136929852Y-103848587D01*
X136929852Y-103848587D02*
X137025090Y-103872397D01*
X137025090Y-103872397D02*
X137072709Y-103920016D01*
X137072709Y-103920016D02*
X137096519Y-103967635D01*
X137096519Y-103967635D02*
X137096519Y-104062873D01*
X137096519Y-104062873D02*
X137072709Y-104110492D01*
X137072709Y-104110492D02*
X137025090Y-104158111D01*
X137025090Y-104158111D02*
X136929852Y-104181920D01*
X136929852Y-104181920D02*
X136763186Y-104181920D01*
X136763186Y-104181920D02*
X136667948Y-104158111D01*
X136667948Y-104158111D02*
X136620329Y-104110492D01*
X136620329Y-104110492D02*
X136596519Y-104062873D01*
X137072709Y-103658110D02*
X137096519Y-103586682D01*
X137096519Y-103586682D02*
X137096519Y-103467634D01*
X137096519Y-103467634D02*
X137072709Y-103420015D01*
X137072709Y-103420015D02*
X137048900Y-103396206D01*
X137048900Y-103396206D02*
X137001281Y-103372396D01*
X137001281Y-103372396D02*
X136953662Y-103372396D01*
X136953662Y-103372396D02*
X136906043Y-103396206D01*
X136906043Y-103396206D02*
X136882233Y-103420015D01*
X136882233Y-103420015D02*
X136858424Y-103467634D01*
X136858424Y-103467634D02*
X136834614Y-103562872D01*
X136834614Y-103562872D02*
X136810805Y-103610491D01*
X136810805Y-103610491D02*
X136786995Y-103634301D01*
X136786995Y-103634301D02*
X136739376Y-103658110D01*
X136739376Y-103658110D02*
X136691757Y-103658110D01*
X136691757Y-103658110D02*
X136644138Y-103634301D01*
X136644138Y-103634301D02*
X136620329Y-103610491D01*
X136620329Y-103610491D02*
X136596519Y-103562872D01*
X136596519Y-103562872D02*
X136596519Y-103443825D01*
X136596519Y-103443825D02*
X136620329Y-103372396D01*
X137096519Y-103158111D02*
X136596519Y-103158111D01*
X137057642Y-106757209D02*
X137081452Y-106685781D01*
X137081452Y-106685781D02*
X137081452Y-106566733D01*
X137081452Y-106566733D02*
X137057642Y-106519114D01*
X137057642Y-106519114D02*
X137033833Y-106495305D01*
X137033833Y-106495305D02*
X136986214Y-106471495D01*
X136986214Y-106471495D02*
X136938595Y-106471495D01*
X136938595Y-106471495D02*
X136890976Y-106495305D01*
X136890976Y-106495305D02*
X136867166Y-106519114D01*
X136867166Y-106519114D02*
X136843357Y-106566733D01*
X136843357Y-106566733D02*
X136819547Y-106661971D01*
X136819547Y-106661971D02*
X136795738Y-106709590D01*
X136795738Y-106709590D02*
X136771928Y-106733400D01*
X136771928Y-106733400D02*
X136724309Y-106757209D01*
X136724309Y-106757209D02*
X136676690Y-106757209D01*
X136676690Y-106757209D02*
X136629071Y-106733400D01*
X136629071Y-106733400D02*
X136605262Y-106709590D01*
X136605262Y-106709590D02*
X136581452Y-106661971D01*
X136581452Y-106661971D02*
X136581452Y-106542924D01*
X136581452Y-106542924D02*
X136605262Y-106471495D01*
X137033833Y-105971496D02*
X137057642Y-105995305D01*
X137057642Y-105995305D02*
X137081452Y-106066734D01*
X137081452Y-106066734D02*
X137081452Y-106114353D01*
X137081452Y-106114353D02*
X137057642Y-106185781D01*
X137057642Y-106185781D02*
X137010023Y-106233400D01*
X137010023Y-106233400D02*
X136962404Y-106257210D01*
X136962404Y-106257210D02*
X136867166Y-106281019D01*
X136867166Y-106281019D02*
X136795738Y-106281019D01*
X136795738Y-106281019D02*
X136700500Y-106257210D01*
X136700500Y-106257210D02*
X136652881Y-106233400D01*
X136652881Y-106233400D02*
X136605262Y-106185781D01*
X136605262Y-106185781D02*
X136581452Y-106114353D01*
X136581452Y-106114353D02*
X136581452Y-106066734D01*
X136581452Y-106066734D02*
X136605262Y-105995305D01*
X136605262Y-105995305D02*
X136629071Y-105971496D01*
X137081452Y-105757210D02*
X136581452Y-105757210D01*
X137081452Y-105471496D02*
X136795738Y-105685781D01*
X136581452Y-105471496D02*
X136867166Y-105757210D01*
X136391190Y-118066652D02*
X136391190Y-118304747D01*
X136391190Y-118304747D02*
X136629285Y-118328556D01*
X136629285Y-118328556D02*
X136605476Y-118304747D01*
X136605476Y-118304747D02*
X136581666Y-118257128D01*
X136581666Y-118257128D02*
X136581666Y-118138080D01*
X136581666Y-118138080D02*
X136605476Y-118090461D01*
X136605476Y-118090461D02*
X136629285Y-118066652D01*
X136629285Y-118066652D02*
X136676904Y-118042842D01*
X136676904Y-118042842D02*
X136795952Y-118042842D01*
X136795952Y-118042842D02*
X136843571Y-118066652D01*
X136843571Y-118066652D02*
X136867380Y-118090461D01*
X136867380Y-118090461D02*
X136891190Y-118138080D01*
X136891190Y-118138080D02*
X136891190Y-118257128D01*
X136891190Y-118257128D02*
X136867380Y-118304747D01*
X136867380Y-118304747D02*
X136843571Y-118328556D01*
X136391190Y-117899985D02*
X136891190Y-117733319D01*
X136891190Y-117733319D02*
X136391190Y-117566652D01*
X136941993Y-111120453D02*
X136703898Y-111287119D01*
X136941993Y-111406167D02*
X136441993Y-111406167D01*
X136441993Y-111406167D02*
X136441993Y-111215691D01*
X136441993Y-111215691D02*
X136465803Y-111168072D01*
X136465803Y-111168072D02*
X136489612Y-111144262D01*
X136489612Y-111144262D02*
X136537231Y-111120453D01*
X136537231Y-111120453D02*
X136608660Y-111120453D01*
X136608660Y-111120453D02*
X136656279Y-111144262D01*
X136656279Y-111144262D02*
X136680088Y-111168072D01*
X136680088Y-111168072D02*
X136703898Y-111215691D01*
X136703898Y-111215691D02*
X136703898Y-111406167D01*
X136941993Y-110953786D02*
X136608660Y-110691881D01*
X136608660Y-110953786D02*
X136941993Y-110691881D01*
X136464593Y-113466388D02*
X136464593Y-113180674D01*
X136964593Y-113323531D02*
X136464593Y-113323531D01*
X136964593Y-113061627D02*
X136631260Y-112799722D01*
X136631260Y-113061627D02*
X136964593Y-112799722D01*
%TO.C,C5*%
X143916666Y-116136071D02*
X143892857Y-116159880D01*
X143892857Y-116159880D02*
X143821428Y-116183690D01*
X143821428Y-116183690D02*
X143773809Y-116183690D01*
X143773809Y-116183690D02*
X143702381Y-116159880D01*
X143702381Y-116159880D02*
X143654762Y-116112261D01*
X143654762Y-116112261D02*
X143630952Y-116064642D01*
X143630952Y-116064642D02*
X143607143Y-115969404D01*
X143607143Y-115969404D02*
X143607143Y-115897976D01*
X143607143Y-115897976D02*
X143630952Y-115802738D01*
X143630952Y-115802738D02*
X143654762Y-115755119D01*
X143654762Y-115755119D02*
X143702381Y-115707500D01*
X143702381Y-115707500D02*
X143773809Y-115683690D01*
X143773809Y-115683690D02*
X143821428Y-115683690D01*
X143821428Y-115683690D02*
X143892857Y-115707500D01*
X143892857Y-115707500D02*
X143916666Y-115731309D01*
X144369047Y-115683690D02*
X144130952Y-115683690D01*
X144130952Y-115683690D02*
X144107143Y-115921785D01*
X144107143Y-115921785D02*
X144130952Y-115897976D01*
X144130952Y-115897976D02*
X144178571Y-115874166D01*
X144178571Y-115874166D02*
X144297619Y-115874166D01*
X144297619Y-115874166D02*
X144345238Y-115897976D01*
X144345238Y-115897976D02*
X144369047Y-115921785D01*
X144369047Y-115921785D02*
X144392857Y-115969404D01*
X144392857Y-115969404D02*
X144392857Y-116088452D01*
X144392857Y-116088452D02*
X144369047Y-116136071D01*
X144369047Y-116136071D02*
X144345238Y-116159880D01*
X144345238Y-116159880D02*
X144297619Y-116183690D01*
X144297619Y-116183690D02*
X144178571Y-116183690D01*
X144178571Y-116183690D02*
X144130952Y-116159880D01*
X144130952Y-116159880D02*
X144107143Y-116136071D01*
D11*
%TO.C,Q1*%
X151823199Y-92902807D02*
X151702247Y-92842331D01*
X151702247Y-92842331D02*
X151581294Y-92721378D01*
X151581294Y-92721378D02*
X151399866Y-92539950D01*
X151399866Y-92539950D02*
X151278913Y-92479473D01*
X151278913Y-92479473D02*
X151157961Y-92479473D01*
X151218437Y-92781854D02*
X151097485Y-92721378D01*
X151097485Y-92721378D02*
X150976532Y-92600426D01*
X150976532Y-92600426D02*
X150916056Y-92358521D01*
X150916056Y-92358521D02*
X150916056Y-91935188D01*
X150916056Y-91935188D02*
X150976532Y-91693283D01*
X150976532Y-91693283D02*
X151097485Y-91572331D01*
X151097485Y-91572331D02*
X151218437Y-91511854D01*
X151218437Y-91511854D02*
X151460342Y-91511854D01*
X151460342Y-91511854D02*
X151581294Y-91572331D01*
X151581294Y-91572331D02*
X151702247Y-91693283D01*
X151702247Y-91693283D02*
X151762723Y-91935188D01*
X151762723Y-91935188D02*
X151762723Y-92358521D01*
X151762723Y-92358521D02*
X151702247Y-92600426D01*
X151702247Y-92600426D02*
X151581294Y-92721378D01*
X151581294Y-92721378D02*
X151460342Y-92781854D01*
X151460342Y-92781854D02*
X151218437Y-92781854D01*
X152972247Y-92781854D02*
X152246532Y-92781854D01*
X152609389Y-92781854D02*
X152609389Y-91511854D01*
X152609389Y-91511854D02*
X152488437Y-91693283D01*
X152488437Y-91693283D02*
X152367485Y-91814235D01*
X152367485Y-91814235D02*
X152246532Y-91874711D01*
D10*
%TO.C,R1*%
X149968259Y-119340150D02*
X149801593Y-119102055D01*
X149682545Y-119340150D02*
X149682545Y-118840150D01*
X149682545Y-118840150D02*
X149873021Y-118840150D01*
X149873021Y-118840150D02*
X149920640Y-118863960D01*
X149920640Y-118863960D02*
X149944450Y-118887769D01*
X149944450Y-118887769D02*
X149968259Y-118935388D01*
X149968259Y-118935388D02*
X149968259Y-119006817D01*
X149968259Y-119006817D02*
X149944450Y-119054436D01*
X149944450Y-119054436D02*
X149920640Y-119078245D01*
X149920640Y-119078245D02*
X149873021Y-119102055D01*
X149873021Y-119102055D02*
X149682545Y-119102055D01*
X150444450Y-119340150D02*
X150158736Y-119340150D01*
X150301593Y-119340150D02*
X150301593Y-118840150D01*
X150301593Y-118840150D02*
X150253974Y-118911579D01*
X150253974Y-118911579D02*
X150206355Y-118959198D01*
X150206355Y-118959198D02*
X150158736Y-118983007D01*
%TO.C,J5*%
X154833333Y-90214322D02*
X154833333Y-90571465D01*
X154833333Y-90571465D02*
X154809524Y-90642893D01*
X154809524Y-90642893D02*
X154761905Y-90690512D01*
X154761905Y-90690512D02*
X154690476Y-90714322D01*
X154690476Y-90714322D02*
X154642857Y-90714322D01*
X155309523Y-90214322D02*
X155071428Y-90214322D01*
X155071428Y-90214322D02*
X155047619Y-90452417D01*
X155047619Y-90452417D02*
X155071428Y-90428608D01*
X155071428Y-90428608D02*
X155119047Y-90404798D01*
X155119047Y-90404798D02*
X155238095Y-90404798D01*
X155238095Y-90404798D02*
X155285714Y-90428608D01*
X155285714Y-90428608D02*
X155309523Y-90452417D01*
X155309523Y-90452417D02*
X155333333Y-90500036D01*
X155333333Y-90500036D02*
X155333333Y-90619084D01*
X155333333Y-90619084D02*
X155309523Y-90666703D01*
X155309523Y-90666703D02*
X155285714Y-90690512D01*
X155285714Y-90690512D02*
X155238095Y-90714322D01*
X155238095Y-90714322D02*
X155119047Y-90714322D01*
X155119047Y-90714322D02*
X155071428Y-90690512D01*
X155071428Y-90690512D02*
X155047619Y-90666703D01*
%TO.C,R9*%
X163699002Y-110049153D02*
X163460907Y-110215819D01*
X163699002Y-110334867D02*
X163199002Y-110334867D01*
X163199002Y-110334867D02*
X163199002Y-110144391D01*
X163199002Y-110144391D02*
X163222812Y-110096772D01*
X163222812Y-110096772D02*
X163246621Y-110072962D01*
X163246621Y-110072962D02*
X163294240Y-110049153D01*
X163294240Y-110049153D02*
X163365669Y-110049153D01*
X163365669Y-110049153D02*
X163413288Y-110072962D01*
X163413288Y-110072962D02*
X163437097Y-110096772D01*
X163437097Y-110096772D02*
X163460907Y-110144391D01*
X163460907Y-110144391D02*
X163460907Y-110334867D01*
X163699002Y-109811057D02*
X163699002Y-109715819D01*
X163699002Y-109715819D02*
X163675192Y-109668200D01*
X163675192Y-109668200D02*
X163651383Y-109644391D01*
X163651383Y-109644391D02*
X163579954Y-109596772D01*
X163579954Y-109596772D02*
X163484716Y-109572962D01*
X163484716Y-109572962D02*
X163294240Y-109572962D01*
X163294240Y-109572962D02*
X163246621Y-109596772D01*
X163246621Y-109596772D02*
X163222812Y-109620581D01*
X163222812Y-109620581D02*
X163199002Y-109668200D01*
X163199002Y-109668200D02*
X163199002Y-109763438D01*
X163199002Y-109763438D02*
X163222812Y-109811057D01*
X163222812Y-109811057D02*
X163246621Y-109834867D01*
X163246621Y-109834867D02*
X163294240Y-109858676D01*
X163294240Y-109858676D02*
X163413288Y-109858676D01*
X163413288Y-109858676D02*
X163460907Y-109834867D01*
X163460907Y-109834867D02*
X163484716Y-109811057D01*
X163484716Y-109811057D02*
X163508526Y-109763438D01*
X163508526Y-109763438D02*
X163508526Y-109668200D01*
X163508526Y-109668200D02*
X163484716Y-109620581D01*
X163484716Y-109620581D02*
X163460907Y-109596772D01*
X163460907Y-109596772D02*
X163413288Y-109572962D01*
%TO.C,C2*%
X138859268Y-102817178D02*
X138883077Y-102840987D01*
X138883077Y-102840987D02*
X138906887Y-102912416D01*
X138906887Y-102912416D02*
X138906887Y-102960035D01*
X138906887Y-102960035D02*
X138883077Y-103031463D01*
X138883077Y-103031463D02*
X138835458Y-103079082D01*
X138835458Y-103079082D02*
X138787839Y-103102892D01*
X138787839Y-103102892D02*
X138692601Y-103126701D01*
X138692601Y-103126701D02*
X138621173Y-103126701D01*
X138621173Y-103126701D02*
X138525935Y-103102892D01*
X138525935Y-103102892D02*
X138478316Y-103079082D01*
X138478316Y-103079082D02*
X138430697Y-103031463D01*
X138430697Y-103031463D02*
X138406887Y-102960035D01*
X138406887Y-102960035D02*
X138406887Y-102912416D01*
X138406887Y-102912416D02*
X138430697Y-102840987D01*
X138430697Y-102840987D02*
X138454506Y-102817178D01*
X138454506Y-102626701D02*
X138430697Y-102602892D01*
X138430697Y-102602892D02*
X138406887Y-102555273D01*
X138406887Y-102555273D02*
X138406887Y-102436225D01*
X138406887Y-102436225D02*
X138430697Y-102388606D01*
X138430697Y-102388606D02*
X138454506Y-102364797D01*
X138454506Y-102364797D02*
X138502125Y-102340987D01*
X138502125Y-102340987D02*
X138549744Y-102340987D01*
X138549744Y-102340987D02*
X138621173Y-102364797D01*
X138621173Y-102364797D02*
X138906887Y-102650511D01*
X138906887Y-102650511D02*
X138906887Y-102340987D01*
%TO.C,C3*%
X155638872Y-103379061D02*
X155662681Y-103402870D01*
X155662681Y-103402870D02*
X155686491Y-103474299D01*
X155686491Y-103474299D02*
X155686491Y-103521918D01*
X155686491Y-103521918D02*
X155662681Y-103593346D01*
X155662681Y-103593346D02*
X155615062Y-103640965D01*
X155615062Y-103640965D02*
X155567443Y-103664775D01*
X155567443Y-103664775D02*
X155472205Y-103688584D01*
X155472205Y-103688584D02*
X155400777Y-103688584D01*
X155400777Y-103688584D02*
X155305539Y-103664775D01*
X155305539Y-103664775D02*
X155257920Y-103640965D01*
X155257920Y-103640965D02*
X155210301Y-103593346D01*
X155210301Y-103593346D02*
X155186491Y-103521918D01*
X155186491Y-103521918D02*
X155186491Y-103474299D01*
X155186491Y-103474299D02*
X155210301Y-103402870D01*
X155210301Y-103402870D02*
X155234110Y-103379061D01*
X155186491Y-103212394D02*
X155186491Y-102902870D01*
X155186491Y-102902870D02*
X155376967Y-103069537D01*
X155376967Y-103069537D02*
X155376967Y-102998108D01*
X155376967Y-102998108D02*
X155400777Y-102950489D01*
X155400777Y-102950489D02*
X155424586Y-102926680D01*
X155424586Y-102926680D02*
X155472205Y-102902870D01*
X155472205Y-102902870D02*
X155591253Y-102902870D01*
X155591253Y-102902870D02*
X155638872Y-102926680D01*
X155638872Y-102926680D02*
X155662681Y-102950489D01*
X155662681Y-102950489D02*
X155686491Y-102998108D01*
X155686491Y-102998108D02*
X155686491Y-103140965D01*
X155686491Y-103140965D02*
X155662681Y-103188584D01*
X155662681Y-103188584D02*
X155638872Y-103212394D01*
%TO.C,IC1*%
X140927557Y-126714093D02*
X140427557Y-126714093D01*
X140879938Y-126190284D02*
X140903747Y-126214093D01*
X140903747Y-126214093D02*
X140927557Y-126285522D01*
X140927557Y-126285522D02*
X140927557Y-126333141D01*
X140927557Y-126333141D02*
X140903747Y-126404569D01*
X140903747Y-126404569D02*
X140856128Y-126452188D01*
X140856128Y-126452188D02*
X140808509Y-126475998D01*
X140808509Y-126475998D02*
X140713271Y-126499807D01*
X140713271Y-126499807D02*
X140641843Y-126499807D01*
X140641843Y-126499807D02*
X140546605Y-126475998D01*
X140546605Y-126475998D02*
X140498986Y-126452188D01*
X140498986Y-126452188D02*
X140451367Y-126404569D01*
X140451367Y-126404569D02*
X140427557Y-126333141D01*
X140427557Y-126333141D02*
X140427557Y-126285522D01*
X140427557Y-126285522D02*
X140451367Y-126214093D01*
X140451367Y-126214093D02*
X140475176Y-126190284D01*
X140927557Y-125714093D02*
X140927557Y-125999807D01*
X140927557Y-125856950D02*
X140427557Y-125856950D01*
X140427557Y-125856950D02*
X140498986Y-125904569D01*
X140498986Y-125904569D02*
X140546605Y-125952188D01*
X140546605Y-125952188D02*
X140570414Y-125999807D01*
%TO.C,C9*%
X140916852Y-123119260D02*
X140893043Y-123143069D01*
X140893043Y-123143069D02*
X140821614Y-123166879D01*
X140821614Y-123166879D02*
X140773995Y-123166879D01*
X140773995Y-123166879D02*
X140702567Y-123143069D01*
X140702567Y-123143069D02*
X140654948Y-123095450D01*
X140654948Y-123095450D02*
X140631138Y-123047831D01*
X140631138Y-123047831D02*
X140607329Y-122952593D01*
X140607329Y-122952593D02*
X140607329Y-122881165D01*
X140607329Y-122881165D02*
X140631138Y-122785927D01*
X140631138Y-122785927D02*
X140654948Y-122738308D01*
X140654948Y-122738308D02*
X140702567Y-122690689D01*
X140702567Y-122690689D02*
X140773995Y-122666879D01*
X140773995Y-122666879D02*
X140821614Y-122666879D01*
X140821614Y-122666879D02*
X140893043Y-122690689D01*
X140893043Y-122690689D02*
X140916852Y-122714498D01*
X141154948Y-123166879D02*
X141250186Y-123166879D01*
X141250186Y-123166879D02*
X141297805Y-123143069D01*
X141297805Y-123143069D02*
X141321614Y-123119260D01*
X141321614Y-123119260D02*
X141369233Y-123047831D01*
X141369233Y-123047831D02*
X141393043Y-122952593D01*
X141393043Y-122952593D02*
X141393043Y-122762117D01*
X141393043Y-122762117D02*
X141369233Y-122714498D01*
X141369233Y-122714498D02*
X141345424Y-122690689D01*
X141345424Y-122690689D02*
X141297805Y-122666879D01*
X141297805Y-122666879D02*
X141202567Y-122666879D01*
X141202567Y-122666879D02*
X141154948Y-122690689D01*
X141154948Y-122690689D02*
X141131138Y-122714498D01*
X141131138Y-122714498D02*
X141107329Y-122762117D01*
X141107329Y-122762117D02*
X141107329Y-122881165D01*
X141107329Y-122881165D02*
X141131138Y-122928784D01*
X141131138Y-122928784D02*
X141154948Y-122952593D01*
X141154948Y-122952593D02*
X141202567Y-122976403D01*
X141202567Y-122976403D02*
X141297805Y-122976403D01*
X141297805Y-122976403D02*
X141345424Y-122952593D01*
X141345424Y-122952593D02*
X141369233Y-122928784D01*
X141369233Y-122928784D02*
X141393043Y-122881165D01*
%TO.C,R2*%
X152920214Y-121405449D02*
X152753548Y-121167354D01*
X152634500Y-121405449D02*
X152634500Y-120905449D01*
X152634500Y-120905449D02*
X152824976Y-120905449D01*
X152824976Y-120905449D02*
X152872595Y-120929259D01*
X152872595Y-120929259D02*
X152896405Y-120953068D01*
X152896405Y-120953068D02*
X152920214Y-121000687D01*
X152920214Y-121000687D02*
X152920214Y-121072116D01*
X152920214Y-121072116D02*
X152896405Y-121119735D01*
X152896405Y-121119735D02*
X152872595Y-121143544D01*
X152872595Y-121143544D02*
X152824976Y-121167354D01*
X152824976Y-121167354D02*
X152634500Y-121167354D01*
X153110691Y-120953068D02*
X153134500Y-120929259D01*
X153134500Y-120929259D02*
X153182119Y-120905449D01*
X153182119Y-120905449D02*
X153301167Y-120905449D01*
X153301167Y-120905449D02*
X153348786Y-120929259D01*
X153348786Y-120929259D02*
X153372595Y-120953068D01*
X153372595Y-120953068D02*
X153396405Y-121000687D01*
X153396405Y-121000687D02*
X153396405Y-121048306D01*
X153396405Y-121048306D02*
X153372595Y-121119735D01*
X153372595Y-121119735D02*
X153086881Y-121405449D01*
X153086881Y-121405449D02*
X153396405Y-121405449D01*
%TO.C,R11*%
X160148207Y-114832357D02*
X159981541Y-114594262D01*
X159862493Y-114832357D02*
X159862493Y-114332357D01*
X159862493Y-114332357D02*
X160052969Y-114332357D01*
X160052969Y-114332357D02*
X160100588Y-114356167D01*
X160100588Y-114356167D02*
X160124398Y-114379976D01*
X160124398Y-114379976D02*
X160148207Y-114427595D01*
X160148207Y-114427595D02*
X160148207Y-114499024D01*
X160148207Y-114499024D02*
X160124398Y-114546643D01*
X160124398Y-114546643D02*
X160100588Y-114570452D01*
X160100588Y-114570452D02*
X160052969Y-114594262D01*
X160052969Y-114594262D02*
X159862493Y-114594262D01*
X160624398Y-114832357D02*
X160338684Y-114832357D01*
X160481541Y-114832357D02*
X160481541Y-114332357D01*
X160481541Y-114332357D02*
X160433922Y-114403786D01*
X160433922Y-114403786D02*
X160386303Y-114451405D01*
X160386303Y-114451405D02*
X160338684Y-114475214D01*
X161100588Y-114832357D02*
X160814874Y-114832357D01*
X160957731Y-114832357D02*
X160957731Y-114332357D01*
X160957731Y-114332357D02*
X160910112Y-114403786D01*
X160910112Y-114403786D02*
X160862493Y-114451405D01*
X160862493Y-114451405D02*
X160814874Y-114475214D01*
%TO.C,C10*%
X159736095Y-129176226D02*
X159712286Y-129200035D01*
X159712286Y-129200035D02*
X159640857Y-129223845D01*
X159640857Y-129223845D02*
X159593238Y-129223845D01*
X159593238Y-129223845D02*
X159521810Y-129200035D01*
X159521810Y-129200035D02*
X159474191Y-129152416D01*
X159474191Y-129152416D02*
X159450381Y-129104797D01*
X159450381Y-129104797D02*
X159426572Y-129009559D01*
X159426572Y-129009559D02*
X159426572Y-128938131D01*
X159426572Y-128938131D02*
X159450381Y-128842893D01*
X159450381Y-128842893D02*
X159474191Y-128795274D01*
X159474191Y-128795274D02*
X159521810Y-128747655D01*
X159521810Y-128747655D02*
X159593238Y-128723845D01*
X159593238Y-128723845D02*
X159640857Y-128723845D01*
X159640857Y-128723845D02*
X159712286Y-128747655D01*
X159712286Y-128747655D02*
X159736095Y-128771464D01*
X160212286Y-129223845D02*
X159926572Y-129223845D01*
X160069429Y-129223845D02*
X160069429Y-128723845D01*
X160069429Y-128723845D02*
X160021810Y-128795274D01*
X160021810Y-128795274D02*
X159974191Y-128842893D01*
X159974191Y-128842893D02*
X159926572Y-128866702D01*
X160521809Y-128723845D02*
X160569428Y-128723845D01*
X160569428Y-128723845D02*
X160617047Y-128747655D01*
X160617047Y-128747655D02*
X160640857Y-128771464D01*
X160640857Y-128771464D02*
X160664666Y-128819083D01*
X160664666Y-128819083D02*
X160688476Y-128914321D01*
X160688476Y-128914321D02*
X160688476Y-129033369D01*
X160688476Y-129033369D02*
X160664666Y-129128607D01*
X160664666Y-129128607D02*
X160640857Y-129176226D01*
X160640857Y-129176226D02*
X160617047Y-129200035D01*
X160617047Y-129200035D02*
X160569428Y-129223845D01*
X160569428Y-129223845D02*
X160521809Y-129223845D01*
X160521809Y-129223845D02*
X160474190Y-129200035D01*
X160474190Y-129200035D02*
X160450381Y-129176226D01*
X160450381Y-129176226D02*
X160426571Y-129128607D01*
X160426571Y-129128607D02*
X160402762Y-129033369D01*
X160402762Y-129033369D02*
X160402762Y-128914321D01*
X160402762Y-128914321D02*
X160426571Y-128819083D01*
X160426571Y-128819083D02*
X160450381Y-128771464D01*
X160450381Y-128771464D02*
X160474190Y-128747655D01*
X160474190Y-128747655D02*
X160521809Y-128723845D01*
%TO.C,D3*%
X164467399Y-118086641D02*
X163967399Y-118086641D01*
X163967399Y-118086641D02*
X163967399Y-117967593D01*
X163967399Y-117967593D02*
X163991209Y-117896165D01*
X163991209Y-117896165D02*
X164038828Y-117848546D01*
X164038828Y-117848546D02*
X164086447Y-117824736D01*
X164086447Y-117824736D02*
X164181685Y-117800927D01*
X164181685Y-117800927D02*
X164253113Y-117800927D01*
X164253113Y-117800927D02*
X164348351Y-117824736D01*
X164348351Y-117824736D02*
X164395970Y-117848546D01*
X164395970Y-117848546D02*
X164443589Y-117896165D01*
X164443589Y-117896165D02*
X164467399Y-117967593D01*
X164467399Y-117967593D02*
X164467399Y-118086641D01*
X163967399Y-117634260D02*
X163967399Y-117324736D01*
X163967399Y-117324736D02*
X164157875Y-117491403D01*
X164157875Y-117491403D02*
X164157875Y-117419974D01*
X164157875Y-117419974D02*
X164181685Y-117372355D01*
X164181685Y-117372355D02*
X164205494Y-117348546D01*
X164205494Y-117348546D02*
X164253113Y-117324736D01*
X164253113Y-117324736D02*
X164372161Y-117324736D01*
X164372161Y-117324736D02*
X164419780Y-117348546D01*
X164419780Y-117348546D02*
X164443589Y-117372355D01*
X164443589Y-117372355D02*
X164467399Y-117419974D01*
X164467399Y-117419974D02*
X164467399Y-117562831D01*
X164467399Y-117562831D02*
X164443589Y-117610450D01*
X164443589Y-117610450D02*
X164419780Y-117634260D01*
%TO.C,C8*%
X140916852Y-122136164D02*
X140893043Y-122159973D01*
X140893043Y-122159973D02*
X140821614Y-122183783D01*
X140821614Y-122183783D02*
X140773995Y-122183783D01*
X140773995Y-122183783D02*
X140702567Y-122159973D01*
X140702567Y-122159973D02*
X140654948Y-122112354D01*
X140654948Y-122112354D02*
X140631138Y-122064735D01*
X140631138Y-122064735D02*
X140607329Y-121969497D01*
X140607329Y-121969497D02*
X140607329Y-121898069D01*
X140607329Y-121898069D02*
X140631138Y-121802831D01*
X140631138Y-121802831D02*
X140654948Y-121755212D01*
X140654948Y-121755212D02*
X140702567Y-121707593D01*
X140702567Y-121707593D02*
X140773995Y-121683783D01*
X140773995Y-121683783D02*
X140821614Y-121683783D01*
X140821614Y-121683783D02*
X140893043Y-121707593D01*
X140893043Y-121707593D02*
X140916852Y-121731402D01*
X141202567Y-121898069D02*
X141154948Y-121874259D01*
X141154948Y-121874259D02*
X141131138Y-121850450D01*
X141131138Y-121850450D02*
X141107329Y-121802831D01*
X141107329Y-121802831D02*
X141107329Y-121779021D01*
X141107329Y-121779021D02*
X141131138Y-121731402D01*
X141131138Y-121731402D02*
X141154948Y-121707593D01*
X141154948Y-121707593D02*
X141202567Y-121683783D01*
X141202567Y-121683783D02*
X141297805Y-121683783D01*
X141297805Y-121683783D02*
X141345424Y-121707593D01*
X141345424Y-121707593D02*
X141369233Y-121731402D01*
X141369233Y-121731402D02*
X141393043Y-121779021D01*
X141393043Y-121779021D02*
X141393043Y-121802831D01*
X141393043Y-121802831D02*
X141369233Y-121850450D01*
X141369233Y-121850450D02*
X141345424Y-121874259D01*
X141345424Y-121874259D02*
X141297805Y-121898069D01*
X141297805Y-121898069D02*
X141202567Y-121898069D01*
X141202567Y-121898069D02*
X141154948Y-121921878D01*
X141154948Y-121921878D02*
X141131138Y-121945688D01*
X141131138Y-121945688D02*
X141107329Y-121993307D01*
X141107329Y-121993307D02*
X141107329Y-122088545D01*
X141107329Y-122088545D02*
X141131138Y-122136164D01*
X141131138Y-122136164D02*
X141154948Y-122159973D01*
X141154948Y-122159973D02*
X141202567Y-122183783D01*
X141202567Y-122183783D02*
X141297805Y-122183783D01*
X141297805Y-122183783D02*
X141345424Y-122159973D01*
X141345424Y-122159973D02*
X141369233Y-122136164D01*
X141369233Y-122136164D02*
X141393043Y-122088545D01*
X141393043Y-122088545D02*
X141393043Y-121993307D01*
X141393043Y-121993307D02*
X141369233Y-121945688D01*
X141369233Y-121945688D02*
X141345424Y-121921878D01*
X141345424Y-121921878D02*
X141297805Y-121898069D01*
%TO.C,C12*%
X164546071Y-120301428D02*
X164569880Y-120325237D01*
X164569880Y-120325237D02*
X164593690Y-120396666D01*
X164593690Y-120396666D02*
X164593690Y-120444285D01*
X164593690Y-120444285D02*
X164569880Y-120515713D01*
X164569880Y-120515713D02*
X164522261Y-120563332D01*
X164522261Y-120563332D02*
X164474642Y-120587142D01*
X164474642Y-120587142D02*
X164379404Y-120610951D01*
X164379404Y-120610951D02*
X164307976Y-120610951D01*
X164307976Y-120610951D02*
X164212738Y-120587142D01*
X164212738Y-120587142D02*
X164165119Y-120563332D01*
X164165119Y-120563332D02*
X164117500Y-120515713D01*
X164117500Y-120515713D02*
X164093690Y-120444285D01*
X164093690Y-120444285D02*
X164093690Y-120396666D01*
X164093690Y-120396666D02*
X164117500Y-120325237D01*
X164117500Y-120325237D02*
X164141309Y-120301428D01*
X164593690Y-119825237D02*
X164593690Y-120110951D01*
X164593690Y-119968094D02*
X164093690Y-119968094D01*
X164093690Y-119968094D02*
X164165119Y-120015713D01*
X164165119Y-120015713D02*
X164212738Y-120063332D01*
X164212738Y-120063332D02*
X164236547Y-120110951D01*
X164141309Y-119634761D02*
X164117500Y-119610952D01*
X164117500Y-119610952D02*
X164093690Y-119563333D01*
X164093690Y-119563333D02*
X164093690Y-119444285D01*
X164093690Y-119444285D02*
X164117500Y-119396666D01*
X164117500Y-119396666D02*
X164141309Y-119372857D01*
X164141309Y-119372857D02*
X164188928Y-119349047D01*
X164188928Y-119349047D02*
X164236547Y-119349047D01*
X164236547Y-119349047D02*
X164307976Y-119372857D01*
X164307976Y-119372857D02*
X164593690Y-119658571D01*
X164593690Y-119658571D02*
X164593690Y-119349047D01*
D12*
%TO.C,STM32F411*%
X146952381Y-99919761D02*
X147095238Y-99967380D01*
X147095238Y-99967380D02*
X147333333Y-99967380D01*
X147333333Y-99967380D02*
X147428571Y-99919761D01*
X147428571Y-99919761D02*
X147476190Y-99872142D01*
X147476190Y-99872142D02*
X147523809Y-99776904D01*
X147523809Y-99776904D02*
X147523809Y-99681666D01*
X147523809Y-99681666D02*
X147476190Y-99586428D01*
X147476190Y-99586428D02*
X147428571Y-99538809D01*
X147428571Y-99538809D02*
X147333333Y-99491190D01*
X147333333Y-99491190D02*
X147142857Y-99443571D01*
X147142857Y-99443571D02*
X147047619Y-99395952D01*
X147047619Y-99395952D02*
X147000000Y-99348333D01*
X147000000Y-99348333D02*
X146952381Y-99253095D01*
X146952381Y-99253095D02*
X146952381Y-99157857D01*
X146952381Y-99157857D02*
X147000000Y-99062619D01*
X147000000Y-99062619D02*
X147047619Y-99015000D01*
X147047619Y-99015000D02*
X147142857Y-98967380D01*
X147142857Y-98967380D02*
X147380952Y-98967380D01*
X147380952Y-98967380D02*
X147523809Y-99015000D01*
X147809524Y-98967380D02*
X148380952Y-98967380D01*
X148095238Y-99967380D02*
X148095238Y-98967380D01*
X148714286Y-99967380D02*
X148714286Y-98967380D01*
X148714286Y-98967380D02*
X149047619Y-99681666D01*
X149047619Y-99681666D02*
X149380952Y-98967380D01*
X149380952Y-98967380D02*
X149380952Y-99967380D01*
X149761905Y-98967380D02*
X150380952Y-98967380D01*
X150380952Y-98967380D02*
X150047619Y-99348333D01*
X150047619Y-99348333D02*
X150190476Y-99348333D01*
X150190476Y-99348333D02*
X150285714Y-99395952D01*
X150285714Y-99395952D02*
X150333333Y-99443571D01*
X150333333Y-99443571D02*
X150380952Y-99538809D01*
X150380952Y-99538809D02*
X150380952Y-99776904D01*
X150380952Y-99776904D02*
X150333333Y-99872142D01*
X150333333Y-99872142D02*
X150285714Y-99919761D01*
X150285714Y-99919761D02*
X150190476Y-99967380D01*
X150190476Y-99967380D02*
X149904762Y-99967380D01*
X149904762Y-99967380D02*
X149809524Y-99919761D01*
X149809524Y-99919761D02*
X149761905Y-99872142D01*
X150761905Y-99062619D02*
X150809524Y-99015000D01*
X150809524Y-99015000D02*
X150904762Y-98967380D01*
X150904762Y-98967380D02*
X151142857Y-98967380D01*
X151142857Y-98967380D02*
X151238095Y-99015000D01*
X151238095Y-99015000D02*
X151285714Y-99062619D01*
X151285714Y-99062619D02*
X151333333Y-99157857D01*
X151333333Y-99157857D02*
X151333333Y-99253095D01*
X151333333Y-99253095D02*
X151285714Y-99395952D01*
X151285714Y-99395952D02*
X150714286Y-99967380D01*
X150714286Y-99967380D02*
X151333333Y-99967380D01*
X152095238Y-99443571D02*
X151761905Y-99443571D01*
X151761905Y-99967380D02*
X151761905Y-98967380D01*
X151761905Y-98967380D02*
X152238095Y-98967380D01*
X153047619Y-99300714D02*
X153047619Y-99967380D01*
X152809524Y-98919761D02*
X152571429Y-99634047D01*
X152571429Y-99634047D02*
X153190476Y-99634047D01*
X154095238Y-99967380D02*
X153523810Y-99967380D01*
X153809524Y-99967380D02*
X153809524Y-98967380D01*
X153809524Y-98967380D02*
X153714286Y-99110238D01*
X153714286Y-99110238D02*
X153619048Y-99205476D01*
X153619048Y-99205476D02*
X153523810Y-99253095D01*
X155047619Y-99967380D02*
X154476191Y-99967380D01*
X154761905Y-99967380D02*
X154761905Y-98967380D01*
X154761905Y-98967380D02*
X154666667Y-99110238D01*
X154666667Y-99110238D02*
X154571429Y-99205476D01*
X154571429Y-99205476D02*
X154476191Y-99253095D01*
D10*
%TO.C,R8*%
X138868253Y-117533924D02*
X138701587Y-117295829D01*
X138582539Y-117533924D02*
X138582539Y-117033924D01*
X138582539Y-117033924D02*
X138773015Y-117033924D01*
X138773015Y-117033924D02*
X138820634Y-117057734D01*
X138820634Y-117057734D02*
X138844444Y-117081543D01*
X138844444Y-117081543D02*
X138868253Y-117129162D01*
X138868253Y-117129162D02*
X138868253Y-117200591D01*
X138868253Y-117200591D02*
X138844444Y-117248210D01*
X138844444Y-117248210D02*
X138820634Y-117272019D01*
X138820634Y-117272019D02*
X138773015Y-117295829D01*
X138773015Y-117295829D02*
X138582539Y-117295829D01*
X139153968Y-117248210D02*
X139106349Y-117224400D01*
X139106349Y-117224400D02*
X139082539Y-117200591D01*
X139082539Y-117200591D02*
X139058730Y-117152972D01*
X139058730Y-117152972D02*
X139058730Y-117129162D01*
X139058730Y-117129162D02*
X139082539Y-117081543D01*
X139082539Y-117081543D02*
X139106349Y-117057734D01*
X139106349Y-117057734D02*
X139153968Y-117033924D01*
X139153968Y-117033924D02*
X139249206Y-117033924D01*
X139249206Y-117033924D02*
X139296825Y-117057734D01*
X139296825Y-117057734D02*
X139320634Y-117081543D01*
X139320634Y-117081543D02*
X139344444Y-117129162D01*
X139344444Y-117129162D02*
X139344444Y-117152972D01*
X139344444Y-117152972D02*
X139320634Y-117200591D01*
X139320634Y-117200591D02*
X139296825Y-117224400D01*
X139296825Y-117224400D02*
X139249206Y-117248210D01*
X139249206Y-117248210D02*
X139153968Y-117248210D01*
X139153968Y-117248210D02*
X139106349Y-117272019D01*
X139106349Y-117272019D02*
X139082539Y-117295829D01*
X139082539Y-117295829D02*
X139058730Y-117343448D01*
X139058730Y-117343448D02*
X139058730Y-117438686D01*
X139058730Y-117438686D02*
X139082539Y-117486305D01*
X139082539Y-117486305D02*
X139106349Y-117510114D01*
X139106349Y-117510114D02*
X139153968Y-117533924D01*
X139153968Y-117533924D02*
X139249206Y-117533924D01*
X139249206Y-117533924D02*
X139296825Y-117510114D01*
X139296825Y-117510114D02*
X139320634Y-117486305D01*
X139320634Y-117486305D02*
X139344444Y-117438686D01*
X139344444Y-117438686D02*
X139344444Y-117343448D01*
X139344444Y-117343448D02*
X139320634Y-117295829D01*
X139320634Y-117295829D02*
X139296825Y-117272019D01*
X139296825Y-117272019D02*
X139249206Y-117248210D01*
%TO.C,R13*%
X166629071Y-113810698D02*
X166462405Y-113572603D01*
X166343357Y-113810698D02*
X166343357Y-113310698D01*
X166343357Y-113310698D02*
X166533833Y-113310698D01*
X166533833Y-113310698D02*
X166581452Y-113334508D01*
X166581452Y-113334508D02*
X166605262Y-113358317D01*
X166605262Y-113358317D02*
X166629071Y-113405936D01*
X166629071Y-113405936D02*
X166629071Y-113477365D01*
X166629071Y-113477365D02*
X166605262Y-113524984D01*
X166605262Y-113524984D02*
X166581452Y-113548793D01*
X166581452Y-113548793D02*
X166533833Y-113572603D01*
X166533833Y-113572603D02*
X166343357Y-113572603D01*
X167105262Y-113810698D02*
X166819548Y-113810698D01*
X166962405Y-113810698D02*
X166962405Y-113310698D01*
X166962405Y-113310698D02*
X166914786Y-113382127D01*
X166914786Y-113382127D02*
X166867167Y-113429746D01*
X166867167Y-113429746D02*
X166819548Y-113453555D01*
X167271928Y-113310698D02*
X167581452Y-113310698D01*
X167581452Y-113310698D02*
X167414785Y-113501174D01*
X167414785Y-113501174D02*
X167486214Y-113501174D01*
X167486214Y-113501174D02*
X167533833Y-113524984D01*
X167533833Y-113524984D02*
X167557642Y-113548793D01*
X167557642Y-113548793D02*
X167581452Y-113596412D01*
X167581452Y-113596412D02*
X167581452Y-113715460D01*
X167581452Y-113715460D02*
X167557642Y-113763079D01*
X167557642Y-113763079D02*
X167533833Y-113786888D01*
X167533833Y-113786888D02*
X167486214Y-113810698D01*
X167486214Y-113810698D02*
X167343357Y-113810698D01*
X167343357Y-113810698D02*
X167295738Y-113786888D01*
X167295738Y-113786888D02*
X167271928Y-113763079D01*
%TO.C,C14*%
X157656902Y-114825275D02*
X157633093Y-114849084D01*
X157633093Y-114849084D02*
X157561664Y-114872894D01*
X157561664Y-114872894D02*
X157514045Y-114872894D01*
X157514045Y-114872894D02*
X157442617Y-114849084D01*
X157442617Y-114849084D02*
X157394998Y-114801465D01*
X157394998Y-114801465D02*
X157371188Y-114753846D01*
X157371188Y-114753846D02*
X157347379Y-114658608D01*
X157347379Y-114658608D02*
X157347379Y-114587180D01*
X157347379Y-114587180D02*
X157371188Y-114491942D01*
X157371188Y-114491942D02*
X157394998Y-114444323D01*
X157394998Y-114444323D02*
X157442617Y-114396704D01*
X157442617Y-114396704D02*
X157514045Y-114372894D01*
X157514045Y-114372894D02*
X157561664Y-114372894D01*
X157561664Y-114372894D02*
X157633093Y-114396704D01*
X157633093Y-114396704D02*
X157656902Y-114420513D01*
X158133093Y-114872894D02*
X157847379Y-114872894D01*
X157990236Y-114872894D02*
X157990236Y-114372894D01*
X157990236Y-114372894D02*
X157942617Y-114444323D01*
X157942617Y-114444323D02*
X157894998Y-114491942D01*
X157894998Y-114491942D02*
X157847379Y-114515751D01*
X158561664Y-114539561D02*
X158561664Y-114872894D01*
X158442616Y-114349084D02*
X158323569Y-114706227D01*
X158323569Y-114706227D02*
X158633092Y-114706227D01*
%TO.C,J6*%
X142873115Y-90145777D02*
X142873115Y-90502920D01*
X142873115Y-90502920D02*
X142849306Y-90574348D01*
X142849306Y-90574348D02*
X142801687Y-90621967D01*
X142801687Y-90621967D02*
X142730258Y-90645777D01*
X142730258Y-90645777D02*
X142682639Y-90645777D01*
X143325496Y-90145777D02*
X143230258Y-90145777D01*
X143230258Y-90145777D02*
X143182639Y-90169587D01*
X143182639Y-90169587D02*
X143158829Y-90193396D01*
X143158829Y-90193396D02*
X143111210Y-90264825D01*
X143111210Y-90264825D02*
X143087401Y-90360063D01*
X143087401Y-90360063D02*
X143087401Y-90550539D01*
X143087401Y-90550539D02*
X143111210Y-90598158D01*
X143111210Y-90598158D02*
X143135020Y-90621967D01*
X143135020Y-90621967D02*
X143182639Y-90645777D01*
X143182639Y-90645777D02*
X143277877Y-90645777D01*
X143277877Y-90645777D02*
X143325496Y-90621967D01*
X143325496Y-90621967D02*
X143349305Y-90598158D01*
X143349305Y-90598158D02*
X143373115Y-90550539D01*
X143373115Y-90550539D02*
X143373115Y-90431491D01*
X143373115Y-90431491D02*
X143349305Y-90383872D01*
X143349305Y-90383872D02*
X143325496Y-90360063D01*
X143325496Y-90360063D02*
X143277877Y-90336253D01*
X143277877Y-90336253D02*
X143182639Y-90336253D01*
X143182639Y-90336253D02*
X143135020Y-90360063D01*
X143135020Y-90360063D02*
X143111210Y-90383872D01*
X143111210Y-90383872D02*
X143087401Y-90431491D01*
%TO.C,C13*%
X154724414Y-109631850D02*
X154748223Y-109655659D01*
X154748223Y-109655659D02*
X154772033Y-109727088D01*
X154772033Y-109727088D02*
X154772033Y-109774707D01*
X154772033Y-109774707D02*
X154748223Y-109846135D01*
X154748223Y-109846135D02*
X154700604Y-109893754D01*
X154700604Y-109893754D02*
X154652985Y-109917564D01*
X154652985Y-109917564D02*
X154557747Y-109941373D01*
X154557747Y-109941373D02*
X154486319Y-109941373D01*
X154486319Y-109941373D02*
X154391081Y-109917564D01*
X154391081Y-109917564D02*
X154343462Y-109893754D01*
X154343462Y-109893754D02*
X154295843Y-109846135D01*
X154295843Y-109846135D02*
X154272033Y-109774707D01*
X154272033Y-109774707D02*
X154272033Y-109727088D01*
X154272033Y-109727088D02*
X154295843Y-109655659D01*
X154295843Y-109655659D02*
X154319652Y-109631850D01*
X154772033Y-109155659D02*
X154772033Y-109441373D01*
X154772033Y-109298516D02*
X154272033Y-109298516D01*
X154272033Y-109298516D02*
X154343462Y-109346135D01*
X154343462Y-109346135D02*
X154391081Y-109393754D01*
X154391081Y-109393754D02*
X154414890Y-109441373D01*
X154272033Y-108988993D02*
X154272033Y-108679469D01*
X154272033Y-108679469D02*
X154462509Y-108846136D01*
X154462509Y-108846136D02*
X154462509Y-108774707D01*
X154462509Y-108774707D02*
X154486319Y-108727088D01*
X154486319Y-108727088D02*
X154510128Y-108703279D01*
X154510128Y-108703279D02*
X154557747Y-108679469D01*
X154557747Y-108679469D02*
X154676795Y-108679469D01*
X154676795Y-108679469D02*
X154724414Y-108703279D01*
X154724414Y-108703279D02*
X154748223Y-108727088D01*
X154748223Y-108727088D02*
X154772033Y-108774707D01*
X154772033Y-108774707D02*
X154772033Y-108917564D01*
X154772033Y-108917564D02*
X154748223Y-108965183D01*
X154748223Y-108965183D02*
X154724414Y-108988993D01*
%TO.C,J10*%
X169276891Y-106009728D02*
X169634034Y-106009728D01*
X169634034Y-106009728D02*
X169705462Y-106033537D01*
X169705462Y-106033537D02*
X169753081Y-106081156D01*
X169753081Y-106081156D02*
X169776891Y-106152585D01*
X169776891Y-106152585D02*
X169776891Y-106200204D01*
X169776891Y-105509728D02*
X169776891Y-105795442D01*
X169776891Y-105652585D02*
X169276891Y-105652585D01*
X169276891Y-105652585D02*
X169348320Y-105700204D01*
X169348320Y-105700204D02*
X169395939Y-105747823D01*
X169395939Y-105747823D02*
X169419748Y-105795442D01*
X169276891Y-105200205D02*
X169276891Y-105152586D01*
X169276891Y-105152586D02*
X169300701Y-105104967D01*
X169300701Y-105104967D02*
X169324510Y-105081157D01*
X169324510Y-105081157D02*
X169372129Y-105057348D01*
X169372129Y-105057348D02*
X169467367Y-105033538D01*
X169467367Y-105033538D02*
X169586415Y-105033538D01*
X169586415Y-105033538D02*
X169681653Y-105057348D01*
X169681653Y-105057348D02*
X169729272Y-105081157D01*
X169729272Y-105081157D02*
X169753081Y-105104967D01*
X169753081Y-105104967D02*
X169776891Y-105152586D01*
X169776891Y-105152586D02*
X169776891Y-105200205D01*
X169776891Y-105200205D02*
X169753081Y-105247824D01*
X169753081Y-105247824D02*
X169729272Y-105271633D01*
X169729272Y-105271633D02*
X169681653Y-105295443D01*
X169681653Y-105295443D02*
X169586415Y-105319252D01*
X169586415Y-105319252D02*
X169467367Y-105319252D01*
X169467367Y-105319252D02*
X169372129Y-105295443D01*
X169372129Y-105295443D02*
X169324510Y-105271633D01*
X169324510Y-105271633D02*
X169300701Y-105247824D01*
X169300701Y-105247824D02*
X169276891Y-105200205D01*
%TO.C,C6*%
X150916666Y-116136071D02*
X150892857Y-116159880D01*
X150892857Y-116159880D02*
X150821428Y-116183690D01*
X150821428Y-116183690D02*
X150773809Y-116183690D01*
X150773809Y-116183690D02*
X150702381Y-116159880D01*
X150702381Y-116159880D02*
X150654762Y-116112261D01*
X150654762Y-116112261D02*
X150630952Y-116064642D01*
X150630952Y-116064642D02*
X150607143Y-115969404D01*
X150607143Y-115969404D02*
X150607143Y-115897976D01*
X150607143Y-115897976D02*
X150630952Y-115802738D01*
X150630952Y-115802738D02*
X150654762Y-115755119D01*
X150654762Y-115755119D02*
X150702381Y-115707500D01*
X150702381Y-115707500D02*
X150773809Y-115683690D01*
X150773809Y-115683690D02*
X150821428Y-115683690D01*
X150821428Y-115683690D02*
X150892857Y-115707500D01*
X150892857Y-115707500D02*
X150916666Y-115731309D01*
X151345238Y-115683690D02*
X151250000Y-115683690D01*
X151250000Y-115683690D02*
X151202381Y-115707500D01*
X151202381Y-115707500D02*
X151178571Y-115731309D01*
X151178571Y-115731309D02*
X151130952Y-115802738D01*
X151130952Y-115802738D02*
X151107143Y-115897976D01*
X151107143Y-115897976D02*
X151107143Y-116088452D01*
X151107143Y-116088452D02*
X151130952Y-116136071D01*
X151130952Y-116136071D02*
X151154762Y-116159880D01*
X151154762Y-116159880D02*
X151202381Y-116183690D01*
X151202381Y-116183690D02*
X151297619Y-116183690D01*
X151297619Y-116183690D02*
X151345238Y-116159880D01*
X151345238Y-116159880D02*
X151369047Y-116136071D01*
X151369047Y-116136071D02*
X151392857Y-116088452D01*
X151392857Y-116088452D02*
X151392857Y-115969404D01*
X151392857Y-115969404D02*
X151369047Y-115921785D01*
X151369047Y-115921785D02*
X151345238Y-115897976D01*
X151345238Y-115897976D02*
X151297619Y-115874166D01*
X151297619Y-115874166D02*
X151202381Y-115874166D01*
X151202381Y-115874166D02*
X151154762Y-115897976D01*
X151154762Y-115897976D02*
X151130952Y-115921785D01*
X151130952Y-115921785D02*
X151107143Y-115969404D01*
%TO.C,R5*%
X142426666Y-120013690D02*
X142260000Y-119775595D01*
X142140952Y-120013690D02*
X142140952Y-119513690D01*
X142140952Y-119513690D02*
X142331428Y-119513690D01*
X142331428Y-119513690D02*
X142379047Y-119537500D01*
X142379047Y-119537500D02*
X142402857Y-119561309D01*
X142402857Y-119561309D02*
X142426666Y-119608928D01*
X142426666Y-119608928D02*
X142426666Y-119680357D01*
X142426666Y-119680357D02*
X142402857Y-119727976D01*
X142402857Y-119727976D02*
X142379047Y-119751785D01*
X142379047Y-119751785D02*
X142331428Y-119775595D01*
X142331428Y-119775595D02*
X142140952Y-119775595D01*
X142879047Y-119513690D02*
X142640952Y-119513690D01*
X142640952Y-119513690D02*
X142617143Y-119751785D01*
X142617143Y-119751785D02*
X142640952Y-119727976D01*
X142640952Y-119727976D02*
X142688571Y-119704166D01*
X142688571Y-119704166D02*
X142807619Y-119704166D01*
X142807619Y-119704166D02*
X142855238Y-119727976D01*
X142855238Y-119727976D02*
X142879047Y-119751785D01*
X142879047Y-119751785D02*
X142902857Y-119799404D01*
X142902857Y-119799404D02*
X142902857Y-119918452D01*
X142902857Y-119918452D02*
X142879047Y-119966071D01*
X142879047Y-119966071D02*
X142855238Y-119989880D01*
X142855238Y-119989880D02*
X142807619Y-120013690D01*
X142807619Y-120013690D02*
X142688571Y-120013690D01*
X142688571Y-120013690D02*
X142640952Y-119989880D01*
X142640952Y-119989880D02*
X142617143Y-119966071D01*
%TO.C,J8*%
X130248315Y-121166666D02*
X130605458Y-121166666D01*
X130605458Y-121166666D02*
X130676886Y-121190475D01*
X130676886Y-121190475D02*
X130724505Y-121238094D01*
X130724505Y-121238094D02*
X130748315Y-121309523D01*
X130748315Y-121309523D02*
X130748315Y-121357142D01*
X130462601Y-120857142D02*
X130438791Y-120904761D01*
X130438791Y-120904761D02*
X130414982Y-120928571D01*
X130414982Y-120928571D02*
X130367363Y-120952380D01*
X130367363Y-120952380D02*
X130343553Y-120952380D01*
X130343553Y-120952380D02*
X130295934Y-120928571D01*
X130295934Y-120928571D02*
X130272125Y-120904761D01*
X130272125Y-120904761D02*
X130248315Y-120857142D01*
X130248315Y-120857142D02*
X130248315Y-120761904D01*
X130248315Y-120761904D02*
X130272125Y-120714285D01*
X130272125Y-120714285D02*
X130295934Y-120690476D01*
X130295934Y-120690476D02*
X130343553Y-120666666D01*
X130343553Y-120666666D02*
X130367363Y-120666666D01*
X130367363Y-120666666D02*
X130414982Y-120690476D01*
X130414982Y-120690476D02*
X130438791Y-120714285D01*
X130438791Y-120714285D02*
X130462601Y-120761904D01*
X130462601Y-120761904D02*
X130462601Y-120857142D01*
X130462601Y-120857142D02*
X130486410Y-120904761D01*
X130486410Y-120904761D02*
X130510220Y-120928571D01*
X130510220Y-120928571D02*
X130557839Y-120952380D01*
X130557839Y-120952380D02*
X130653077Y-120952380D01*
X130653077Y-120952380D02*
X130700696Y-120928571D01*
X130700696Y-120928571D02*
X130724505Y-120904761D01*
X130724505Y-120904761D02*
X130748315Y-120857142D01*
X130748315Y-120857142D02*
X130748315Y-120761904D01*
X130748315Y-120761904D02*
X130724505Y-120714285D01*
X130724505Y-120714285D02*
X130700696Y-120690476D01*
X130700696Y-120690476D02*
X130653077Y-120666666D01*
X130653077Y-120666666D02*
X130557839Y-120666666D01*
X130557839Y-120666666D02*
X130510220Y-120690476D01*
X130510220Y-120690476D02*
X130486410Y-120714285D01*
X130486410Y-120714285D02*
X130462601Y-120761904D01*
%TO.C,C7*%
X137136071Y-124083333D02*
X137159880Y-124107142D01*
X137159880Y-124107142D02*
X137183690Y-124178571D01*
X137183690Y-124178571D02*
X137183690Y-124226190D01*
X137183690Y-124226190D02*
X137159880Y-124297618D01*
X137159880Y-124297618D02*
X137112261Y-124345237D01*
X137112261Y-124345237D02*
X137064642Y-124369047D01*
X137064642Y-124369047D02*
X136969404Y-124392856D01*
X136969404Y-124392856D02*
X136897976Y-124392856D01*
X136897976Y-124392856D02*
X136802738Y-124369047D01*
X136802738Y-124369047D02*
X136755119Y-124345237D01*
X136755119Y-124345237D02*
X136707500Y-124297618D01*
X136707500Y-124297618D02*
X136683690Y-124226190D01*
X136683690Y-124226190D02*
X136683690Y-124178571D01*
X136683690Y-124178571D02*
X136707500Y-124107142D01*
X136707500Y-124107142D02*
X136731309Y-124083333D01*
X136683690Y-123916666D02*
X136683690Y-123583333D01*
X136683690Y-123583333D02*
X137183690Y-123797618D01*
%TO.C,R10*%
X155781108Y-105183690D02*
X155614442Y-104945595D01*
X155495394Y-105183690D02*
X155495394Y-104683690D01*
X155495394Y-104683690D02*
X155685870Y-104683690D01*
X155685870Y-104683690D02*
X155733489Y-104707500D01*
X155733489Y-104707500D02*
X155757299Y-104731309D01*
X155757299Y-104731309D02*
X155781108Y-104778928D01*
X155781108Y-104778928D02*
X155781108Y-104850357D01*
X155781108Y-104850357D02*
X155757299Y-104897976D01*
X155757299Y-104897976D02*
X155733489Y-104921785D01*
X155733489Y-104921785D02*
X155685870Y-104945595D01*
X155685870Y-104945595D02*
X155495394Y-104945595D01*
X156257299Y-105183690D02*
X155971585Y-105183690D01*
X156114442Y-105183690D02*
X156114442Y-104683690D01*
X156114442Y-104683690D02*
X156066823Y-104755119D01*
X156066823Y-104755119D02*
X156019204Y-104802738D01*
X156019204Y-104802738D02*
X155971585Y-104826547D01*
X156566822Y-104683690D02*
X156614441Y-104683690D01*
X156614441Y-104683690D02*
X156662060Y-104707500D01*
X156662060Y-104707500D02*
X156685870Y-104731309D01*
X156685870Y-104731309D02*
X156709679Y-104778928D01*
X156709679Y-104778928D02*
X156733489Y-104874166D01*
X156733489Y-104874166D02*
X156733489Y-104993214D01*
X156733489Y-104993214D02*
X156709679Y-105088452D01*
X156709679Y-105088452D02*
X156685870Y-105136071D01*
X156685870Y-105136071D02*
X156662060Y-105159880D01*
X156662060Y-105159880D02*
X156614441Y-105183690D01*
X156614441Y-105183690D02*
X156566822Y-105183690D01*
X156566822Y-105183690D02*
X156519203Y-105159880D01*
X156519203Y-105159880D02*
X156495394Y-105136071D01*
X156495394Y-105136071D02*
X156471584Y-105088452D01*
X156471584Y-105088452D02*
X156447775Y-104993214D01*
X156447775Y-104993214D02*
X156447775Y-104874166D01*
X156447775Y-104874166D02*
X156471584Y-104778928D01*
X156471584Y-104778928D02*
X156495394Y-104731309D01*
X156495394Y-104731309D02*
X156519203Y-104707500D01*
X156519203Y-104707500D02*
X156566822Y-104683690D01*
%TO.C,C11*%
X163357584Y-122287807D02*
X163381393Y-122311616D01*
X163381393Y-122311616D02*
X163405203Y-122383045D01*
X163405203Y-122383045D02*
X163405203Y-122430664D01*
X163405203Y-122430664D02*
X163381393Y-122502092D01*
X163381393Y-122502092D02*
X163333774Y-122549711D01*
X163333774Y-122549711D02*
X163286155Y-122573521D01*
X163286155Y-122573521D02*
X163190917Y-122597330D01*
X163190917Y-122597330D02*
X163119489Y-122597330D01*
X163119489Y-122597330D02*
X163024251Y-122573521D01*
X163024251Y-122573521D02*
X162976632Y-122549711D01*
X162976632Y-122549711D02*
X162929013Y-122502092D01*
X162929013Y-122502092D02*
X162905203Y-122430664D01*
X162905203Y-122430664D02*
X162905203Y-122383045D01*
X162905203Y-122383045D02*
X162929013Y-122311616D01*
X162929013Y-122311616D02*
X162952822Y-122287807D01*
X163405203Y-121811616D02*
X163405203Y-122097330D01*
X163405203Y-121954473D02*
X162905203Y-121954473D01*
X162905203Y-121954473D02*
X162976632Y-122002092D01*
X162976632Y-122002092D02*
X163024251Y-122049711D01*
X163024251Y-122049711D02*
X163048060Y-122097330D01*
X163405203Y-121335426D02*
X163405203Y-121621140D01*
X163405203Y-121478283D02*
X162905203Y-121478283D01*
X162905203Y-121478283D02*
X162976632Y-121525902D01*
X162976632Y-121525902D02*
X163024251Y-121573521D01*
X163024251Y-121573521D02*
X163048060Y-121621140D01*
%TO.C,R4*%
X143594943Y-129234958D02*
X143428277Y-128996863D01*
X143309229Y-129234958D02*
X143309229Y-128734958D01*
X143309229Y-128734958D02*
X143499705Y-128734958D01*
X143499705Y-128734958D02*
X143547324Y-128758768D01*
X143547324Y-128758768D02*
X143571134Y-128782577D01*
X143571134Y-128782577D02*
X143594943Y-128830196D01*
X143594943Y-128830196D02*
X143594943Y-128901625D01*
X143594943Y-128901625D02*
X143571134Y-128949244D01*
X143571134Y-128949244D02*
X143547324Y-128973053D01*
X143547324Y-128973053D02*
X143499705Y-128996863D01*
X143499705Y-128996863D02*
X143309229Y-128996863D01*
X144023515Y-128901625D02*
X144023515Y-129234958D01*
X143904467Y-128711148D02*
X143785420Y-129068291D01*
X143785420Y-129068291D02*
X144094943Y-129068291D01*
%TO.C,J4*%
X169344691Y-99760053D02*
X169701834Y-99760053D01*
X169701834Y-99760053D02*
X169773262Y-99783862D01*
X169773262Y-99783862D02*
X169820881Y-99831481D01*
X169820881Y-99831481D02*
X169844691Y-99902910D01*
X169844691Y-99902910D02*
X169844691Y-99950529D01*
X169511358Y-99307672D02*
X169844691Y-99307672D01*
X169320881Y-99426720D02*
X169678024Y-99545767D01*
X169678024Y-99545767D02*
X169678024Y-99236244D01*
D11*
%TO.C,J1*%
X149576667Y-126196573D02*
X149576667Y-127103716D01*
X149576667Y-127103716D02*
X149516190Y-127285145D01*
X149516190Y-127285145D02*
X149395238Y-127406097D01*
X149395238Y-127406097D02*
X149213809Y-127466573D01*
X149213809Y-127466573D02*
X149092857Y-127466573D01*
X150846667Y-127466573D02*
X150120952Y-127466573D01*
X150483809Y-127466573D02*
X150483809Y-126196573D01*
X150483809Y-126196573D02*
X150362857Y-126378002D01*
X150362857Y-126378002D02*
X150241905Y-126498954D01*
X150241905Y-126498954D02*
X150120952Y-126559430D01*
D10*
%TO.C,J9*%
X169346181Y-126223631D02*
X169703324Y-126223631D01*
X169703324Y-126223631D02*
X169774752Y-126247440D01*
X169774752Y-126247440D02*
X169822371Y-126295059D01*
X169822371Y-126295059D02*
X169846181Y-126366488D01*
X169846181Y-126366488D02*
X169846181Y-126414107D01*
X169846181Y-125961726D02*
X169846181Y-125866488D01*
X169846181Y-125866488D02*
X169822371Y-125818869D01*
X169822371Y-125818869D02*
X169798562Y-125795060D01*
X169798562Y-125795060D02*
X169727133Y-125747441D01*
X169727133Y-125747441D02*
X169631895Y-125723631D01*
X169631895Y-125723631D02*
X169441419Y-125723631D01*
X169441419Y-125723631D02*
X169393800Y-125747441D01*
X169393800Y-125747441D02*
X169369991Y-125771250D01*
X169369991Y-125771250D02*
X169346181Y-125818869D01*
X169346181Y-125818869D02*
X169346181Y-125914107D01*
X169346181Y-125914107D02*
X169369991Y-125961726D01*
X169369991Y-125961726D02*
X169393800Y-125985536D01*
X169393800Y-125985536D02*
X169441419Y-126009345D01*
X169441419Y-126009345D02*
X169560467Y-126009345D01*
X169560467Y-126009345D02*
X169608086Y-125985536D01*
X169608086Y-125985536D02*
X169631895Y-125961726D01*
X169631895Y-125961726D02*
X169655705Y-125914107D01*
X169655705Y-125914107D02*
X169655705Y-125818869D01*
X169655705Y-125818869D02*
X169631895Y-125771250D01*
X169631895Y-125771250D02*
X169608086Y-125747441D01*
X169608086Y-125747441D02*
X169560467Y-125723631D01*
D13*
%TO.C,Q2*%
X139955750Y-120666018D02*
X139860512Y-120618399D01*
X139860512Y-120618399D02*
X139765274Y-120523160D01*
X139765274Y-120523160D02*
X139622417Y-120380303D01*
X139622417Y-120380303D02*
X139527179Y-120332684D01*
X139527179Y-120332684D02*
X139431941Y-120332684D01*
X139479560Y-120570779D02*
X139384322Y-120523160D01*
X139384322Y-120523160D02*
X139289084Y-120427922D01*
X139289084Y-120427922D02*
X139241465Y-120237446D01*
X139241465Y-120237446D02*
X139241465Y-119904113D01*
X139241465Y-119904113D02*
X139289084Y-119713637D01*
X139289084Y-119713637D02*
X139384322Y-119618399D01*
X139384322Y-119618399D02*
X139479560Y-119570779D01*
X139479560Y-119570779D02*
X139670036Y-119570779D01*
X139670036Y-119570779D02*
X139765274Y-119618399D01*
X139765274Y-119618399D02*
X139860512Y-119713637D01*
X139860512Y-119713637D02*
X139908131Y-119904113D01*
X139908131Y-119904113D02*
X139908131Y-120237446D01*
X139908131Y-120237446D02*
X139860512Y-120427922D01*
X139860512Y-120427922D02*
X139765274Y-120523160D01*
X139765274Y-120523160D02*
X139670036Y-120570779D01*
X139670036Y-120570779D02*
X139479560Y-120570779D01*
X140289084Y-119666018D02*
X140336703Y-119618399D01*
X140336703Y-119618399D02*
X140431941Y-119570779D01*
X140431941Y-119570779D02*
X140670036Y-119570779D01*
X140670036Y-119570779D02*
X140765274Y-119618399D01*
X140765274Y-119618399D02*
X140812893Y-119666018D01*
X140812893Y-119666018D02*
X140860512Y-119761256D01*
X140860512Y-119761256D02*
X140860512Y-119856494D01*
X140860512Y-119856494D02*
X140812893Y-119999351D01*
X140812893Y-119999351D02*
X140241465Y-120570779D01*
X140241465Y-120570779D02*
X140860512Y-120570779D01*
D10*
%TO.C,LED2*%
X160440476Y-100183690D02*
X160202381Y-100183690D01*
X160202381Y-100183690D02*
X160202381Y-99683690D01*
X160607143Y-99921785D02*
X160773810Y-99921785D01*
X160845238Y-100183690D02*
X160607143Y-100183690D01*
X160607143Y-100183690D02*
X160607143Y-99683690D01*
X160607143Y-99683690D02*
X160845238Y-99683690D01*
X161059524Y-100183690D02*
X161059524Y-99683690D01*
X161059524Y-99683690D02*
X161178572Y-99683690D01*
X161178572Y-99683690D02*
X161250000Y-99707500D01*
X161250000Y-99707500D02*
X161297619Y-99755119D01*
X161297619Y-99755119D02*
X161321429Y-99802738D01*
X161321429Y-99802738D02*
X161345238Y-99897976D01*
X161345238Y-99897976D02*
X161345238Y-99969404D01*
X161345238Y-99969404D02*
X161321429Y-100064642D01*
X161321429Y-100064642D02*
X161297619Y-100112261D01*
X161297619Y-100112261D02*
X161250000Y-100159880D01*
X161250000Y-100159880D02*
X161178572Y-100183690D01*
X161178572Y-100183690D02*
X161059524Y-100183690D01*
X161535715Y-99731309D02*
X161559524Y-99707500D01*
X161559524Y-99707500D02*
X161607143Y-99683690D01*
X161607143Y-99683690D02*
X161726191Y-99683690D01*
X161726191Y-99683690D02*
X161773810Y-99707500D01*
X161773810Y-99707500D02*
X161797619Y-99731309D01*
X161797619Y-99731309D02*
X161821429Y-99778928D01*
X161821429Y-99778928D02*
X161821429Y-99826547D01*
X161821429Y-99826547D02*
X161797619Y-99897976D01*
X161797619Y-99897976D02*
X161511905Y-100183690D01*
X161511905Y-100183690D02*
X161821429Y-100183690D01*
%TO.C,C4*%
X143436666Y-98136071D02*
X143412857Y-98159880D01*
X143412857Y-98159880D02*
X143341428Y-98183690D01*
X143341428Y-98183690D02*
X143293809Y-98183690D01*
X143293809Y-98183690D02*
X143222381Y-98159880D01*
X143222381Y-98159880D02*
X143174762Y-98112261D01*
X143174762Y-98112261D02*
X143150952Y-98064642D01*
X143150952Y-98064642D02*
X143127143Y-97969404D01*
X143127143Y-97969404D02*
X143127143Y-97897976D01*
X143127143Y-97897976D02*
X143150952Y-97802738D01*
X143150952Y-97802738D02*
X143174762Y-97755119D01*
X143174762Y-97755119D02*
X143222381Y-97707500D01*
X143222381Y-97707500D02*
X143293809Y-97683690D01*
X143293809Y-97683690D02*
X143341428Y-97683690D01*
X143341428Y-97683690D02*
X143412857Y-97707500D01*
X143412857Y-97707500D02*
X143436666Y-97731309D01*
X143865238Y-97850357D02*
X143865238Y-98183690D01*
X143746190Y-97659880D02*
X143627143Y-98017023D01*
X143627143Y-98017023D02*
X143936666Y-98017023D01*
%TO.C,J11*%
X130248315Y-112291575D02*
X130605458Y-112291575D01*
X130605458Y-112291575D02*
X130676886Y-112315384D01*
X130676886Y-112315384D02*
X130724505Y-112363003D01*
X130724505Y-112363003D02*
X130748315Y-112434432D01*
X130748315Y-112434432D02*
X130748315Y-112482051D01*
X130748315Y-111791575D02*
X130748315Y-112077289D01*
X130748315Y-111934432D02*
X130248315Y-111934432D01*
X130248315Y-111934432D02*
X130319744Y-111982051D01*
X130319744Y-111982051D02*
X130367363Y-112029670D01*
X130367363Y-112029670D02*
X130391172Y-112077289D01*
X130748315Y-111315385D02*
X130748315Y-111601099D01*
X130748315Y-111458242D02*
X130248315Y-111458242D01*
X130248315Y-111458242D02*
X130319744Y-111505861D01*
X130319744Y-111505861D02*
X130367363Y-111553480D01*
X130367363Y-111553480D02*
X130391172Y-111601099D01*
%TO.C,R3*%
X137255664Y-129268858D02*
X137088998Y-129030763D01*
X136969950Y-129268858D02*
X136969950Y-128768858D01*
X136969950Y-128768858D02*
X137160426Y-128768858D01*
X137160426Y-128768858D02*
X137208045Y-128792668D01*
X137208045Y-128792668D02*
X137231855Y-128816477D01*
X137231855Y-128816477D02*
X137255664Y-128864096D01*
X137255664Y-128864096D02*
X137255664Y-128935525D01*
X137255664Y-128935525D02*
X137231855Y-128983144D01*
X137231855Y-128983144D02*
X137208045Y-129006953D01*
X137208045Y-129006953D02*
X137160426Y-129030763D01*
X137160426Y-129030763D02*
X136969950Y-129030763D01*
X137422331Y-128768858D02*
X137731855Y-128768858D01*
X137731855Y-128768858D02*
X137565188Y-128959334D01*
X137565188Y-128959334D02*
X137636617Y-128959334D01*
X137636617Y-128959334D02*
X137684236Y-128983144D01*
X137684236Y-128983144D02*
X137708045Y-129006953D01*
X137708045Y-129006953D02*
X137731855Y-129054572D01*
X137731855Y-129054572D02*
X137731855Y-129173620D01*
X137731855Y-129173620D02*
X137708045Y-129221239D01*
X137708045Y-129221239D02*
X137684236Y-129245048D01*
X137684236Y-129245048D02*
X137636617Y-129268858D01*
X137636617Y-129268858D02*
X137493760Y-129268858D01*
X137493760Y-129268858D02*
X137446141Y-129245048D01*
X137446141Y-129245048D02*
X137422331Y-129221239D01*
%TO.C,L3*%
X157194399Y-116387089D02*
X156956304Y-116387089D01*
X156956304Y-116387089D02*
X156956304Y-115887089D01*
X157313447Y-115887089D02*
X157622971Y-115887089D01*
X157622971Y-115887089D02*
X157456304Y-116077565D01*
X157456304Y-116077565D02*
X157527733Y-116077565D01*
X157527733Y-116077565D02*
X157575352Y-116101375D01*
X157575352Y-116101375D02*
X157599161Y-116125184D01*
X157599161Y-116125184D02*
X157622971Y-116172803D01*
X157622971Y-116172803D02*
X157622971Y-116291851D01*
X157622971Y-116291851D02*
X157599161Y-116339470D01*
X157599161Y-116339470D02*
X157575352Y-116363279D01*
X157575352Y-116363279D02*
X157527733Y-116387089D01*
X157527733Y-116387089D02*
X157384876Y-116387089D01*
X157384876Y-116387089D02*
X157337257Y-116363279D01*
X157337257Y-116363279D02*
X157313447Y-116339470D01*
%TO.C,R12*%
X157622164Y-102665821D02*
X157455498Y-102427726D01*
X157336450Y-102665821D02*
X157336450Y-102165821D01*
X157336450Y-102165821D02*
X157526926Y-102165821D01*
X157526926Y-102165821D02*
X157574545Y-102189631D01*
X157574545Y-102189631D02*
X157598355Y-102213440D01*
X157598355Y-102213440D02*
X157622164Y-102261059D01*
X157622164Y-102261059D02*
X157622164Y-102332488D01*
X157622164Y-102332488D02*
X157598355Y-102380107D01*
X157598355Y-102380107D02*
X157574545Y-102403916D01*
X157574545Y-102403916D02*
X157526926Y-102427726D01*
X157526926Y-102427726D02*
X157336450Y-102427726D01*
X158098355Y-102665821D02*
X157812641Y-102665821D01*
X157955498Y-102665821D02*
X157955498Y-102165821D01*
X157955498Y-102165821D02*
X157907879Y-102237250D01*
X157907879Y-102237250D02*
X157860260Y-102284869D01*
X157860260Y-102284869D02*
X157812641Y-102308678D01*
X158288831Y-102213440D02*
X158312640Y-102189631D01*
X158312640Y-102189631D02*
X158360259Y-102165821D01*
X158360259Y-102165821D02*
X158479307Y-102165821D01*
X158479307Y-102165821D02*
X158526926Y-102189631D01*
X158526926Y-102189631D02*
X158550735Y-102213440D01*
X158550735Y-102213440D02*
X158574545Y-102261059D01*
X158574545Y-102261059D02*
X158574545Y-102308678D01*
X158574545Y-102308678D02*
X158550735Y-102380107D01*
X158550735Y-102380107D02*
X158265021Y-102665821D01*
X158265021Y-102665821D02*
X158574545Y-102665821D01*
%TO.C,C1*%
X138000005Y-108609107D02*
X138023814Y-108632916D01*
X138023814Y-108632916D02*
X138047624Y-108704345D01*
X138047624Y-108704345D02*
X138047624Y-108751964D01*
X138047624Y-108751964D02*
X138023814Y-108823392D01*
X138023814Y-108823392D02*
X137976195Y-108871011D01*
X137976195Y-108871011D02*
X137928576Y-108894821D01*
X137928576Y-108894821D02*
X137833338Y-108918630D01*
X137833338Y-108918630D02*
X137761910Y-108918630D01*
X137761910Y-108918630D02*
X137666672Y-108894821D01*
X137666672Y-108894821D02*
X137619053Y-108871011D01*
X137619053Y-108871011D02*
X137571434Y-108823392D01*
X137571434Y-108823392D02*
X137547624Y-108751964D01*
X137547624Y-108751964D02*
X137547624Y-108704345D01*
X137547624Y-108704345D02*
X137571434Y-108632916D01*
X137571434Y-108632916D02*
X137595243Y-108609107D01*
X138047624Y-108132916D02*
X138047624Y-108418630D01*
X138047624Y-108275773D02*
X137547624Y-108275773D01*
X137547624Y-108275773D02*
X137619053Y-108323392D01*
X137619053Y-108323392D02*
X137666672Y-108371011D01*
X137666672Y-108371011D02*
X137690481Y-108418630D01*
D12*
%TO.C,U2*%
X156328714Y-123338481D02*
X157138238Y-123338481D01*
X157138238Y-123338481D02*
X157233476Y-123290862D01*
X157233476Y-123290862D02*
X157281095Y-123243243D01*
X157281095Y-123243243D02*
X157328714Y-123148005D01*
X157328714Y-123148005D02*
X157328714Y-122957529D01*
X157328714Y-122957529D02*
X157281095Y-122862291D01*
X157281095Y-122862291D02*
X157233476Y-122814672D01*
X157233476Y-122814672D02*
X157138238Y-122767053D01*
X157138238Y-122767053D02*
X156328714Y-122767053D01*
X156423953Y-122338481D02*
X156376334Y-122290862D01*
X156376334Y-122290862D02*
X156328714Y-122195624D01*
X156328714Y-122195624D02*
X156328714Y-121957529D01*
X156328714Y-121957529D02*
X156376334Y-121862291D01*
X156376334Y-121862291D02*
X156423953Y-121814672D01*
X156423953Y-121814672D02*
X156519191Y-121767053D01*
X156519191Y-121767053D02*
X156614429Y-121767053D01*
X156614429Y-121767053D02*
X156757286Y-121814672D01*
X156757286Y-121814672D02*
X157328714Y-122386100D01*
X157328714Y-122386100D02*
X157328714Y-121767053D01*
D13*
%TO.C,LED3*%
X167250080Y-110994468D02*
X167250080Y-111470658D01*
X167250080Y-111470658D02*
X166250080Y-111470658D01*
X166726271Y-110661134D02*
X166726271Y-110327801D01*
X167250080Y-110184944D02*
X167250080Y-110661134D01*
X167250080Y-110661134D02*
X166250080Y-110661134D01*
X166250080Y-110661134D02*
X166250080Y-110184944D01*
X167250080Y-109756372D02*
X166250080Y-109756372D01*
X166250080Y-109756372D02*
X166250080Y-109518277D01*
X166250080Y-109518277D02*
X166297700Y-109375420D01*
X166297700Y-109375420D02*
X166392938Y-109280182D01*
X166392938Y-109280182D02*
X166488176Y-109232563D01*
X166488176Y-109232563D02*
X166678652Y-109184944D01*
X166678652Y-109184944D02*
X166821509Y-109184944D01*
X166821509Y-109184944D02*
X167011985Y-109232563D01*
X167011985Y-109232563D02*
X167107223Y-109280182D01*
X167107223Y-109280182D02*
X167202461Y-109375420D01*
X167202461Y-109375420D02*
X167250080Y-109518277D01*
X167250080Y-109518277D02*
X167250080Y-109756372D01*
X166250080Y-108851610D02*
X166250080Y-108232563D01*
X166250080Y-108232563D02*
X166631033Y-108565896D01*
X166631033Y-108565896D02*
X166631033Y-108423039D01*
X166631033Y-108423039D02*
X166678652Y-108327801D01*
X166678652Y-108327801D02*
X166726271Y-108280182D01*
X166726271Y-108280182D02*
X166821509Y-108232563D01*
X166821509Y-108232563D02*
X167059604Y-108232563D01*
X167059604Y-108232563D02*
X167154842Y-108280182D01*
X167154842Y-108280182D02*
X167202461Y-108327801D01*
X167202461Y-108327801D02*
X167250080Y-108423039D01*
X167250080Y-108423039D02*
X167250080Y-108708753D01*
X167250080Y-108708753D02*
X167202461Y-108803991D01*
X167202461Y-108803991D02*
X167154842Y-108851610D01*
D10*
%TO.C,L1*%
X138002890Y-105642168D02*
X138002890Y-105880263D01*
X138002890Y-105880263D02*
X137502890Y-105880263D01*
X138002890Y-105213596D02*
X138002890Y-105499310D01*
X138002890Y-105356453D02*
X137502890Y-105356453D01*
X137502890Y-105356453D02*
X137574319Y-105404072D01*
X137574319Y-105404072D02*
X137621938Y-105451691D01*
X137621938Y-105451691D02*
X137645747Y-105499310D01*
D14*
%TO.C,LED1*%
X143925329Y-127195094D02*
X143925329Y-127552237D01*
X143925329Y-127552237D02*
X143175329Y-127552237D01*
X143532472Y-126945094D02*
X143532472Y-126695094D01*
X143925329Y-126587951D02*
X143925329Y-126945094D01*
X143925329Y-126945094D02*
X143175329Y-126945094D01*
X143175329Y-126945094D02*
X143175329Y-126587951D01*
X143925329Y-126266523D02*
X143175329Y-126266523D01*
X143175329Y-126266523D02*
X143175329Y-126087952D01*
X143175329Y-126087952D02*
X143211044Y-125980809D01*
X143211044Y-125980809D02*
X143282472Y-125909380D01*
X143282472Y-125909380D02*
X143353901Y-125873666D01*
X143353901Y-125873666D02*
X143496758Y-125837952D01*
X143496758Y-125837952D02*
X143603901Y-125837952D01*
X143603901Y-125837952D02*
X143746758Y-125873666D01*
X143746758Y-125873666D02*
X143818186Y-125909380D01*
X143818186Y-125909380D02*
X143889615Y-125980809D01*
X143889615Y-125980809D02*
X143925329Y-126087952D01*
X143925329Y-126087952D02*
X143925329Y-126266523D01*
X143925329Y-125123666D02*
X143925329Y-125552237D01*
X143925329Y-125337952D02*
X143175329Y-125337952D01*
X143175329Y-125337952D02*
X143282472Y-125409380D01*
X143282472Y-125409380D02*
X143353901Y-125480809D01*
X143353901Y-125480809D02*
X143389615Y-125552237D01*
D10*
%TO.C,C15*%
X148678571Y-116136071D02*
X148654762Y-116159880D01*
X148654762Y-116159880D02*
X148583333Y-116183690D01*
X148583333Y-116183690D02*
X148535714Y-116183690D01*
X148535714Y-116183690D02*
X148464286Y-116159880D01*
X148464286Y-116159880D02*
X148416667Y-116112261D01*
X148416667Y-116112261D02*
X148392857Y-116064642D01*
X148392857Y-116064642D02*
X148369048Y-115969404D01*
X148369048Y-115969404D02*
X148369048Y-115897976D01*
X148369048Y-115897976D02*
X148392857Y-115802738D01*
X148392857Y-115802738D02*
X148416667Y-115755119D01*
X148416667Y-115755119D02*
X148464286Y-115707500D01*
X148464286Y-115707500D02*
X148535714Y-115683690D01*
X148535714Y-115683690D02*
X148583333Y-115683690D01*
X148583333Y-115683690D02*
X148654762Y-115707500D01*
X148654762Y-115707500D02*
X148678571Y-115731309D01*
X149154762Y-116183690D02*
X148869048Y-116183690D01*
X149011905Y-116183690D02*
X149011905Y-115683690D01*
X149011905Y-115683690D02*
X148964286Y-115755119D01*
X148964286Y-115755119D02*
X148916667Y-115802738D01*
X148916667Y-115802738D02*
X148869048Y-115826547D01*
X149607142Y-115683690D02*
X149369047Y-115683690D01*
X149369047Y-115683690D02*
X149345238Y-115921785D01*
X149345238Y-115921785D02*
X149369047Y-115897976D01*
X149369047Y-115897976D02*
X149416666Y-115874166D01*
X149416666Y-115874166D02*
X149535714Y-115874166D01*
X149535714Y-115874166D02*
X149583333Y-115897976D01*
X149583333Y-115897976D02*
X149607142Y-115921785D01*
X149607142Y-115921785D02*
X149630952Y-115969404D01*
X149630952Y-115969404D02*
X149630952Y-116088452D01*
X149630952Y-116088452D02*
X149607142Y-116136071D01*
X149607142Y-116136071D02*
X149583333Y-116159880D01*
X149583333Y-116159880D02*
X149535714Y-116183690D01*
X149535714Y-116183690D02*
X149416666Y-116183690D01*
X149416666Y-116183690D02*
X149369047Y-116159880D01*
X149369047Y-116159880D02*
X149345238Y-116136071D01*
%TO.C,R7*%
X157212824Y-127089495D02*
X156974729Y-127256161D01*
X157212824Y-127375209D02*
X156712824Y-127375209D01*
X156712824Y-127375209D02*
X156712824Y-127184733D01*
X156712824Y-127184733D02*
X156736634Y-127137114D01*
X156736634Y-127137114D02*
X156760443Y-127113304D01*
X156760443Y-127113304D02*
X156808062Y-127089495D01*
X156808062Y-127089495D02*
X156879491Y-127089495D01*
X156879491Y-127089495D02*
X156927110Y-127113304D01*
X156927110Y-127113304D02*
X156950919Y-127137114D01*
X156950919Y-127137114D02*
X156974729Y-127184733D01*
X156974729Y-127184733D02*
X156974729Y-127375209D01*
X156712824Y-126922828D02*
X156712824Y-126589495D01*
X156712824Y-126589495D02*
X157212824Y-126803780D01*
%TO.C,J3*%
X130328787Y-102146577D02*
X130685930Y-102146577D01*
X130685930Y-102146577D02*
X130757358Y-102170386D01*
X130757358Y-102170386D02*
X130804977Y-102218005D01*
X130804977Y-102218005D02*
X130828787Y-102289434D01*
X130828787Y-102289434D02*
X130828787Y-102337053D01*
X130328787Y-101956101D02*
X130328787Y-101646577D01*
X130328787Y-101646577D02*
X130519263Y-101813244D01*
X130519263Y-101813244D02*
X130519263Y-101741815D01*
X130519263Y-101741815D02*
X130543073Y-101694196D01*
X130543073Y-101694196D02*
X130566882Y-101670387D01*
X130566882Y-101670387D02*
X130614501Y-101646577D01*
X130614501Y-101646577D02*
X130733549Y-101646577D01*
X130733549Y-101646577D02*
X130781168Y-101670387D01*
X130781168Y-101670387D02*
X130804977Y-101694196D01*
X130804977Y-101694196D02*
X130828787Y-101741815D01*
X130828787Y-101741815D02*
X130828787Y-101884672D01*
X130828787Y-101884672D02*
X130804977Y-101932291D01*
X130804977Y-101932291D02*
X130781168Y-101956101D01*
D11*
%TO.C,IC2*%
X154207377Y-114342180D02*
X154207377Y-113072180D01*
X155537854Y-114221228D02*
X155477378Y-114281704D01*
X155477378Y-114281704D02*
X155295949Y-114342180D01*
X155295949Y-114342180D02*
X155174997Y-114342180D01*
X155174997Y-114342180D02*
X154993568Y-114281704D01*
X154993568Y-114281704D02*
X154872616Y-114160752D01*
X154872616Y-114160752D02*
X154812139Y-114039799D01*
X154812139Y-114039799D02*
X154751663Y-113797895D01*
X154751663Y-113797895D02*
X154751663Y-113616466D01*
X154751663Y-113616466D02*
X154812139Y-113374561D01*
X154812139Y-113374561D02*
X154872616Y-113253609D01*
X154872616Y-113253609D02*
X154993568Y-113132657D01*
X154993568Y-113132657D02*
X155174997Y-113072180D01*
X155174997Y-113072180D02*
X155295949Y-113072180D01*
X155295949Y-113072180D02*
X155477378Y-113132657D01*
X155477378Y-113132657D02*
X155537854Y-113193133D01*
X156021663Y-113193133D02*
X156082139Y-113132657D01*
X156082139Y-113132657D02*
X156203092Y-113072180D01*
X156203092Y-113072180D02*
X156505473Y-113072180D01*
X156505473Y-113072180D02*
X156626425Y-113132657D01*
X156626425Y-113132657D02*
X156686901Y-113193133D01*
X156686901Y-113193133D02*
X156747378Y-113314085D01*
X156747378Y-113314085D02*
X156747378Y-113435037D01*
X156747378Y-113435037D02*
X156686901Y-113616466D01*
X156686901Y-113616466D02*
X155961187Y-114342180D01*
X155961187Y-114342180D02*
X156747378Y-114342180D01*
D10*
%TO.C,J7*%
X133285331Y-129333484D02*
X133285331Y-129690627D01*
X133285331Y-129690627D02*
X133261522Y-129762055D01*
X133261522Y-129762055D02*
X133213903Y-129809674D01*
X133213903Y-129809674D02*
X133142474Y-129833484D01*
X133142474Y-129833484D02*
X133094855Y-129833484D01*
X133475807Y-129333484D02*
X133809140Y-129333484D01*
X133809140Y-129333484D02*
X133594855Y-129833484D01*
%TO.C,R6*%
X159951590Y-127054252D02*
X159784924Y-126816157D01*
X159665876Y-127054252D02*
X159665876Y-126554252D01*
X159665876Y-126554252D02*
X159856352Y-126554252D01*
X159856352Y-126554252D02*
X159903971Y-126578062D01*
X159903971Y-126578062D02*
X159927781Y-126601871D01*
X159927781Y-126601871D02*
X159951590Y-126649490D01*
X159951590Y-126649490D02*
X159951590Y-126720919D01*
X159951590Y-126720919D02*
X159927781Y-126768538D01*
X159927781Y-126768538D02*
X159903971Y-126792347D01*
X159903971Y-126792347D02*
X159856352Y-126816157D01*
X159856352Y-126816157D02*
X159665876Y-126816157D01*
X160380162Y-126554252D02*
X160284924Y-126554252D01*
X160284924Y-126554252D02*
X160237305Y-126578062D01*
X160237305Y-126578062D02*
X160213495Y-126601871D01*
X160213495Y-126601871D02*
X160165876Y-126673300D01*
X160165876Y-126673300D02*
X160142067Y-126768538D01*
X160142067Y-126768538D02*
X160142067Y-126959014D01*
X160142067Y-126959014D02*
X160165876Y-127006633D01*
X160165876Y-127006633D02*
X160189686Y-127030442D01*
X160189686Y-127030442D02*
X160237305Y-127054252D01*
X160237305Y-127054252D02*
X160332543Y-127054252D01*
X160332543Y-127054252D02*
X160380162Y-127030442D01*
X160380162Y-127030442D02*
X160403971Y-127006633D01*
X160403971Y-127006633D02*
X160427781Y-126959014D01*
X160427781Y-126959014D02*
X160427781Y-126839966D01*
X160427781Y-126839966D02*
X160403971Y-126792347D01*
X160403971Y-126792347D02*
X160380162Y-126768538D01*
X160380162Y-126768538D02*
X160332543Y-126744728D01*
X160332543Y-126744728D02*
X160237305Y-126744728D01*
X160237305Y-126744728D02*
X160189686Y-126768538D01*
X160189686Y-126768538D02*
X160165876Y-126792347D01*
X160165876Y-126792347D02*
X160142067Y-126839966D01*
D15*
%TO.C,C5*%
X143892164Y-114640000D02*
X144107836Y-114640000D01*
X143892164Y-115360000D02*
X144107836Y-115360000D01*
D16*
%TO.C,Q1*%
X150500000Y-96625000D02*
X150500000Y-95575000D01*
X150550000Y-95225000D02*
X150550000Y-94775000D01*
X153450000Y-95225000D02*
X150550000Y-95225000D01*
X150550000Y-94775000D02*
X153450000Y-94775000D01*
X153450000Y-94775000D02*
X153450000Y-95225000D01*
D15*
%TO.C,R1*%
X149819516Y-119773463D02*
X150126798Y-119773463D01*
X149819516Y-120533463D02*
X150126798Y-120533463D01*
%TO.C,J5*%
X161360000Y-96110000D02*
X161360000Y-94860000D01*
X161060000Y-95810000D02*
X161060000Y-91090000D01*
X161060000Y-94500000D02*
X160450000Y-94500000D01*
X161060000Y-93200000D02*
X160450000Y-93200000D01*
X161060000Y-91090000D02*
X154940000Y-91090000D01*
X160450000Y-95200000D02*
X160450000Y-91700000D01*
X160450000Y-91700000D02*
X155550000Y-91700000D01*
X160110000Y-96110000D02*
X161360000Y-96110000D01*
X159600000Y-96010000D02*
X159600000Y-95810000D01*
X159300000Y-96010000D02*
X159600000Y-96010000D01*
X159300000Y-95910000D02*
X159600000Y-95910000D01*
X159300000Y-95810000D02*
X159300000Y-96010000D01*
X158500000Y-95810000D02*
X158500000Y-95200000D01*
X158500000Y-95200000D02*
X160450000Y-95200000D01*
X158100000Y-92200000D02*
X157900000Y-92200000D01*
X158100000Y-91700000D02*
X158100000Y-92200000D01*
X158000000Y-91700000D02*
X158000000Y-92200000D01*
X157900000Y-92200000D02*
X157900000Y-91700000D01*
X157500000Y-95200000D02*
X157500000Y-95810000D01*
X155550000Y-95200000D02*
X157500000Y-95200000D01*
X155550000Y-91700000D02*
X155550000Y-95200000D01*
X154940000Y-95810000D02*
X161060000Y-95810000D01*
X154940000Y-94500000D02*
X155550000Y-94500000D01*
X154940000Y-93200000D02*
X155550000Y-93200000D01*
X154940000Y-91090000D02*
X154940000Y-95810000D01*
%TO.C,R9*%
X162090505Y-110137949D02*
X162090505Y-109830667D01*
X162850505Y-110137949D02*
X162850505Y-109830667D01*
%TO.C,C2*%
X139235765Y-102797962D02*
X139235765Y-102582290D01*
X139955765Y-102797962D02*
X139955765Y-102582290D01*
%TO.C,C3*%
X154148097Y-103313224D02*
X154148097Y-103097552D01*
X154868097Y-103313224D02*
X154868097Y-103097552D01*
D13*
%TO.C,IC1*%
X140525000Y-124125000D02*
G75*
G03*
X140525000Y-124125000I-125000J0D01*
G01*
D15*
%TO.C,C9*%
X142587836Y-123360000D02*
X142372164Y-123360000D01*
X142587836Y-122640000D02*
X142372164Y-122640000D01*
%TO.C,R2*%
X152846359Y-119766374D02*
X153153641Y-119766374D01*
X152846359Y-120526374D02*
X153153641Y-120526374D01*
%TO.C,R11*%
X160623277Y-113858667D02*
X160315995Y-113858667D01*
X160623277Y-113098667D02*
X160315995Y-113098667D01*
%TO.C,C10*%
X160117836Y-128360000D02*
X159902164Y-128360000D01*
X160117836Y-127640000D02*
X159902164Y-127640000D01*
D16*
%TO.C,D3*%
X165190000Y-115300000D02*
X165190000Y-120700000D01*
X168810000Y-120700000D02*
X168810000Y-115300000D01*
D15*
%TO.C,C8*%
X142587836Y-122360000D02*
X142372164Y-122360000D01*
X142587836Y-121640000D02*
X142372164Y-121640000D01*
%TO.C,C12*%
X163610000Y-119872164D02*
X163610000Y-120087836D01*
X162890000Y-119872164D02*
X162890000Y-120087836D01*
%TO.C,STM32F411*%
X141890000Y-101890000D02*
X141890000Y-102840000D01*
X141890000Y-102840000D02*
X140550000Y-102840000D01*
X141890000Y-112110000D02*
X141890000Y-111160000D01*
X142840000Y-101890000D02*
X141890000Y-101890000D01*
X142840000Y-112110000D02*
X141890000Y-112110000D01*
X151160000Y-101890000D02*
X152110000Y-101890000D01*
X151160000Y-112110000D02*
X152110000Y-112110000D01*
X152110000Y-101890000D02*
X152110000Y-102840000D01*
X152110000Y-112110000D02*
X152110000Y-111160000D01*
%TO.C,R8*%
X139087634Y-118818713D02*
X138780352Y-118818713D01*
X139087634Y-118058713D02*
X138780352Y-118058713D01*
%TO.C,R13*%
X167153641Y-113012571D02*
X166846359Y-113012571D01*
X167153641Y-112252571D02*
X166846359Y-112252571D01*
%TO.C,C14*%
X158426117Y-113846453D02*
X158210445Y-113846453D01*
X158426117Y-113126453D02*
X158210445Y-113126453D01*
%TO.C,J6*%
X148360000Y-96110000D02*
X148360000Y-94860000D01*
X148060000Y-95810000D02*
X148060000Y-91090000D01*
X148060000Y-94500000D02*
X147450000Y-94500000D01*
X148060000Y-93200000D02*
X147450000Y-93200000D01*
X148060000Y-91090000D02*
X137940000Y-91090000D01*
X147450000Y-95200000D02*
X147450000Y-91700000D01*
X147450000Y-91700000D02*
X138550000Y-91700000D01*
X147110000Y-96110000D02*
X148360000Y-96110000D01*
X146600000Y-96010000D02*
X146600000Y-95810000D01*
X146300000Y-96010000D02*
X146600000Y-96010000D01*
X146300000Y-95910000D02*
X146600000Y-95910000D01*
X146300000Y-95810000D02*
X146300000Y-96010000D01*
X145500000Y-95810000D02*
X145500000Y-95200000D01*
X145500000Y-95200000D02*
X147450000Y-95200000D01*
X145100000Y-92200000D02*
X144900000Y-92200000D01*
X145100000Y-91700000D02*
X145100000Y-92200000D01*
X145000000Y-91700000D02*
X145000000Y-92200000D01*
X144900000Y-92200000D02*
X144900000Y-91700000D01*
X143100000Y-92200000D02*
X142900000Y-92200000D01*
X143100000Y-91700000D02*
X143100000Y-92200000D01*
X143000000Y-91700000D02*
X143000000Y-92200000D01*
X142900000Y-92200000D02*
X142900000Y-91700000D01*
X141100000Y-92200000D02*
X140900000Y-92200000D01*
X141100000Y-91700000D02*
X141100000Y-92200000D01*
X141000000Y-91700000D02*
X141000000Y-92200000D01*
X140900000Y-92200000D02*
X140900000Y-91700000D01*
X140500000Y-95200000D02*
X140500000Y-95810000D01*
X138550000Y-95200000D02*
X140500000Y-95200000D01*
X138550000Y-91700000D02*
X138550000Y-95200000D01*
X137940000Y-95810000D02*
X148060000Y-95810000D01*
X137940000Y-94500000D02*
X138550000Y-94500000D01*
X137940000Y-93200000D02*
X138550000Y-93200000D01*
X137940000Y-91090000D02*
X137940000Y-95810000D01*
%TO.C,C13*%
X155110107Y-109402523D02*
X155110107Y-109186851D01*
X155830107Y-109402523D02*
X155830107Y-109186851D01*
%TO.C,J10*%
X162640000Y-100890000D02*
X162640000Y-102140000D01*
X162940000Y-101190000D02*
X162940000Y-105910000D01*
X162940000Y-102500000D02*
X163550000Y-102500000D01*
X162940000Y-103800000D02*
X163550000Y-103800000D01*
X162940000Y-105910000D02*
X169060000Y-105910000D01*
X163550000Y-101800000D02*
X163550000Y-105300000D01*
X163550000Y-105300000D02*
X168450000Y-105300000D01*
X163890000Y-100890000D02*
X162640000Y-100890000D01*
X164400000Y-100990000D02*
X164400000Y-101190000D01*
X164700000Y-100990000D02*
X164400000Y-100990000D01*
X164700000Y-101090000D02*
X164400000Y-101090000D01*
X164700000Y-101190000D02*
X164700000Y-100990000D01*
X165500000Y-101190000D02*
X165500000Y-101800000D01*
X165500000Y-101800000D02*
X163550000Y-101800000D01*
X165900000Y-104800000D02*
X166100000Y-104800000D01*
X165900000Y-105300000D02*
X165900000Y-104800000D01*
X166000000Y-105300000D02*
X166000000Y-104800000D01*
X166100000Y-104800000D02*
X166100000Y-105300000D01*
X166500000Y-101800000D02*
X166500000Y-101190000D01*
X168450000Y-101800000D02*
X166500000Y-101800000D01*
X168450000Y-105300000D02*
X168450000Y-101800000D01*
X169060000Y-101190000D02*
X162940000Y-101190000D01*
X169060000Y-102500000D02*
X168450000Y-102500000D01*
X169060000Y-103800000D02*
X168450000Y-103800000D01*
X169060000Y-105910000D02*
X169060000Y-101190000D01*
%TO.C,C6*%
X150892164Y-114640000D02*
X151107836Y-114640000D01*
X150892164Y-115360000D02*
X151107836Y-115360000D01*
%TO.C,R5*%
X142356359Y-120620000D02*
X142663641Y-120620000D01*
X142356359Y-121380000D02*
X142663641Y-121380000D01*
%TO.C,J8*%
X136110000Y-115640000D02*
X134860000Y-115640000D01*
X135810000Y-115940000D02*
X131090000Y-115940000D01*
X134500000Y-115940000D02*
X134500000Y-116550000D01*
X133200000Y-115940000D02*
X133200000Y-116550000D01*
X131090000Y-115940000D02*
X131090000Y-122060000D01*
X135200000Y-116550000D02*
X131700000Y-116550000D01*
X131700000Y-116550000D02*
X131700000Y-121450000D01*
X136110000Y-116890000D02*
X136110000Y-115640000D01*
X136010000Y-117400000D02*
X135810000Y-117400000D01*
X136010000Y-117700000D02*
X136010000Y-117400000D01*
X135910000Y-117700000D02*
X135910000Y-117400000D01*
X135810000Y-117700000D02*
X136010000Y-117700000D01*
X135810000Y-118500000D02*
X135200000Y-118500000D01*
X135200000Y-118500000D02*
X135200000Y-116550000D01*
X132200000Y-118900000D02*
X132200000Y-119100000D01*
X131700000Y-118900000D02*
X132200000Y-118900000D01*
X131700000Y-119000000D02*
X132200000Y-119000000D01*
X132200000Y-119100000D02*
X131700000Y-119100000D01*
X135200000Y-119500000D02*
X135810000Y-119500000D01*
X135200000Y-121450000D02*
X135200000Y-119500000D01*
X131700000Y-121450000D02*
X135200000Y-121450000D01*
X135810000Y-122060000D02*
X135810000Y-115940000D01*
X134500000Y-122060000D02*
X134500000Y-121450000D01*
X133200000Y-122060000D02*
X133200000Y-121450000D01*
X131090000Y-122060000D02*
X135810000Y-122060000D01*
%TO.C,C7*%
X136640000Y-125587836D02*
X136640000Y-125372164D01*
X137360000Y-125587836D02*
X137360000Y-125372164D01*
%TO.C,R10*%
X158153641Y-105380000D02*
X157846359Y-105380000D01*
X158153641Y-104620000D02*
X157846359Y-104620000D01*
%TO.C,C11*%
X162653743Y-121702492D02*
X162653743Y-121918164D01*
X161933743Y-121702492D02*
X161933743Y-121918164D01*
%TO.C,R4*%
X142153641Y-129380000D02*
X141846359Y-129380000D01*
X142153641Y-128620000D02*
X141846359Y-128620000D01*
%TO.C,J4*%
X162640000Y-94890000D02*
X162640000Y-96140000D01*
X162940000Y-95190000D02*
X162940000Y-99910000D01*
X162940000Y-96500000D02*
X163550000Y-96500000D01*
X162940000Y-97800000D02*
X163550000Y-97800000D01*
X162940000Y-99910000D02*
X169060000Y-99910000D01*
X163550000Y-95800000D02*
X163550000Y-99300000D01*
X163550000Y-99300000D02*
X168450000Y-99300000D01*
X163890000Y-94890000D02*
X162640000Y-94890000D01*
X164400000Y-94990000D02*
X164400000Y-95190000D01*
X164700000Y-94990000D02*
X164400000Y-94990000D01*
X164700000Y-95090000D02*
X164400000Y-95090000D01*
X164700000Y-95190000D02*
X164700000Y-94990000D01*
X165500000Y-95190000D02*
X165500000Y-95800000D01*
X165500000Y-95800000D02*
X163550000Y-95800000D01*
X165900000Y-98800000D02*
X166100000Y-98800000D01*
X165900000Y-99300000D02*
X165900000Y-98800000D01*
X166000000Y-99300000D02*
X166000000Y-98800000D01*
X166100000Y-98800000D02*
X166100000Y-99300000D01*
X166500000Y-95800000D02*
X166500000Y-95190000D01*
X168450000Y-95800000D02*
X166500000Y-95800000D01*
X168450000Y-99300000D02*
X168450000Y-95800000D01*
X169060000Y-95190000D02*
X162940000Y-95190000D01*
X169060000Y-96500000D02*
X168450000Y-96500000D01*
X169060000Y-97800000D02*
X168450000Y-97800000D01*
X169060000Y-99910000D02*
X169060000Y-95190000D01*
D16*
%TO.C,J1*%
X145530000Y-128200000D02*
X145530000Y-129400000D01*
X145530000Y-129400000D02*
X154470000Y-129400000D01*
D17*
X149500000Y-121700000D02*
X149500000Y-121700000D01*
X149500000Y-121800000D02*
X149500000Y-121800000D01*
D16*
X154470000Y-129400000D02*
X154470000Y-128200000D01*
D17*
X149500000Y-121800000D02*
G75*
G03*
X149500000Y-121700000I0J50000D01*
G01*
X149500000Y-121700000D02*
G75*
G03*
X149500000Y-121800000I0J-50000D01*
G01*
D15*
%TO.C,J9*%
X169110000Y-122640000D02*
X167860000Y-122640000D01*
X168810000Y-122940000D02*
X164090000Y-122940000D01*
X167500000Y-122940000D02*
X167500000Y-123550000D01*
X166200000Y-122940000D02*
X166200000Y-123550000D01*
X164090000Y-122940000D02*
X164090000Y-129060000D01*
X168200000Y-123550000D02*
X164700000Y-123550000D01*
X164700000Y-123550000D02*
X164700000Y-128450000D01*
X169110000Y-123890000D02*
X169110000Y-122640000D01*
X169010000Y-124400000D02*
X168810000Y-124400000D01*
X169010000Y-124700000D02*
X169010000Y-124400000D01*
X168910000Y-124700000D02*
X168910000Y-124400000D01*
X168810000Y-124700000D02*
X169010000Y-124700000D01*
X168810000Y-125500000D02*
X168200000Y-125500000D01*
X168200000Y-125500000D02*
X168200000Y-123550000D01*
X165200000Y-125900000D02*
X165200000Y-126100000D01*
X164700000Y-125900000D02*
X165200000Y-125900000D01*
X164700000Y-126000000D02*
X165200000Y-126000000D01*
X165200000Y-126100000D02*
X164700000Y-126100000D01*
X168200000Y-126500000D02*
X168810000Y-126500000D01*
X168200000Y-128450000D02*
X168200000Y-126500000D01*
X164700000Y-128450000D02*
X168200000Y-128450000D01*
X168810000Y-129060000D02*
X168810000Y-122940000D01*
X167500000Y-129060000D02*
X167500000Y-128450000D01*
X166200000Y-129060000D02*
X166200000Y-128450000D01*
X164090000Y-129060000D02*
X168810000Y-129060000D01*
D16*
%TO.C,Q2*%
X136762046Y-119965440D02*
X137812046Y-119965440D01*
X138162046Y-120015440D02*
X138612046Y-120015440D01*
X138162046Y-122915440D02*
X138162046Y-120015440D01*
X138612046Y-120015440D02*
X138612046Y-122915440D01*
X138612046Y-122915440D02*
X138162046Y-122915440D01*
%TO.C,LED2*%
X160175000Y-103800000D02*
X161825000Y-103800000D01*
X161825000Y-103800000D02*
X161825000Y-101500000D01*
X160175000Y-101500000D02*
X160175000Y-103800000D01*
D15*
%TO.C,C4*%
X143627836Y-99360000D02*
X143412164Y-99360000D01*
X143627836Y-98640000D02*
X143412164Y-98640000D01*
%TO.C,J11*%
X136110000Y-108640000D02*
X134860000Y-108640000D01*
X135810000Y-108940000D02*
X131090000Y-108940000D01*
X134500000Y-108940000D02*
X134500000Y-109550000D01*
X133200000Y-108940000D02*
X133200000Y-109550000D01*
X131090000Y-108940000D02*
X131090000Y-115060000D01*
X135200000Y-109550000D02*
X131700000Y-109550000D01*
X131700000Y-109550000D02*
X131700000Y-114450000D01*
X136110000Y-109890000D02*
X136110000Y-108640000D01*
X136010000Y-110400000D02*
X135810000Y-110400000D01*
X136010000Y-110700000D02*
X136010000Y-110400000D01*
X135910000Y-110700000D02*
X135910000Y-110400000D01*
X135810000Y-110700000D02*
X136010000Y-110700000D01*
X135810000Y-111500000D02*
X135200000Y-111500000D01*
X135200000Y-111500000D02*
X135200000Y-109550000D01*
X132200000Y-111900000D02*
X132200000Y-112100000D01*
X131700000Y-111900000D02*
X132200000Y-111900000D01*
X131700000Y-112000000D02*
X132200000Y-112000000D01*
X132200000Y-112100000D02*
X131700000Y-112100000D01*
X135200000Y-112500000D02*
X135810000Y-112500000D01*
X135200000Y-114450000D02*
X135200000Y-112500000D01*
X131700000Y-114450000D02*
X135200000Y-114450000D01*
X135810000Y-115060000D02*
X135810000Y-108940000D01*
X134500000Y-115060000D02*
X134500000Y-114450000D01*
X133200000Y-115060000D02*
X133200000Y-114450000D01*
X131090000Y-115060000D02*
X135810000Y-115060000D01*
%TO.C,R3*%
X139171253Y-129362987D02*
X138863971Y-129362987D01*
X139171253Y-128602987D02*
X138863971Y-128602987D01*
D17*
%TO.C,L3*%
X157329985Y-116895035D02*
X157329985Y-119895035D01*
D15*
%TO.C,R12*%
X158153641Y-103794193D02*
X157846359Y-103794193D01*
X158153641Y-103034193D02*
X157846359Y-103034193D01*
%TO.C,C1*%
X138640000Y-108627836D02*
X138640000Y-108412164D01*
X139360000Y-108627836D02*
X139360000Y-108412164D01*
%TO.C,U2*%
X161260000Y-120925000D02*
X161260000Y-121900000D01*
X158010000Y-120925000D02*
X158235000Y-120925000D01*
X158010000Y-120925000D02*
X158010000Y-121900000D01*
X161260000Y-123200000D02*
X161260000Y-124175000D01*
X158010000Y-123200000D02*
X158010000Y-124175000D01*
X161035000Y-124175000D02*
X161260000Y-124175000D01*
X158235000Y-124175000D02*
X158010000Y-124175000D01*
D16*
%TO.C,LED3*%
X169351962Y-108370503D02*
X167701962Y-108370503D01*
X167701962Y-108370503D02*
X167701962Y-110670503D01*
X169351962Y-110670503D02*
X169351962Y-108370503D01*
D15*
%TO.C,L1*%
X139491486Y-105107382D02*
X139491486Y-105906626D01*
X138371486Y-105107382D02*
X138371486Y-105906626D01*
D16*
%TO.C,LED1*%
X141175000Y-127550000D02*
X142825000Y-127550000D01*
X142825000Y-127550000D02*
X142825000Y-125250000D01*
X141175000Y-125250000D02*
X141175000Y-127550000D01*
D15*
%TO.C,C15*%
X148892164Y-114640000D02*
X149107836Y-114640000D01*
X148892164Y-115360000D02*
X149107836Y-115360000D01*
%TO.C,R7*%
X158380000Y-126846359D02*
X158380000Y-127153641D01*
X157620000Y-126846359D02*
X157620000Y-127153641D01*
%TO.C,J3*%
X136110000Y-95640000D02*
X134860000Y-95640000D01*
X135810000Y-95940000D02*
X131090000Y-95940000D01*
X134500000Y-95940000D02*
X134500000Y-96550000D01*
X133200000Y-95940000D02*
X133200000Y-96550000D01*
X131090000Y-95940000D02*
X131090000Y-108060000D01*
X135200000Y-96550000D02*
X131700000Y-96550000D01*
X131700000Y-96550000D02*
X131700000Y-107450000D01*
X136110000Y-96890000D02*
X136110000Y-95640000D01*
X136010000Y-97400000D02*
X135810000Y-97400000D01*
X136010000Y-97700000D02*
X136010000Y-97400000D01*
X135910000Y-97700000D02*
X135910000Y-97400000D01*
X135810000Y-97700000D02*
X136010000Y-97700000D01*
X135810000Y-98500000D02*
X135200000Y-98500000D01*
X135200000Y-98500000D02*
X135200000Y-96550000D01*
X132200000Y-98900000D02*
X132200000Y-99100000D01*
X131700000Y-98900000D02*
X132200000Y-98900000D01*
X131700000Y-99000000D02*
X132200000Y-99000000D01*
X132200000Y-99100000D02*
X131700000Y-99100000D01*
X132200000Y-100900000D02*
X132200000Y-101100000D01*
X131700000Y-100900000D02*
X132200000Y-100900000D01*
X131700000Y-101000000D02*
X132200000Y-101000000D01*
X132200000Y-101100000D02*
X131700000Y-101100000D01*
X132200000Y-102900000D02*
X132200000Y-103100000D01*
X131700000Y-102900000D02*
X132200000Y-102900000D01*
X131700000Y-103000000D02*
X132200000Y-103000000D01*
X132200000Y-103100000D02*
X131700000Y-103100000D01*
X132200000Y-104900000D02*
X132200000Y-105100000D01*
X131700000Y-104900000D02*
X132200000Y-104900000D01*
X131700000Y-105000000D02*
X132200000Y-105000000D01*
X132200000Y-105100000D02*
X131700000Y-105100000D01*
X135200000Y-105500000D02*
X135810000Y-105500000D01*
X135200000Y-107450000D02*
X135200000Y-105500000D01*
X131700000Y-107450000D02*
X135200000Y-107450000D01*
X135810000Y-108060000D02*
X135810000Y-95940000D01*
X134500000Y-108060000D02*
X134500000Y-107450000D01*
X133200000Y-108060000D02*
X133200000Y-107450000D01*
X131090000Y-108060000D02*
X135810000Y-108060000D01*
D16*
%TO.C,IC2*%
X161400000Y-110550000D02*
X161400000Y-110550000D01*
X161400000Y-110550000D02*
X161400000Y-110550000D01*
X161300000Y-110550000D02*
X161300000Y-110550000D01*
X161300000Y-110550000D02*
G75*
G03*
X161400000Y-110550000I50000J0D01*
G01*
X161400000Y-110550000D02*
G75*
G03*
X161300000Y-110550000I-50000J0D01*
G01*
X161400000Y-110550000D02*
G75*
G03*
X161300000Y-110550000I-50000J0D01*
G01*
D15*
%TO.C,J7*%
X136110000Y-122640000D02*
X134860000Y-122640000D01*
X135810000Y-122940000D02*
X131090000Y-122940000D01*
X134500000Y-122940000D02*
X134500000Y-123550000D01*
X133200000Y-122940000D02*
X133200000Y-123550000D01*
X131090000Y-122940000D02*
X131090000Y-129060000D01*
X135200000Y-123550000D02*
X131700000Y-123550000D01*
X131700000Y-123550000D02*
X131700000Y-128450000D01*
X136110000Y-123890000D02*
X136110000Y-122640000D01*
X136010000Y-124400000D02*
X135810000Y-124400000D01*
X136010000Y-124700000D02*
X136010000Y-124400000D01*
X135910000Y-124700000D02*
X135910000Y-124400000D01*
X135810000Y-124700000D02*
X136010000Y-124700000D01*
X135810000Y-125500000D02*
X135200000Y-125500000D01*
X135200000Y-125500000D02*
X135200000Y-123550000D01*
X132200000Y-125900000D02*
X132200000Y-126100000D01*
X131700000Y-125900000D02*
X132200000Y-125900000D01*
X131700000Y-126000000D02*
X132200000Y-126000000D01*
X132200000Y-126100000D02*
X131700000Y-126100000D01*
X135200000Y-126500000D02*
X135810000Y-126500000D01*
X135200000Y-128450000D02*
X135200000Y-126500000D01*
X131700000Y-128450000D02*
X135200000Y-128450000D01*
X135810000Y-129060000D02*
X135810000Y-122940000D01*
X134500000Y-129060000D02*
X134500000Y-128450000D01*
X133200000Y-129060000D02*
X133200000Y-128450000D01*
X131090000Y-129060000D02*
X135810000Y-129060000D01*
%TO.C,R6*%
X160153641Y-126380000D02*
X159846359Y-126380000D01*
X160153641Y-125620000D02*
X159846359Y-125620000D01*
%TD*%
M02*
