%TF.GenerationSoftware,KiCad,Pcbnew,(7.0.0)*%
%TF.CreationDate,2023-09-18T04:22:57-04:00*%
%TF.ProjectId,Rangefinder,52616e67-6566-4696-9e64-65722e6b6963,rev?*%
%TF.SameCoordinates,Original*%
%TF.FileFunction,Copper,L1,Top*%
%TF.FilePolarity,Positive*%
%FSLAX46Y46*%
G04 Gerber Fmt 4.6, Leading zero omitted, Abs format (unit mm)*
G04 Created by KiCad (PCBNEW (7.0.0)) date 2023-09-18 04:22:57*
%MOMM*%
%LPD*%
G01*
G04 APERTURE LIST*
G04 Aperture macros list*
%AMRoundRect*
0 Rectangle with rounded corners*
0 $1 Rounding radius*
0 $2 $3 $4 $5 $6 $7 $8 $9 X,Y pos of 4 corners*
0 Add a 4 corners polygon primitive as box body*
4,1,4,$2,$3,$4,$5,$6,$7,$8,$9,$2,$3,0*
0 Add four circle primitives for the rounded corners*
1,1,$1+$1,$2,$3*
1,1,$1+$1,$4,$5*
1,1,$1+$1,$6,$7*
1,1,$1+$1,$8,$9*
0 Add four rect primitives between the rounded corners*
20,1,$1+$1,$2,$3,$4,$5,0*
20,1,$1+$1,$4,$5,$6,$7,0*
20,1,$1+$1,$6,$7,$8,$9,0*
20,1,$1+$1,$8,$9,$2,$3,0*%
G04 Aperture macros list end*
%TA.AperFunction,SMDPad,CuDef*%
%ADD10RoundRect,0.140000X-0.140000X-0.170000X0.140000X-0.170000X0.140000X0.170000X-0.140000X0.170000X0*%
%TD*%
%TA.AperFunction,SMDPad,CuDef*%
%ADD11R,0.600000X1.050000*%
%TD*%
%TA.AperFunction,SMDPad,CuDef*%
%ADD12RoundRect,0.135000X-0.135000X-0.185000X0.135000X-0.185000X0.135000X0.185000X-0.135000X0.185000X0*%
%TD*%
%TA.AperFunction,ComponentPad*%
%ADD13RoundRect,0.250000X0.350000X0.625000X-0.350000X0.625000X-0.350000X-0.625000X0.350000X-0.625000X0*%
%TD*%
%TA.AperFunction,ComponentPad*%
%ADD14O,1.200000X1.750000*%
%TD*%
%TA.AperFunction,SMDPad,CuDef*%
%ADD15RoundRect,0.135000X0.185000X-0.135000X0.185000X0.135000X-0.185000X0.135000X-0.185000X-0.135000X0*%
%TD*%
%TA.AperFunction,SMDPad,CuDef*%
%ADD16RoundRect,0.140000X0.170000X-0.140000X0.170000X0.140000X-0.170000X0.140000X-0.170000X-0.140000X0*%
%TD*%
%TA.AperFunction,SMDPad,CuDef*%
%ADD17R,0.300000X0.750000*%
%TD*%
%TA.AperFunction,SMDPad,CuDef*%
%ADD18R,1.750000X1.900000*%
%TD*%
%TA.AperFunction,SMDPad,CuDef*%
%ADD19RoundRect,0.140000X0.140000X0.170000X-0.140000X0.170000X-0.140000X-0.170000X0.140000X-0.170000X0*%
%TD*%
%TA.AperFunction,SMDPad,CuDef*%
%ADD20RoundRect,0.135000X0.135000X0.185000X-0.135000X0.185000X-0.135000X-0.185000X0.135000X-0.185000X0*%
%TD*%
%TA.AperFunction,SMDPad,CuDef*%
%ADD21R,2.150000X2.200000*%
%TD*%
%TA.AperFunction,SMDPad,CuDef*%
%ADD22RoundRect,0.140000X-0.170000X0.140000X-0.170000X-0.140000X0.170000X-0.140000X0.170000X0.140000X0*%
%TD*%
%TA.AperFunction,SMDPad,CuDef*%
%ADD23RoundRect,0.075000X-0.700000X-0.075000X0.700000X-0.075000X0.700000X0.075000X-0.700000X0.075000X0*%
%TD*%
%TA.AperFunction,SMDPad,CuDef*%
%ADD24RoundRect,0.075000X-0.075000X-0.700000X0.075000X-0.700000X0.075000X0.700000X-0.075000X0.700000X0*%
%TD*%
%TA.AperFunction,ComponentPad*%
%ADD25RoundRect,0.250000X-0.350000X-0.625000X0.350000X-0.625000X0.350000X0.625000X-0.350000X0.625000X0*%
%TD*%
%TA.AperFunction,ComponentPad*%
%ADD26RoundRect,0.250000X-0.625000X0.350000X-0.625000X-0.350000X0.625000X-0.350000X0.625000X0.350000X0*%
%TD*%
%TA.AperFunction,ComponentPad*%
%ADD27O,1.750000X1.200000*%
%TD*%
%TA.AperFunction,SMDPad,CuDef*%
%ADD28R,0.700000X1.200000*%
%TD*%
%TA.AperFunction,SMDPad,CuDef*%
%ADD29R,0.760000X1.200000*%
%TD*%
%TA.AperFunction,SMDPad,CuDef*%
%ADD30R,0.800000X1.200000*%
%TD*%
%TA.AperFunction,ComponentPad*%
%ADD31C,2.010000*%
%TD*%
%TA.AperFunction,SMDPad,CuDef*%
%ADD32R,1.050000X0.600000*%
%TD*%
%TA.AperFunction,SMDPad,CuDef*%
%ADD33R,0.950000X0.900000*%
%TD*%
%TA.AperFunction,SMDPad,CuDef*%
%ADD34R,0.800000X2.700000*%
%TD*%
%TA.AperFunction,SMDPad,CuDef*%
%ADD35R,0.280000X0.280000*%
%TD*%
%TA.AperFunction,SMDPad,CuDef*%
%ADD36O,0.280000X0.850000*%
%TD*%
%TA.AperFunction,ComponentPad*%
%ADD37C,0.600000*%
%TD*%
%TA.AperFunction,SMDPad,CuDef*%
%ADD38R,1.050000X0.680000*%
%TD*%
%TA.AperFunction,SMDPad,CuDef*%
%ADD39R,0.500000X0.260000*%
%TD*%
%TA.AperFunction,SMDPad,CuDef*%
%ADD40R,0.700000X0.280000*%
%TD*%
%TA.AperFunction,SMDPad,CuDef*%
%ADD41R,2.400000X1.650000*%
%TD*%
%TA.AperFunction,SMDPad,CuDef*%
%ADD42RoundRect,0.218750X-0.381250X0.218750X-0.381250X-0.218750X0.381250X-0.218750X0.381250X0.218750X0*%
%TD*%
%TA.AperFunction,SMDPad,CuDef*%
%ADD43RoundRect,0.135000X-0.185000X0.135000X-0.185000X-0.135000X0.185000X-0.135000X0.185000X0.135000X0*%
%TD*%
%TA.AperFunction,SMDPad,CuDef*%
%ADD44R,0.800000X0.250000*%
%TD*%
%TA.AperFunction,SMDPad,CuDef*%
%ADD45R,1.100000X0.250000*%
%TD*%
%TA.AperFunction,SMDPad,CuDef*%
%ADD46R,0.500000X0.250000*%
%TD*%
%TA.AperFunction,SMDPad,CuDef*%
%ADD47R,0.250000X0.700000*%
%TD*%
%TA.AperFunction,SMDPad,CuDef*%
%ADD48R,0.250000X1.100000*%
%TD*%
%TA.AperFunction,SMDPad,CuDef*%
%ADD49R,0.600000X1.950000*%
%TD*%
%TA.AperFunction,ViaPad*%
%ADD50C,0.800000*%
%TD*%
%TA.AperFunction,ViaPad*%
%ADD51C,3.200000*%
%TD*%
%TA.AperFunction,Conductor*%
%ADD52C,0.250000*%
%TD*%
G04 APERTURE END LIST*
D10*
%TO.P,C5,1*%
%TO.N,GND*%
X143520000Y-115000000D03*
%TO.P,C5,2*%
%TO.N,3.3V_Board*%
X144480000Y-115000000D03*
%TD*%
D11*
%TO.P,Q1,1*%
%TO.N,/Processor/PA1_LASER_SWITCH*%
X151049999Y-96099999D03*
%TO.P,Q1,2*%
%TO.N,GND*%
X152949999Y-96099999D03*
%TO.P,Q1,3*%
%TO.N,Net-(J5-Pin_2)*%
X151999999Y-93899999D03*
%TD*%
D12*
%TO.P,R1,1*%
%TO.N,Net-(J1-CC1)*%
X149463157Y-120153463D03*
%TO.P,R1,2*%
%TO.N,GND*%
X150483157Y-120153463D03*
%TD*%
D13*
%TO.P,J5,1,Pin_1*%
%TO.N,5V_Board*%
X159000000Y-94000000D03*
D14*
%TO.P,J5,2,Pin_2*%
%TO.N,Net-(J5-Pin_2)*%
X156999999Y-93999999D03*
%TD*%
D15*
%TO.P,R9,1*%
%TO.N,Net-(IC2-FB)*%
X162470505Y-110494308D03*
%TO.P,R9,2*%
%TO.N,GND*%
X162470505Y-109474308D03*
%TD*%
D16*
%TO.P,C2,1*%
%TO.N,3.3V_Board*%
X139595765Y-103170126D03*
%TO.P,C2,2*%
%TO.N,GND*%
X139595765Y-102210126D03*
%TD*%
%TO.P,C3,1*%
%TO.N,GND*%
X154508097Y-103685388D03*
%TO.P,C3,2*%
%TO.N,3.3V_Board*%
X154508097Y-102725388D03*
%TD*%
D17*
%TO.P,IC1,1,VDD_1*%
%TO.N,5V_USB*%
X139749999Y-124499999D03*
%TO.P,IC1,2,VDD_2*%
X139249999Y-124499999D03*
%TO.P,IC1,3,VBAT_1*%
%TO.N,Net-(IC1-VBAT_1)*%
X138749999Y-124499999D03*
%TO.P,IC1,4,VBAT_2*%
X138249999Y-124499999D03*
%TO.P,IC1,5,STAT*%
%TO.N,Net-(IC1-STAT)*%
X138249999Y-127499999D03*
%TO.P,IC1,6,VSS*%
%TO.N,GND*%
X138749999Y-127499999D03*
%TO.P,IC1,7,NC*%
%TO.N,unconnected-(IC1-NC-Pad7)*%
X139249999Y-127499999D03*
%TO.P,IC1,8,PROG*%
%TO.N,Net-(IC1-PROG)*%
X139749999Y-127499999D03*
D18*
%TO.P,IC1,9,EP*%
%TO.N,GND*%
X138999999Y-125999999D03*
%TD*%
D19*
%TO.P,C9,1*%
%TO.N,GND*%
X142960000Y-123000000D03*
%TO.P,C9,2*%
%TO.N,5V_USB*%
X142000000Y-123000000D03*
%TD*%
D12*
%TO.P,R2,1*%
%TO.N,Net-(J1-CC2)*%
X152490000Y-120146374D03*
%TO.P,R2,2*%
%TO.N,GND*%
X153510000Y-120146374D03*
%TD*%
D20*
%TO.P,R11,1*%
%TO.N,Net-(IC2-EN)*%
X160979636Y-113478667D03*
%TO.P,R11,2*%
%TO.N,5V_Board*%
X159959636Y-113478667D03*
%TD*%
D19*
%TO.P,C10,1*%
%TO.N,Net-(J9-Pin_2)*%
X160490000Y-128000000D03*
%TO.P,C10,2*%
%TO.N,GND*%
X159530000Y-128000000D03*
%TD*%
D21*
%TO.P,D3,1*%
%TO.N,5V_Board*%
X166999999Y-115799999D03*
%TO.P,D3,2*%
%TO.N,Net-(J9-Pin_1)*%
X166999999Y-120199999D03*
%TD*%
D19*
%TO.P,C8,1*%
%TO.N,GND*%
X142960000Y-122000000D03*
%TO.P,C8,2*%
%TO.N,5V_USB*%
X142000000Y-122000000D03*
%TD*%
D22*
%TO.P,C12,1*%
%TO.N,5V_Board*%
X163250000Y-119500000D03*
%TO.P,C12,2*%
%TO.N,GND*%
X163250000Y-120460000D03*
%TD*%
D23*
%TO.P,STM32F411,1,VBAT*%
%TO.N,3.3V_Board*%
X141325000Y-103250000D03*
%TO.P,STM32F411,2,PC13*%
%TO.N,/Processor/SPI_CS*%
X141325000Y-103750000D03*
%TO.P,STM32F411,3,PC14*%
%TO.N,/Processor/SPI_RST*%
X141325000Y-104250000D03*
%TO.P,STM32F411,4,PC15*%
%TO.N,/Processor/OLED_DC*%
X141325000Y-104750000D03*
%TO.P,STM32F411,5,PH0*%
%TO.N,unconnected-(STM32F411-PH0-Pad5)*%
X141325000Y-105250000D03*
%TO.P,STM32F411,6,PH1*%
%TO.N,unconnected-(STM32F411-PH1-Pad6)*%
X141325000Y-105750000D03*
%TO.P,STM32F411,7,NRST*%
%TO.N,/Processor/NRST*%
X141325000Y-106250000D03*
%TO.P,STM32F411,8,PC0*%
%TO.N,unconnected-(STM32F411-PC0-Pad8)*%
X141325000Y-106750000D03*
%TO.P,STM32F411,9,PC1*%
%TO.N,unconnected-(STM32F411-PC1-Pad9)*%
X141325000Y-107250000D03*
%TO.P,STM32F411,10,PC2*%
%TO.N,unconnected-(STM32F411-PC2-Pad10)*%
X141325000Y-107750000D03*
%TO.P,STM32F411,11,PC3*%
%TO.N,unconnected-(STM32F411-PC3-Pad11)*%
X141325000Y-108250000D03*
%TO.P,STM32F411,12,VSSA*%
%TO.N,GND*%
X141325000Y-108750000D03*
%TO.P,STM32F411,13,VDDA*%
%TO.N,Net-(STM32F411-VDDA)*%
X141325000Y-109250000D03*
%TO.P,STM32F411,14,PA0*%
%TO.N,unconnected-(STM32F411-PA0-Pad14)*%
X141325000Y-109750000D03*
%TO.P,STM32F411,15,PA1*%
%TO.N,/Processor/PA1_LASER_SWITCH*%
X141325000Y-110250000D03*
%TO.P,STM32F411,16,PA2*%
%TO.N,unconnected-(STM32F411-PA2-Pad16)*%
X141325000Y-110750000D03*
D24*
%TO.P,STM32F411,17,PA3*%
%TO.N,unconnected-(STM32F411-PA3-Pad17)*%
X143250000Y-112675000D03*
%TO.P,STM32F411,18,VSS*%
%TO.N,GND*%
X143750000Y-112675000D03*
%TO.P,STM32F411,19,VDD*%
%TO.N,3.3V_Board*%
X144250000Y-112675000D03*
%TO.P,STM32F411,20,PA4*%
%TO.N,unconnected-(STM32F411-PA4-Pad20)*%
X144750000Y-112675000D03*
%TO.P,STM32F411,21,PA5*%
%TO.N,/Processor/PA5_SPI1_SCK*%
X145250000Y-112675000D03*
%TO.P,STM32F411,22,PA6*%
%TO.N,unconnected-(STM32F411-PA6-Pad22)*%
X145750000Y-112675000D03*
%TO.P,STM32F411,23,PA7*%
%TO.N,/Processor/PA7_SPI1_MOSI*%
X146250000Y-112675000D03*
%TO.P,STM32F411,24,PC4*%
%TO.N,unconnected-(STM32F411-PC4-Pad24)*%
X146750000Y-112675000D03*
%TO.P,STM32F411,25,PC5*%
%TO.N,unconnected-(STM32F411-PC5-Pad25)*%
X147250000Y-112675000D03*
%TO.P,STM32F411,26,PB0*%
%TO.N,unconnected-(STM32F411-PB0-Pad26)*%
X147750000Y-112675000D03*
%TO.P,STM32F411,27,PB1*%
%TO.N,unconnected-(STM32F411-PB1-Pad27)*%
X148250000Y-112675000D03*
%TO.P,STM32F411,28,PB2*%
%TO.N,unconnected-(STM32F411-PB2-Pad28)*%
X148750000Y-112675000D03*
%TO.P,STM32F411,29,PB10*%
%TO.N,unconnected-(STM32F411-PB10-Pad29)*%
X149250000Y-112675000D03*
%TO.P,STM32F411,30,VCAP1*%
%TO.N,Net-(STM32F411-VCAP1)*%
X149750000Y-112675000D03*
%TO.P,STM32F411,31,VSS*%
%TO.N,GND*%
X150250000Y-112675000D03*
%TO.P,STM32F411,32,VDD*%
%TO.N,3.3V_Board*%
X150750000Y-112675000D03*
D23*
%TO.P,STM32F411,33,PB12*%
%TO.N,unconnected-(STM32F411-PB12-Pad33)*%
X152675000Y-110750000D03*
%TO.P,STM32F411,34,PB13*%
%TO.N,unconnected-(STM32F411-PB13-Pad34)*%
X152675000Y-110250000D03*
%TO.P,STM32F411,35,PB14*%
%TO.N,unconnected-(STM32F411-PB14-Pad35)*%
X152675000Y-109750000D03*
%TO.P,STM32F411,36,PB15*%
%TO.N,unconnected-(STM32F411-PB15-Pad36)*%
X152675000Y-109250000D03*
%TO.P,STM32F411,37,PC6*%
%TO.N,/Processor/PC6_USART6_TX*%
X152675000Y-108750000D03*
%TO.P,STM32F411,38,PC7*%
%TO.N,/Processor/PC7_USART6_RX*%
X152675000Y-108250000D03*
%TO.P,STM32F411,39,PC8*%
%TO.N,unconnected-(STM32F411-PC8-Pad39)*%
X152675000Y-107750000D03*
%TO.P,STM32F411,40,PC9*%
%TO.N,unconnected-(STM32F411-PC9-Pad40)*%
X152675000Y-107250000D03*
%TO.P,STM32F411,41,PA8*%
%TO.N,unconnected-(STM32F411-PA8-Pad41)*%
X152675000Y-106750000D03*
%TO.P,STM32F411,42,PA9*%
%TO.N,unconnected-(STM32F411-PA9-Pad42)*%
X152675000Y-106250000D03*
%TO.P,STM32F411,43,PA10*%
%TO.N,unconnected-(STM32F411-PA10-Pad43)*%
X152675000Y-105750000D03*
%TO.P,STM32F411,44,PA11*%
%TO.N,unconnected-(STM32F411-PA11-Pad44)*%
X152675000Y-105250000D03*
%TO.P,STM32F411,45,PA12*%
%TO.N,unconnected-(STM32F411-PA12-Pad45)*%
X152675000Y-104750000D03*
%TO.P,STM32F411,46,PA13*%
%TO.N,/Processor/SWDIO*%
X152675000Y-104250000D03*
%TO.P,STM32F411,47,VSS*%
%TO.N,GND*%
X152675000Y-103750000D03*
%TO.P,STM32F411,48,VDD*%
%TO.N,3.3V_Board*%
X152675000Y-103250000D03*
D24*
%TO.P,STM32F411,49,PA14*%
%TO.N,/Processor/SWCLK*%
X150750000Y-101325000D03*
%TO.P,STM32F411,50,PA15*%
%TO.N,unconnected-(STM32F411-PA15-Pad50)*%
X150250000Y-101325000D03*
%TO.P,STM32F411,51,PC10*%
%TO.N,unconnected-(STM32F411-PC10-Pad51)*%
X149750000Y-101325000D03*
%TO.P,STM32F411,52,PC11*%
%TO.N,unconnected-(STM32F411-PC11-Pad52)*%
X149250000Y-101325000D03*
%TO.P,STM32F411,53,PC12*%
%TO.N,unconnected-(STM32F411-PC12-Pad53)*%
X148750000Y-101325000D03*
%TO.P,STM32F411,54,PD2*%
%TO.N,unconnected-(STM32F411-PD2-Pad54)*%
X148250000Y-101325000D03*
%TO.P,STM32F411,55,PB3*%
%TO.N,unconnected-(STM32F411-PB3-Pad55)*%
X147750000Y-101325000D03*
%TO.P,STM32F411,56,PB4*%
%TO.N,unconnected-(STM32F411-PB4-Pad56)*%
X147250000Y-101325000D03*
%TO.P,STM32F411,57,PB5*%
%TO.N,unconnected-(STM32F411-PB5-Pad57)*%
X146750000Y-101325000D03*
%TO.P,STM32F411,58,PB6*%
%TO.N,unconnected-(STM32F411-PB6-Pad58)*%
X146250000Y-101325000D03*
%TO.P,STM32F411,59,PB7*%
%TO.N,unconnected-(STM32F411-PB7-Pad59)*%
X145750000Y-101325000D03*
%TO.P,STM32F411,60,BOOT0*%
%TO.N,GND*%
X145250000Y-101325000D03*
%TO.P,STM32F411,61,PB8*%
%TO.N,unconnected-(STM32F411-PB8-Pad61)*%
X144750000Y-101325000D03*
%TO.P,STM32F411,62,PB9*%
%TO.N,unconnected-(STM32F411-PB9-Pad62)*%
X144250000Y-101325000D03*
%TO.P,STM32F411,63,VSS*%
%TO.N,GND*%
X143750000Y-101325000D03*
%TO.P,STM32F411,64,VDD*%
%TO.N,3.3V_Board*%
X143250000Y-101325000D03*
%TD*%
D20*
%TO.P,R8,1*%
%TO.N,5V_USB*%
X139443993Y-118438713D03*
%TO.P,R8,2*%
%TO.N,Net-(Q2-Pad1)*%
X138423993Y-118438713D03*
%TD*%
%TO.P,R13,1*%
%TO.N,Net-(LED3-Pad2)*%
X167510000Y-112632571D03*
%TO.P,R13,2*%
%TO.N,5V_Board*%
X166490000Y-112632571D03*
%TD*%
D19*
%TO.P,C14,1*%
%TO.N,5V_Board*%
X158798281Y-113486453D03*
%TO.P,C14,2*%
%TO.N,GND*%
X157838281Y-113486453D03*
%TD*%
D13*
%TO.P,J6,1,Pin_1*%
%TO.N,GND*%
X146000000Y-94000000D03*
D14*
%TO.P,J6,2,Pin_2*%
%TO.N,/Processor/NRST*%
X143999999Y-93999999D03*
%TO.P,J6,3,Pin_3*%
%TO.N,/Processor/SWDIO*%
X141999999Y-93999999D03*
%TO.P,J6,4,Pin_4*%
%TO.N,/Processor/SWCLK*%
X139999999Y-93999999D03*
%TD*%
D16*
%TO.P,C13,1*%
%TO.N,GND*%
X155470107Y-109774687D03*
%TO.P,C13,2*%
%TO.N,3.3V_Board*%
X155470107Y-108814687D03*
%TD*%
D25*
%TO.P,J10,1,Pin_1*%
%TO.N,GND*%
X165000000Y-103000000D03*
D14*
%TO.P,J10,2,Pin_2*%
%TO.N,5V_Board*%
X166999999Y-102999999D03*
%TD*%
D10*
%TO.P,C6,1*%
%TO.N,GND*%
X150520000Y-115000000D03*
%TO.P,C6,2*%
%TO.N,3.3V_Board*%
X151480000Y-115000000D03*
%TD*%
D12*
%TO.P,R5,1*%
%TO.N,5V_USB*%
X142000000Y-121000000D03*
%TO.P,R5,2*%
%TO.N,GND*%
X143020000Y-121000000D03*
%TD*%
D26*
%TO.P,J8,1,Pin_1*%
%TO.N,5V_USB*%
X134000000Y-118000000D03*
D27*
%TO.P,J8,2,Pin_2*%
%TO.N,Net-(J8-Pin_2)*%
X133999999Y-119999999D03*
%TD*%
D16*
%TO.P,C7,1*%
%TO.N,GND*%
X137000000Y-125960000D03*
%TO.P,C7,2*%
%TO.N,Net-(IC1-VBAT_1)*%
X137000000Y-125000000D03*
%TD*%
D20*
%TO.P,R10,1*%
%TO.N,Net-(IC2-FB)*%
X158510000Y-105000000D03*
%TO.P,R10,2*%
%TO.N,3.3V_Board*%
X157490000Y-105000000D03*
%TD*%
D22*
%TO.P,C11,1*%
%TO.N,Net-(U2-VAUX)*%
X162293743Y-121330328D03*
%TO.P,C11,2*%
%TO.N,GND*%
X162293743Y-122290328D03*
%TD*%
D20*
%TO.P,R4,1*%
%TO.N,Net-(LED1-Pad1)*%
X142510000Y-129000000D03*
%TO.P,R4,2*%
%TO.N,Net-(IC1-STAT)*%
X141490000Y-129000000D03*
%TD*%
D25*
%TO.P,J4,1,Pin_1*%
%TO.N,GND*%
X165000000Y-97000000D03*
D14*
%TO.P,J4,2,Pin_2*%
%TO.N,5V_Board*%
X166999999Y-96999999D03*
%TD*%
D28*
%TO.P,J1,A5,CC1*%
%TO.N,Net-(J1-CC1)*%
X149499999Y-122919999D03*
D29*
%TO.P,J1,A9,VBUS_1*%
%TO.N,5V_USB*%
X151519999Y-122919999D03*
D30*
%TO.P,J1,A12,GND_1*%
%TO.N,GND*%
X152749999Y-122919999D03*
D28*
%TO.P,J1,B5,CC2*%
%TO.N,Net-(J1-CC2)*%
X150499999Y-122919999D03*
D29*
%TO.P,J1,B9,VBUS_2*%
%TO.N,5V_USB*%
X148479999Y-122919999D03*
D30*
%TO.P,J1,B12,GND_2*%
%TO.N,GND*%
X147249999Y-122919999D03*
D31*
%TO.P,J1,MH1,MH1*%
%TO.N,unconnected-(J1-PadMH1)*%
X145680000Y-123000000D03*
%TO.P,J1,MH2,MH2*%
%TO.N,unconnected-(J1-PadMH2)*%
X145680000Y-126800000D03*
%TO.P,J1,MH3,MH3*%
%TO.N,unconnected-(J1-PadMH3)*%
X154320000Y-126800000D03*
%TO.P,J1,MH4,MH4*%
%TO.N,unconnected-(J1-PadMH4)*%
X154320000Y-123000000D03*
%TD*%
D26*
%TO.P,J9,1,Pin_1*%
%TO.N,Net-(J9-Pin_1)*%
X167000000Y-125000000D03*
D27*
%TO.P,J9,2,Pin_2*%
%TO.N,Net-(J9-Pin_2)*%
X166999999Y-126999999D03*
%TD*%
D32*
%TO.P,Q2,1*%
%TO.N,Net-(Q2-Pad1)*%
X137287045Y-120515439D03*
%TO.P,Q2,2*%
%TO.N,Net-(IC1-VBAT_1)*%
X137287045Y-122415439D03*
%TO.P,Q2,3*%
%TO.N,Net-(J8-Pin_2)*%
X139487045Y-121465439D03*
%TD*%
D33*
%TO.P,LED2,1*%
%TO.N,GND*%
X160999999Y-102999999D03*
%TO.P,LED2,2*%
%TO.N,Net-(LED2-Pad2)*%
X160999999Y-101499999D03*
%TD*%
D19*
%TO.P,C4,1*%
%TO.N,GND*%
X144000000Y-99000000D03*
%TO.P,C4,2*%
%TO.N,3.3V_Board*%
X143040000Y-99000000D03*
%TD*%
D26*
%TO.P,J11,1,Pin_1*%
%TO.N,/Processor/PC7_USART6_RX*%
X134000000Y-111000000D03*
D27*
%TO.P,J11,2,Pin_2*%
%TO.N,/Processor/PC6_USART6_TX*%
X133999999Y-112999999D03*
%TD*%
D20*
%TO.P,R3,1*%
%TO.N,Net-(IC1-PROG)*%
X139527612Y-128982987D03*
%TO.P,R3,2*%
%TO.N,GND*%
X138507612Y-128982987D03*
%TD*%
D34*
%TO.P,L3,1*%
%TO.N,Net-(J9-Pin_2)*%
X156229984Y-118395034D03*
%TO.P,L3,2*%
%TO.N,Net-(U2-L)*%
X158429984Y-118395034D03*
%TD*%
D20*
%TO.P,R12,1*%
%TO.N,Net-(LED2-Pad2)*%
X158510000Y-103414193D03*
%TO.P,R12,2*%
%TO.N,3.3V_Board*%
X157490000Y-103414193D03*
%TD*%
D16*
%TO.P,C1,1*%
%TO.N,GND*%
X139000000Y-109000000D03*
%TO.P,C1,2*%
%TO.N,Net-(STM32F411-VDDA)*%
X139000000Y-108040000D03*
%TD*%
D35*
%TO.P,U2,1,VAUX*%
%TO.N,Net-(U2-VAUX)*%
X160634999Y-120789999D03*
D36*
X160634999Y-121074999D03*
D35*
%TO.P,U2,2,VOUT*%
%TO.N,5V_Board*%
X160134999Y-120789999D03*
D36*
X160134999Y-121074999D03*
D35*
%TO.P,U2,3,L*%
%TO.N,Net-(U2-L)*%
X159634999Y-120789999D03*
D36*
X159634999Y-121074999D03*
D35*
%TO.P,U2,4,PGND*%
%TO.N,GND*%
X159134999Y-120789999D03*
D36*
X159134999Y-121074999D03*
D35*
%TO.P,U2,5,VIN*%
%TO.N,Net-(J9-Pin_2)*%
X158634999Y-120789999D03*
D36*
X158634999Y-121074999D03*
%TO.P,U2,6,EN*%
X158634999Y-124024999D03*
D35*
X158634999Y-124309999D03*
D36*
%TO.P,U2,7,UVLO*%
%TO.N,Net-(U2-UVLO)*%
X159134999Y-124024999D03*
D35*
X159134999Y-124309999D03*
D36*
%TO.P,U2,8,PS*%
%TO.N,Net-(J9-Pin_2)*%
X159634999Y-124024999D03*
D35*
X159634999Y-124309999D03*
D36*
%TO.P,U2,9,GND*%
%TO.N,GND*%
X160134999Y-124024999D03*
D35*
X160134999Y-124309999D03*
D36*
%TO.P,U2,10,FB*%
%TO.N,5V_Board*%
X160634999Y-124024999D03*
D35*
X160634999Y-124309999D03*
D37*
%TO.P,U2,11,PAD*%
%TO.N,GND*%
X160385000Y-122050000D03*
X158885000Y-122050000D03*
D38*
X160269999Y-122099999D03*
X158999999Y-122099999D03*
D39*
X161264999Y-122299999D03*
D40*
X161184999Y-122299999D03*
X158084999Y-122299999D03*
D39*
X158004999Y-122299999D03*
D37*
X159635000Y-122550000D03*
D41*
X159634999Y-122549999D03*
D39*
X161264999Y-122799999D03*
D40*
X161184999Y-122799999D03*
X158084999Y-122799999D03*
D39*
X158004999Y-122799999D03*
D38*
X160269999Y-122999999D03*
X158999999Y-122999999D03*
D37*
X160385000Y-123050000D03*
X158885000Y-123050000D03*
%TD*%
D33*
%TO.P,LED3,1*%
%TO.N,GND*%
X168526961Y-109170502D03*
%TO.P,LED3,2*%
%TO.N,Net-(LED3-Pad2)*%
X168526961Y-110670502D03*
%TD*%
D42*
%TO.P,L1,1,1*%
%TO.N,3.3V_Board*%
X138931486Y-104444504D03*
%TO.P,L1,2,2*%
%TO.N,Net-(STM32F411-VDDA)*%
X138931486Y-106569504D03*
%TD*%
D33*
%TO.P,LED1,1*%
%TO.N,Net-(LED1-Pad1)*%
X141999999Y-126749999D03*
%TO.P,LED1,2*%
%TO.N,5V_USB*%
X141999999Y-125249999D03*
%TD*%
D10*
%TO.P,C15,1*%
%TO.N,Net-(STM32F411-VCAP1)*%
X148520000Y-115000000D03*
%TO.P,C15,2*%
%TO.N,GND*%
X149480000Y-115000000D03*
%TD*%
D43*
%TO.P,R7,1*%
%TO.N,Net-(U2-UVLO)*%
X158000000Y-126490000D03*
%TO.P,R7,2*%
%TO.N,GND*%
X158000000Y-127510000D03*
%TD*%
D26*
%TO.P,J3,1,Pin_1*%
%TO.N,/Processor/SPI_CS*%
X134000000Y-98000000D03*
D27*
%TO.P,J3,2,Pin_2*%
%TO.N,/Processor/SPI_RST*%
X133999999Y-99999999D03*
%TO.P,J3,3,Pin_3*%
%TO.N,/Processor/OLED_DC*%
X133999999Y-101999999D03*
%TO.P,J3,4,Pin_4*%
%TO.N,/Processor/PA7_SPI1_MOSI*%
X133999999Y-103999999D03*
%TO.P,J3,5,Pin_5*%
%TO.N,/Processor/PA5_SPI1_SCK*%
X133999999Y-105999999D03*
%TD*%
D44*
%TO.P,IC2,1,FB*%
%TO.N,Net-(IC2-FB)*%
X160399999Y-110549999D03*
D45*
%TO.P,IC2,2,VCC*%
%TO.N,unconnected-(IC2-VCC-Pad2)*%
X160249999Y-109899999D03*
%TO.P,IC2,3,AGND*%
%TO.N,GND*%
X160249999Y-109249999D03*
D46*
%TO.P,IC2,4,SW_1*%
%TO.N,unconnected-(IC2-SW_1-Pad4)*%
X160549999Y-108599999D03*
%TO.P,IC2,5,SW_2*%
%TO.N,unconnected-(IC2-SW_2-Pad5)*%
X160549999Y-107749999D03*
%TO.P,IC2,6,SW_3*%
%TO.N,unconnected-(IC2-SW_3-Pad6)*%
X160549999Y-106899999D03*
%TO.P,IC2,7,OUT_1*%
%TO.N,3.3V_Board*%
X157449999Y-106899999D03*
%TO.P,IC2,8,OUT_2*%
X157449999Y-107749999D03*
%TO.P,IC2,9,OUT_3*%
X157449999Y-108599999D03*
D45*
%TO.P,IC2,10,NC_1*%
%TO.N,unconnected-(IC2-NC_1-Pad10)*%
X157749999Y-109249999D03*
%TO.P,IC2,11,BST*%
%TO.N,unconnected-(IC2-BST-Pad11)*%
X157749999Y-109899999D03*
D44*
%TO.P,IC2,12,PGND_1*%
%TO.N,GND*%
X157599999Y-110549999D03*
D47*
%TO.P,IC2,13,PGND_2*%
X157749999Y-111449999D03*
%TO.P,IC2,14,PGND_3*%
X158249999Y-111449999D03*
D48*
%TO.P,IC2,15,NC_2*%
%TO.N,unconnected-(IC2-NC_2-Pad15)*%
X158749999Y-111249999D03*
%TO.P,IC2,16,IN*%
%TO.N,5V_Board*%
X159249999Y-111249999D03*
D47*
%TO.P,IC2,17,EN*%
%TO.N,Net-(IC2-EN)*%
X159749999Y-111449999D03*
%TO.P,IC2,18,PG*%
%TO.N,unconnected-(IC2-PG-Pad18)*%
X160249999Y-111449999D03*
D49*
%TO.P,IC2,21,SW_4*%
%TO.N,unconnected-(IC2-SW_4-Pad21)*%
X159999999Y-107749999D03*
%TO.P,IC2,22,OUT_4*%
%TO.N,3.3V_Board*%
X157999999Y-107749999D03*
%TD*%
D26*
%TO.P,J7,1,Pin_1*%
%TO.N,Net-(IC1-VBAT_1)*%
X134000000Y-125000000D03*
D27*
%TO.P,J7,2,Pin_2*%
%TO.N,GND*%
X133999999Y-126999999D03*
%TD*%
D20*
%TO.P,R6,1*%
%TO.N,Net-(J9-Pin_2)*%
X160510000Y-126000000D03*
%TO.P,R6,2*%
%TO.N,Net-(U2-UVLO)*%
X159490000Y-126000000D03*
%TD*%
D50*
%TO.N,GND*%
X136785207Y-110391731D03*
D51*
X157542770Y-99304819D03*
X139000000Y-115000000D03*
X133000000Y-93000000D03*
D50*
X151535701Y-119055895D03*
X148000000Y-126000000D03*
X143000000Y-108000000D03*
X144000000Y-125000000D03*
X155635352Y-113425422D03*
X140000000Y-101000000D03*
X163000000Y-108000000D03*
X169000000Y-107000000D03*
X155000000Y-97000000D03*
X137000000Y-127000000D03*
X152000000Y-126000000D03*
X145000000Y-103000000D03*
X154353523Y-104804765D03*
X142000000Y-115000000D03*
X145000000Y-99000000D03*
X158000000Y-129000000D03*
X155574577Y-111845282D03*
X150000000Y-116000000D03*
%TO.N,3.3V_Board*%
X147000000Y-105000000D03*
X154981168Y-101220027D03*
%TO.N,Net-(J9-Pin_2)*%
X159992960Y-125049498D03*
X158000000Y-125000000D03*
%TO.N,5V_Board*%
X162000000Y-125000000D03*
X162000000Y-120000000D03*
%TO.N,Net-(IC1-STAT)*%
X141000000Y-128000000D03*
X137000000Y-129000000D03*
%TO.N,Net-(IC2-FB)*%
X160000000Y-105000000D03*
X162000000Y-112000000D03*
%TO.N,/Processor/OLED_DC*%
X142850846Y-105011689D03*
X136000000Y-103000000D03*
%TO.N,/Processor/SPI_RST*%
X136282105Y-101858839D03*
X143000000Y-104000000D03*
%TO.N,/Processor/SPI_CS*%
X142951761Y-103001664D03*
X136000000Y-99000000D03*
%TO.N,/Processor/PA5_SPI1_SCK*%
X136000000Y-108000000D03*
X145000000Y-111000000D03*
%TO.N,/Processor/PA7_SPI1_MOSI*%
X136000000Y-106000000D03*
X145073476Y-110003204D03*
%TO.N,/Processor/NRST*%
X143000000Y-106000000D03*
X144851322Y-96114836D03*
%TO.N,/Processor/PA1_LASER_SWITCH*%
X150000000Y-96000000D03*
X145808296Y-107525500D03*
%TD*%
D52*
%TO.N,3.3V_Board*%
X149989950Y-117000000D02*
X146480000Y-117000000D01*
X146480000Y-117000000D02*
X144480000Y-115000000D01*
X151480000Y-115000000D02*
X151480000Y-115509950D01*
X151480000Y-115509950D02*
X149989950Y-117000000D01*
%TO.N,GND*%
X137608269Y-110391731D02*
X136785207Y-110391731D01*
X139000000Y-109000000D02*
X137608269Y-110391731D01*
X153510000Y-119510000D02*
X153055895Y-119055895D01*
X153055895Y-119055895D02*
X151535701Y-119055895D01*
X153510000Y-120146374D02*
X153510000Y-119510000D01*
X150483157Y-120108439D02*
X151535701Y-119055895D01*
X150483157Y-120153463D02*
X150483157Y-120108439D01*
%TO.N,Net-(J1-CC2)*%
X150500000Y-122136374D02*
X152490000Y-120146374D01*
X150500000Y-122920000D02*
X150500000Y-122136374D01*
%TO.N,GND*%
X150250000Y-114730000D02*
X150520000Y-115000000D01*
X162470505Y-109474308D02*
X162470505Y-108529495D01*
X159000000Y-128000000D02*
X158000000Y-129000000D01*
X143750000Y-101325000D02*
X143750000Y-99250000D01*
X159135000Y-121965000D02*
X159000000Y-122100000D01*
X142960000Y-123960000D02*
X144000000Y-125000000D01*
X138750000Y-127500000D02*
X138750000Y-126250000D01*
X142250000Y-108750000D02*
X143000000Y-108000000D01*
X160135000Y-124025000D02*
X160135000Y-123135000D01*
X162470505Y-108529495D02*
X163000000Y-108000000D01*
X154100000Y-96100000D02*
X155000000Y-97000000D01*
X162246197Y-109250000D02*
X162470505Y-109474308D01*
X149480000Y-115000000D02*
X150520000Y-115000000D01*
X139595765Y-101404235D02*
X140000000Y-101000000D01*
X154443485Y-103750000D02*
X154508097Y-103685388D01*
X143750000Y-114770000D02*
X143520000Y-115000000D01*
X141325000Y-108750000D02*
X142250000Y-108750000D01*
X152750000Y-125250000D02*
X152000000Y-126000000D01*
X143520000Y-115000000D02*
X142000000Y-115000000D01*
X143020000Y-121000000D02*
X143020000Y-121940000D01*
X154508097Y-103685388D02*
X154508097Y-104650191D01*
X152675000Y-103750000D02*
X154443485Y-103750000D01*
X160135000Y-123135000D02*
X160000000Y-123000000D01*
X144000000Y-99000000D02*
X145000000Y-99000000D01*
X168526962Y-107473038D02*
X168526962Y-109170503D01*
X143750000Y-99250000D02*
X144000000Y-99000000D01*
X142960000Y-123000000D02*
X142960000Y-123960000D01*
X152750000Y-122920000D02*
X152750000Y-125250000D01*
X159530000Y-128000000D02*
X159000000Y-128000000D01*
X145250000Y-102750000D02*
X145000000Y-103000000D01*
X163250000Y-120460000D02*
X163250000Y-121750000D01*
X138750000Y-126250000D02*
X139000000Y-126000000D01*
X137000000Y-125960000D02*
X137000000Y-127000000D01*
X143750000Y-112675000D02*
X143750000Y-114770000D01*
X147250000Y-125250000D02*
X148000000Y-126000000D01*
X169000000Y-107000000D02*
X168526962Y-107473038D01*
X160250000Y-109250000D02*
X162246197Y-109250000D01*
X139595765Y-102210126D02*
X139595765Y-101404235D01*
X138750000Y-127500000D02*
X138750000Y-128740599D01*
X149480000Y-115000000D02*
X149480000Y-115480000D01*
X161000000Y-103000000D02*
X165000000Y-103000000D01*
X163250000Y-121750000D02*
X163000000Y-122000000D01*
X150250000Y-112675000D02*
X150250000Y-114730000D01*
X149480000Y-115480000D02*
X150000000Y-116000000D01*
X159135000Y-121075000D02*
X159135000Y-121965000D01*
X142960000Y-122000000D02*
X142960000Y-123000000D01*
X158000000Y-127510000D02*
X158000000Y-129000000D01*
X145250000Y-101325000D02*
X145250000Y-102750000D01*
X138750000Y-128740599D02*
X138507612Y-128982987D01*
X154508097Y-104650191D02*
X154353523Y-104804765D01*
X147250000Y-122920000D02*
X147250000Y-125250000D01*
X152950000Y-96100000D02*
X154100000Y-96100000D01*
X143020000Y-121940000D02*
X142960000Y-122000000D01*
%TO.N,3.3V_Board*%
X144250000Y-114770000D02*
X144480000Y-115000000D01*
X143250000Y-102275305D02*
X143250000Y-101325000D01*
X150750000Y-112675000D02*
X151480000Y-113405000D01*
X147000000Y-105000000D02*
X145974695Y-105000000D01*
X154000000Y-110277185D02*
X154000000Y-112480000D01*
X139595765Y-103170126D02*
X139595765Y-103780225D01*
X139675639Y-103250000D02*
X139595765Y-103170126D01*
X154000000Y-112480000D02*
X151480000Y-115000000D01*
X155725388Y-102725388D02*
X156000000Y-103000000D01*
X142299695Y-102275305D02*
X143250000Y-102275305D01*
X139595765Y-103780225D02*
X138931486Y-104444504D01*
X143250000Y-99210000D02*
X143040000Y-99000000D01*
X143250000Y-101325000D02*
X143250000Y-99210000D01*
X153199612Y-102725388D02*
X154508097Y-102725388D01*
X156000000Y-102238859D02*
X154981168Y-101220027D01*
X156000000Y-103000000D02*
X156000000Y-102238859D01*
X141325000Y-103250000D02*
X139675639Y-103250000D01*
X154508097Y-102725388D02*
X155725388Y-102725388D01*
X141325000Y-103250000D02*
X142299695Y-102275305D01*
X145974695Y-105000000D02*
X143250000Y-102275305D01*
X155462498Y-108814687D02*
X154000000Y-110277185D01*
X155470107Y-108814687D02*
X155462498Y-108814687D01*
X144250000Y-112675000D02*
X144250000Y-114770000D01*
X152675000Y-103250000D02*
X153199612Y-102725388D01*
X151480000Y-113405000D02*
X151480000Y-115000000D01*
%TO.N,5V_USB*%
X134000000Y-118000000D02*
X134206287Y-117793713D01*
X134206287Y-117793713D02*
X138798993Y-117793713D01*
X138798993Y-117793713D02*
X139443993Y-118438713D01*
%TO.N,Net-(J9-Pin_2)*%
X160490000Y-126020000D02*
X160510000Y-126000000D01*
X160559498Y-125049498D02*
X161255000Y-125745000D01*
X160490000Y-128000000D02*
X160490000Y-126020000D01*
X161000000Y-126000000D02*
X161255000Y-125745000D01*
X160510000Y-126000000D02*
X161000000Y-126000000D01*
X159992960Y-125049498D02*
X160559498Y-125049498D01*
X159635000Y-124310000D02*
X159635000Y-124691538D01*
X167000000Y-127000000D02*
X162510000Y-127000000D01*
X158635000Y-124310000D02*
X158635000Y-124365000D01*
X158000000Y-125000000D02*
X157000000Y-124000000D01*
X158635000Y-124365000D02*
X158000000Y-125000000D01*
X159635000Y-124691538D02*
X159992960Y-125049498D01*
X161255000Y-125745000D02*
X162510000Y-127000000D01*
X157000000Y-124000000D02*
X157000000Y-121000000D01*
%TO.N,Net-(U2-VAUX)*%
X160635000Y-121075000D02*
X162038415Y-121075000D01*
X162038415Y-121075000D02*
X162293743Y-121330328D01*
%TO.N,5V_Board*%
X159250000Y-113034734D02*
X158798281Y-113486453D01*
X162000000Y-120000000D02*
X161000000Y-119000000D01*
X160135000Y-120135000D02*
X160270000Y-120000000D01*
X158798281Y-114798281D02*
X160000000Y-116000000D01*
X160135000Y-121075000D02*
X160135000Y-120135000D01*
X160270000Y-120000000D02*
X161000000Y-120000000D01*
X160635000Y-124310000D02*
X161310000Y-124310000D01*
X158798281Y-113486453D02*
X158798281Y-114798281D01*
X159959636Y-114959636D02*
X160000000Y-115000000D01*
X159959636Y-113478667D02*
X159959636Y-114959636D01*
X161310000Y-124310000D02*
X162000000Y-125000000D01*
X159250000Y-111250000D02*
X159250000Y-113034734D01*
%TO.N,Net-(J9-Pin_1)*%
X167000000Y-120200000D02*
X167000000Y-125000000D01*
%TO.N,Net-(IC1-STAT)*%
X141490000Y-128490000D02*
X141000000Y-128000000D01*
X137000000Y-129000000D02*
X137000000Y-128750000D01*
X141490000Y-129000000D02*
X141490000Y-128490000D01*
X137000000Y-128750000D02*
X138250000Y-127500000D01*
%TO.N,Net-(IC1-PROG)*%
X139750000Y-128760599D02*
X139527612Y-128982987D01*
X139750000Y-127500000D02*
X139750000Y-128760599D01*
%TO.N,Net-(IC2-FB)*%
X160000000Y-105000000D02*
X158510000Y-105000000D01*
X162414813Y-110550000D02*
X162470505Y-110494308D01*
X162470505Y-110494308D02*
X162470505Y-111529495D01*
X160400000Y-110550000D02*
X162414813Y-110550000D01*
X162470505Y-111529495D02*
X162000000Y-112000000D01*
%TO.N,Net-(IC2-EN)*%
X159750000Y-111450000D02*
X159750000Y-112249031D01*
X159750000Y-112249031D02*
X160979636Y-113478667D01*
%TO.N,Net-(J1-CC1)*%
X149500000Y-122920000D02*
X149500000Y-120190306D01*
X149500000Y-120190306D02*
X149463157Y-120153463D01*
%TO.N,/Processor/PC6_USART6_TX*%
X135000000Y-113000000D02*
X134000000Y-113000000D01*
X142052081Y-112000000D02*
X136000000Y-112000000D01*
X152675000Y-108750000D02*
X145302081Y-108750000D01*
X145302081Y-108750000D02*
X142052081Y-112000000D01*
X136000000Y-112000000D02*
X135000000Y-113000000D01*
%TO.N,/Processor/PC7_USART6_RX*%
X152675000Y-108250000D02*
X145165685Y-108250000D01*
X142190685Y-111225000D02*
X134225000Y-111225000D01*
X134225000Y-111225000D02*
X134000000Y-111000000D01*
X145165685Y-108250000D02*
X142190685Y-111225000D01*
%TO.N,/Processor/OLED_DC*%
X136000000Y-103000000D02*
X135000000Y-103000000D01*
X142850846Y-105011689D02*
X142589157Y-104750000D01*
X135000000Y-103000000D02*
X134000000Y-102000000D01*
X142589157Y-104750000D02*
X141325000Y-104750000D01*
%TO.N,/Processor/SPI_RST*%
X136282105Y-101858839D02*
X135858839Y-101858839D01*
X142750000Y-104250000D02*
X143000000Y-104000000D01*
X141325000Y-104250000D02*
X142750000Y-104250000D01*
X135858839Y-101858839D02*
X134000000Y-100000000D01*
%TO.N,/Processor/SPI_CS*%
X141325000Y-103750000D02*
X142203425Y-103750000D01*
X136000000Y-99000000D02*
X135000000Y-99000000D01*
X135000000Y-99000000D02*
X134000000Y-98000000D01*
X142203425Y-103750000D02*
X142951761Y-103001664D01*
%TO.N,/Processor/PA5_SPI1_SCK*%
X145250000Y-111250000D02*
X145000000Y-111000000D01*
X136000000Y-108000000D02*
X134000000Y-106000000D01*
X145250000Y-112675000D02*
X145250000Y-111250000D01*
%TO.N,/Processor/PA7_SPI1_MOSI*%
X136000000Y-106000000D02*
X134000000Y-104000000D01*
X146250000Y-111179728D02*
X146250000Y-112675000D01*
X145073476Y-110003204D02*
X146250000Y-111179728D01*
%TO.N,/Processor/NRST*%
X144000000Y-95263514D02*
X144000000Y-94000000D01*
X144851322Y-96114836D02*
X144000000Y-95263514D01*
X142750000Y-106250000D02*
X143000000Y-106000000D01*
X141325000Y-106250000D02*
X142750000Y-106250000D01*
%TO.N,/Processor/SWCLK*%
X150750000Y-100484315D02*
X147715685Y-97450000D01*
X143450000Y-97450000D02*
X140000000Y-94000000D01*
X147715685Y-97450000D02*
X143450000Y-97450000D01*
X150750000Y-101325000D02*
X150750000Y-100484315D01*
%TO.N,/Processor/SWDIO*%
X151834315Y-104250000D02*
X151225000Y-103640685D01*
X151225000Y-103640685D02*
X151225000Y-100225000D01*
X144000000Y-97000000D02*
X142000000Y-95000000D01*
X152675000Y-104250000D02*
X151834315Y-104250000D01*
X151225000Y-100225000D02*
X148000000Y-97000000D01*
X148000000Y-97000000D02*
X144000000Y-97000000D01*
X142000000Y-95000000D02*
X142000000Y-94000000D01*
%TO.N,Net-(U2-L)*%
X159635000Y-120360000D02*
X158429985Y-119154985D01*
X159635000Y-120790000D02*
X159635000Y-120360000D01*
X158429985Y-119154985D02*
X158429985Y-118395035D01*
%TO.N,Net-(LED1-Pad1)*%
X142000000Y-126750000D02*
X142000000Y-128490000D01*
X142000000Y-128490000D02*
X142510000Y-129000000D01*
%TO.N,Net-(LED2-Pad2)*%
X158510000Y-103414193D02*
X160424193Y-101500000D01*
X160424193Y-101500000D02*
X161000000Y-101500000D01*
%TO.N,Net-(LED3-Pad2)*%
X168526962Y-111615609D02*
X167510000Y-112632571D01*
X168526962Y-110670503D02*
X168526962Y-111615609D01*
%TO.N,/Processor/PA1_LASER_SWITCH*%
X144890185Y-107525500D02*
X145808296Y-107525500D01*
X150000000Y-96000000D02*
X150950000Y-96000000D01*
X141325000Y-110250000D02*
X142165685Y-110250000D01*
X142165685Y-110250000D02*
X144890185Y-107525500D01*
X150950000Y-96000000D02*
X151050000Y-96100000D01*
%TO.N,Net-(Q2-Pad1)*%
X137287046Y-120515440D02*
X137287046Y-119575660D01*
X137287046Y-119575660D02*
X138423993Y-118438713D01*
%TO.N,Net-(U2-UVLO)*%
X159000000Y-126490000D02*
X159490000Y-126000000D01*
X159135000Y-125645000D02*
X159135000Y-124310000D01*
X159490000Y-126000000D02*
X159135000Y-125645000D01*
X158000000Y-126490000D02*
X159000000Y-126490000D01*
%TO.N,Net-(STM32F411-VDDA)*%
X140484315Y-109250000D02*
X139274315Y-108040000D01*
X139000000Y-108040000D02*
X139000000Y-106638018D01*
X141325000Y-109250000D02*
X140484315Y-109250000D01*
X139000000Y-106638018D02*
X138931486Y-106569504D01*
X139274315Y-108040000D02*
X139000000Y-108040000D01*
%TO.N,Net-(STM32F411-VCAP1)*%
X148520000Y-114745685D02*
X148520000Y-115000000D01*
X149750000Y-113515685D02*
X148520000Y-114745685D01*
X149750000Y-112675000D02*
X149750000Y-113515685D01*
%TO.N,Net-(J8-Pin_2)*%
X135465440Y-121465440D02*
X134000000Y-120000000D01*
X139487046Y-121465440D02*
X135465440Y-121465440D01*
%TO.N,Net-(J5-Pin_2)*%
X156900000Y-93900000D02*
X157000000Y-94000000D01*
X152000000Y-93900000D02*
X156900000Y-93900000D01*
%TD*%
%TA.AperFunction,Conductor*%
%TO.N,GND*%
G36*
X139813363Y-125086977D02*
G01*
X139847015Y-125101005D01*
X139861663Y-125134392D01*
X139918035Y-126881915D01*
X139911944Y-126907200D01*
X139893772Y-126925807D01*
X139868638Y-126932493D01*
X137969090Y-126916118D01*
X137948381Y-126911329D01*
X137931649Y-126898223D01*
X137554891Y-126439561D01*
X137549357Y-126439657D01*
X136630116Y-126455643D01*
X136604269Y-126448796D01*
X136585865Y-126429399D01*
X136580384Y-126403228D01*
X136633102Y-125650111D01*
X136648014Y-125618219D01*
X136680463Y-125604559D01*
X137461320Y-125580410D01*
X137793165Y-125237315D01*
X137799423Y-125231862D01*
X137943759Y-125126304D01*
X137980307Y-125090622D01*
X137987301Y-125081524D01*
X138004797Y-125067283D01*
X138026816Y-125062392D01*
X139813363Y-125086977D01*
G37*
%TD.AperFunction*%
%TD*%
%TA.AperFunction,Conductor*%
%TO.N,GND*%
G36*
X156063676Y-109437820D02*
G01*
X156080136Y-109448926D01*
X156343561Y-109718855D01*
X156885798Y-110274481D01*
X158360887Y-110372820D01*
X158392863Y-110387659D01*
X158406602Y-110420123D01*
X158449474Y-111742011D01*
X158449500Y-111743599D01*
X158449500Y-111817284D01*
X158449968Y-111819637D01*
X158449969Y-111819646D01*
X158451600Y-111827848D01*
X158452515Y-111835815D01*
X158465740Y-112243579D01*
X158464643Y-112255596D01*
X158028801Y-114256513D01*
X158011351Y-114284492D01*
X157980121Y-114295077D01*
X154979487Y-114245885D01*
X154945214Y-114231107D01*
X154931292Y-114196479D01*
X154968949Y-109753087D01*
X154983297Y-109718858D01*
X155239378Y-109462777D01*
X155273114Y-109448435D01*
X156044162Y-109434157D01*
X156063676Y-109437820D01*
G37*
%TD.AperFunction*%
%TD*%
%TA.AperFunction,Conductor*%
%TO.N,Net-(J9-Pin_2)*%
G36*
X156804518Y-116697730D02*
G01*
X156837510Y-116711476D01*
X156852390Y-116743972D01*
X157011423Y-119576761D01*
X157011423Y-119576762D01*
X157011914Y-119585496D01*
X157638401Y-120241066D01*
X158739360Y-120312519D01*
X158771622Y-120327573D01*
X158785178Y-120360492D01*
X158803804Y-121347707D01*
X158797398Y-121372870D01*
X158779033Y-121391227D01*
X158753866Y-121397622D01*
X156730373Y-121358520D01*
X156710137Y-121353714D01*
X156693718Y-121340947D01*
X155844801Y-120324921D01*
X155433099Y-119832175D01*
X155421702Y-119800600D01*
X155431613Y-116718212D01*
X155438407Y-116693480D01*
X155456767Y-116675567D01*
X155481662Y-116669384D01*
X156804518Y-116697730D01*
G37*
%TD.AperFunction*%
%TD*%
%TA.AperFunction,Conductor*%
%TO.N,Net-(IC1-VBAT_1)*%
G36*
X136501840Y-122252570D02*
G01*
X136508555Y-122272265D01*
X136514900Y-122287585D01*
X136521793Y-122290440D01*
X137363046Y-122290440D01*
X137397694Y-122304792D01*
X137412046Y-122339440D01*
X137412046Y-122955693D01*
X137414900Y-122962585D01*
X137421793Y-122965440D01*
X137834260Y-122965440D01*
X137839036Y-122964969D01*
X137904854Y-122951877D01*
X137913605Y-122948252D01*
X137988274Y-122898360D01*
X137994966Y-122891668D01*
X138044858Y-122816999D01*
X138048483Y-122808248D01*
X138061575Y-122742430D01*
X138062046Y-122737654D01*
X138062046Y-122548596D01*
X138071170Y-122520120D01*
X138095144Y-122502248D01*
X138125040Y-122501637D01*
X138149724Y-122518513D01*
X138880278Y-123457795D01*
X138890597Y-123487298D01*
X138894741Y-123837538D01*
X138886648Y-123865098D01*
X138881315Y-123869501D01*
X138875000Y-123884747D01*
X138875000Y-124576000D01*
X138860648Y-124610648D01*
X138826000Y-124625000D01*
X137859747Y-124625000D01*
X137852854Y-124627854D01*
X137850000Y-124634747D01*
X137850000Y-124897221D01*
X137850468Y-124901978D01*
X137856340Y-124931500D01*
X137853938Y-124958847D01*
X137837207Y-124980610D01*
X137625782Y-125135234D01*
X137598241Y-125144663D01*
X137570211Y-125136805D01*
X137565715Y-125131404D01*
X137550253Y-125125000D01*
X136449748Y-125125000D01*
X136442855Y-125127854D01*
X136440001Y-125134747D01*
X136440001Y-125168766D01*
X136440301Y-125172588D01*
X136453861Y-125258210D01*
X136457407Y-125269120D01*
X136456143Y-125269530D01*
X136459971Y-125291550D01*
X136448065Y-125317826D01*
X136072240Y-125742671D01*
X136055829Y-125754807D01*
X136035898Y-125759204D01*
X135036021Y-125766520D01*
X135002879Y-125753939D01*
X134986895Y-125722297D01*
X134996436Y-125688156D01*
X135066251Y-125594895D01*
X135069577Y-125588806D01*
X135117528Y-125460243D01*
X135118925Y-125454330D01*
X135124858Y-125399142D01*
X135125000Y-125396508D01*
X135125000Y-125134747D01*
X135122145Y-125127854D01*
X135115253Y-125125000D01*
X132884747Y-125125000D01*
X132877854Y-125127854D01*
X132875000Y-125134747D01*
X132875000Y-125396508D01*
X132875141Y-125399142D01*
X132881074Y-125454330D01*
X132882471Y-125460243D01*
X132930422Y-125588806D01*
X132933748Y-125594896D01*
X133014847Y-125703230D01*
X133024410Y-125737134D01*
X133008758Y-125768691D01*
X132975980Y-125781594D01*
X132621021Y-125784192D01*
X132595933Y-125777495D01*
X132577790Y-125758920D01*
X132571685Y-125733683D01*
X132586347Y-125258210D01*
X132598464Y-124865253D01*
X132875000Y-124865253D01*
X132877854Y-124872145D01*
X132884747Y-124875000D01*
X133865253Y-124875000D01*
X133872145Y-124872145D01*
X133875000Y-124865253D01*
X134125000Y-124865253D01*
X134127854Y-124872145D01*
X134134747Y-124875000D01*
X135115253Y-124875000D01*
X135122145Y-124872145D01*
X135125000Y-124865253D01*
X136440000Y-124865253D01*
X136442854Y-124872145D01*
X136449747Y-124875000D01*
X136865253Y-124875000D01*
X136872145Y-124872145D01*
X136875000Y-124865253D01*
X137125000Y-124865253D01*
X137127854Y-124872145D01*
X137134747Y-124875000D01*
X137550252Y-124875000D01*
X137557144Y-124872145D01*
X137559999Y-124865253D01*
X137559999Y-124831234D01*
X137559698Y-124827411D01*
X137546137Y-124741786D01*
X137543785Y-124734546D01*
X137491198Y-124631341D01*
X137486722Y-124625180D01*
X137404819Y-124543277D01*
X137398658Y-124538801D01*
X137295453Y-124486214D01*
X137288212Y-124483862D01*
X137202589Y-124470300D01*
X137198767Y-124470000D01*
X137134747Y-124470000D01*
X137127854Y-124472854D01*
X137125000Y-124479747D01*
X137125000Y-124865253D01*
X136875000Y-124865253D01*
X136875000Y-124479748D01*
X136872145Y-124472855D01*
X136865253Y-124470001D01*
X136801234Y-124470001D01*
X136797411Y-124470301D01*
X136711786Y-124483862D01*
X136704546Y-124486214D01*
X136601341Y-124538801D01*
X136595180Y-124543277D01*
X136513277Y-124625180D01*
X136508801Y-124631341D01*
X136456214Y-124734546D01*
X136453862Y-124741787D01*
X136440300Y-124827410D01*
X136440000Y-124831233D01*
X136440000Y-124865253D01*
X135125000Y-124865253D01*
X135125000Y-124603492D01*
X135124858Y-124600857D01*
X135118925Y-124545669D01*
X135117528Y-124539756D01*
X135069577Y-124411193D01*
X135066251Y-124405103D01*
X135036419Y-124365253D01*
X137850000Y-124365253D01*
X137852854Y-124372145D01*
X137859747Y-124375000D01*
X138115253Y-124375000D01*
X138122145Y-124372145D01*
X138125000Y-124365253D01*
X138375000Y-124365253D01*
X138377854Y-124372145D01*
X138384747Y-124375000D01*
X138615253Y-124375000D01*
X138622145Y-124372145D01*
X138625000Y-124365253D01*
X138625000Y-123884747D01*
X138622145Y-123877854D01*
X138615253Y-123875000D01*
X138577786Y-123875000D01*
X138573019Y-123875469D01*
X138509559Y-123888092D01*
X138490441Y-123888092D01*
X138426980Y-123875469D01*
X138422214Y-123875000D01*
X138384747Y-123875000D01*
X138377854Y-123877854D01*
X138375000Y-123884747D01*
X138375000Y-124365253D01*
X138125000Y-124365253D01*
X138125000Y-123884747D01*
X138122145Y-123877854D01*
X138115253Y-123875000D01*
X138077786Y-123875000D01*
X138073009Y-123875470D01*
X138007191Y-123888562D01*
X137998440Y-123892187D01*
X137923771Y-123942079D01*
X137917079Y-123948771D01*
X137867187Y-124023440D01*
X137863562Y-124032191D01*
X137850470Y-124098009D01*
X137850000Y-124102786D01*
X137850000Y-124365253D01*
X135036419Y-124365253D01*
X134984288Y-124295615D01*
X134979384Y-124290711D01*
X134869896Y-124208748D01*
X134863806Y-124205422D01*
X134735243Y-124157471D01*
X134729330Y-124156074D01*
X134674142Y-124150141D01*
X134671508Y-124150000D01*
X134134747Y-124150000D01*
X134127854Y-124152854D01*
X134125000Y-124159747D01*
X134125000Y-124865253D01*
X133875000Y-124865253D01*
X133875000Y-124159747D01*
X133872145Y-124152854D01*
X133865253Y-124150000D01*
X133328492Y-124150000D01*
X133325857Y-124150141D01*
X133270669Y-124156074D01*
X133264756Y-124157471D01*
X133136193Y-124205422D01*
X133130103Y-124208748D01*
X133020615Y-124290711D01*
X133015711Y-124295615D01*
X132933748Y-124405103D01*
X132930422Y-124411193D01*
X132882471Y-124539756D01*
X132881074Y-124545669D01*
X132875141Y-124600857D01*
X132875000Y-124603492D01*
X132875000Y-124865253D01*
X132598464Y-124865253D01*
X132628693Y-123884963D01*
X132637240Y-123858792D01*
X132658551Y-123841360D01*
X135263298Y-122737654D01*
X136512046Y-122737654D01*
X136512516Y-122742430D01*
X136525608Y-122808248D01*
X136529233Y-122816999D01*
X136579125Y-122891668D01*
X136585817Y-122898360D01*
X136660486Y-122948252D01*
X136669237Y-122951877D01*
X136735055Y-122964969D01*
X136739832Y-122965440D01*
X137152299Y-122965440D01*
X137159191Y-122962585D01*
X137162046Y-122955693D01*
X137162046Y-122550187D01*
X137159191Y-122543294D01*
X137152299Y-122540440D01*
X136521793Y-122540440D01*
X136514900Y-122543294D01*
X136512046Y-122550187D01*
X136512046Y-122737654D01*
X135263298Y-122737654D01*
X136318724Y-122290440D01*
X136443929Y-122237387D01*
X136475473Y-122235106D01*
X136501840Y-122252570D01*
G37*
%TD.AperFunction*%
%TD*%
%TA.AperFunction,Conductor*%
%TO.N,5V_USB*%
G36*
X148976937Y-121803112D02*
G01*
X148931680Y-123628460D01*
X148931680Y-123628462D01*
X148931441Y-123638133D01*
X148938070Y-123645176D01*
X148938071Y-123645178D01*
X149146589Y-123866727D01*
X149174540Y-123896425D01*
X150891423Y-123881231D01*
X151088940Y-123638133D01*
X151106568Y-122112003D01*
X151113498Y-122087444D01*
X151131838Y-122069698D01*
X151156614Y-122063582D01*
X151995938Y-122081567D01*
X152030163Y-122096547D01*
X152043881Y-122131298D01*
X152015988Y-123972063D01*
X152006622Y-124000141D01*
X151544584Y-124635443D01*
X151526768Y-124650500D01*
X151504009Y-124655614D01*
X148409779Y-124595822D01*
X148387399Y-124589922D01*
X148370223Y-124574408D01*
X147906438Y-123893223D01*
X147897953Y-123866727D01*
X147893066Y-123645178D01*
X147852692Y-121814894D01*
X148976784Y-121799704D01*
X148976937Y-121803112D01*
G37*
%TD.AperFunction*%
%TD*%
%TA.AperFunction,Conductor*%
%TO.N,5V_USB*%
G36*
X147013256Y-117741891D02*
G01*
X147033318Y-117757258D01*
X148639283Y-118987351D01*
X148652114Y-119002087D01*
X148658168Y-119020666D01*
X148976633Y-121796313D01*
X148976784Y-121799704D01*
X147852692Y-121814894D01*
X147007347Y-120563068D01*
X145459879Y-120000000D01*
X145456044Y-119999861D01*
X145456041Y-119999861D01*
X143075090Y-119913930D01*
X143075088Y-119913930D01*
X143067065Y-119913641D01*
X143060503Y-119918264D01*
X143060500Y-119918265D01*
X142510405Y-120305832D01*
X142510403Y-120305834D01*
X142505640Y-120309190D01*
X142505584Y-120315018D01*
X142505584Y-120315020D01*
X142486557Y-122311871D01*
X142480000Y-123000000D01*
X142480099Y-123001142D01*
X142480100Y-123001160D01*
X142705234Y-125590287D01*
X142700309Y-125616317D01*
X142682554Y-125635979D01*
X142657160Y-125643526D01*
X141045104Y-125667952D01*
X141011126Y-125654963D01*
X140202821Y-124908835D01*
X140202820Y-124908834D01*
X140196141Y-124902669D01*
X140187050Y-124902563D01*
X139980947Y-124900166D01*
X139954293Y-124891910D01*
X139947492Y-124887365D01*
X139947488Y-124887363D01*
X139943477Y-124884683D01*
X139938743Y-124883741D01*
X139938740Y-124883740D01*
X139894650Y-124874970D01*
X139894643Y-124874969D01*
X139892284Y-124874500D01*
X139889874Y-124874500D01*
X139146668Y-124874500D01*
X139112330Y-124860456D01*
X139097676Y-124826375D01*
X139085504Y-124144823D01*
X139073730Y-123485494D01*
X139078571Y-123463369D01*
X139092844Y-123445785D01*
X140566171Y-122312457D01*
X140540652Y-119530851D01*
X140534346Y-119527927D01*
X139440253Y-119020666D01*
X139166192Y-118893601D01*
X139145210Y-118875050D01*
X139137817Y-118848038D01*
X139161523Y-117804988D01*
X139176201Y-117771118D01*
X139210348Y-117757102D01*
X146983302Y-117731792D01*
X147013256Y-117741891D01*
G37*
%TD.AperFunction*%
%TD*%
%TA.AperFunction,Conductor*%
%TO.N,GND*%
G36*
X163511009Y-121811605D02*
G01*
X163535441Y-121818473D01*
X163553161Y-121836646D01*
X163559412Y-121861246D01*
X163540261Y-123316677D01*
X163525609Y-123350982D01*
X163491054Y-123365032D01*
X157461922Y-123339040D01*
X157437333Y-123332300D01*
X157419458Y-123314120D01*
X157413137Y-123289420D01*
X157432150Y-121787393D01*
X157446928Y-121752940D01*
X157481734Y-121739017D01*
X163511009Y-121811605D01*
G37*
%TD.AperFunction*%
%TD*%
%TA.AperFunction,Conductor*%
%TO.N,5V_Board*%
G36*
X166544496Y-90795524D02*
G01*
X166594357Y-90806136D01*
X166635737Y-90835915D01*
X168471698Y-92846729D01*
X168492214Y-92877308D01*
X168502845Y-92912563D01*
X169229260Y-97927891D01*
X169230525Y-97947666D01*
X169117525Y-104953687D01*
X169108080Y-104999192D01*
X169082546Y-105038024D01*
X167672606Y-106491530D01*
X167672603Y-106491533D01*
X167665740Y-106498609D01*
X167664411Y-106508373D01*
X167664410Y-106508378D01*
X167021962Y-111229978D01*
X167021400Y-111234111D01*
X167021397Y-111238274D01*
X167021397Y-111238282D01*
X167021102Y-111736315D01*
X167008001Y-111791716D01*
X166971525Y-111835424D01*
X166919362Y-111858227D01*
X166862508Y-111855318D01*
X166753853Y-111823751D01*
X166742590Y-111823176D01*
X166740000Y-111834156D01*
X166740000Y-112372162D01*
X166739750Y-112378524D01*
X166739787Y-112378526D01*
X166739691Y-112380955D01*
X166739500Y-112383390D01*
X166739500Y-112385834D01*
X166739500Y-112385835D01*
X166739500Y-112879327D01*
X166739500Y-112879352D01*
X166739501Y-112881751D01*
X166739690Y-112884159D01*
X166739787Y-112886609D01*
X166739750Y-112886610D01*
X166740000Y-112892963D01*
X166740000Y-113430986D01*
X166742590Y-113441965D01*
X166753856Y-113441390D01*
X166879193Y-113404977D01*
X166879462Y-113405903D01*
X166916822Y-113397829D01*
X166964245Y-113406371D01*
X167004832Y-113432345D01*
X167020092Y-113446991D01*
X167020089Y-113453161D01*
X167231385Y-113444357D01*
X167262337Y-113448108D01*
X167262480Y-113447330D01*
X167268707Y-113448467D01*
X167274796Y-113450236D01*
X167310819Y-113453071D01*
X167709180Y-113453070D01*
X167721190Y-113452125D01*
X167769340Y-113457846D01*
X167811614Y-113481595D01*
X168056950Y-113691882D01*
X168086265Y-113728820D01*
X168099670Y-113774031D01*
X168127861Y-114064001D01*
X168115609Y-114130937D01*
X168069879Y-114181329D01*
X168004443Y-114200000D01*
X167266326Y-114200000D01*
X167253450Y-114203450D01*
X167250000Y-114216326D01*
X167250000Y-115666901D01*
X167000000Y-116000000D01*
X166958890Y-116050000D01*
X165441326Y-116050000D01*
X165428450Y-116053450D01*
X165425000Y-116066326D01*
X165425000Y-116944518D01*
X165425353Y-116951114D01*
X165430573Y-116999667D01*
X165434111Y-117014641D01*
X165478547Y-117133777D01*
X165486962Y-117149189D01*
X165562498Y-117250092D01*
X165574907Y-117262501D01*
X165675810Y-117338037D01*
X165698900Y-117350645D01*
X165739580Y-117386301D01*
X165761209Y-117435884D01*
X165759670Y-117489957D01*
X165735256Y-117538230D01*
X165555018Y-117757443D01*
X165555010Y-117757452D01*
X165553177Y-117759683D01*
X165551560Y-117762074D01*
X165551549Y-117762090D01*
X164227566Y-119720940D01*
X164175312Y-119764762D01*
X164107788Y-119774325D01*
X164067336Y-119756431D01*
X164040075Y-119750000D01*
X163748353Y-119750000D01*
X163690450Y-119734160D01*
X163690271Y-119734576D01*
X163687349Y-119733311D01*
X163685234Y-119732733D01*
X163683112Y-119731478D01*
X163683109Y-119731476D01*
X163676395Y-119727506D01*
X163653795Y-119720940D01*
X163527081Y-119684125D01*
X163527074Y-119684123D01*
X163520993Y-119682357D01*
X163514682Y-119681860D01*
X163514675Y-119681859D01*
X163487124Y-119679691D01*
X163487110Y-119679690D01*
X163484690Y-119679500D01*
X163015310Y-119679500D01*
X163012890Y-119679690D01*
X163012875Y-119679691D01*
X162985324Y-119681859D01*
X162985315Y-119681860D01*
X162979007Y-119682357D01*
X162972927Y-119684123D01*
X162972918Y-119684125D01*
X162831097Y-119725329D01*
X162831094Y-119725330D01*
X162823605Y-119727506D01*
X162816893Y-119731475D01*
X162816887Y-119731478D01*
X162814766Y-119732733D01*
X162812650Y-119733311D01*
X162809729Y-119734576D01*
X162809549Y-119734160D01*
X162751647Y-119750000D01*
X162459925Y-119750000D01*
X162448945Y-119752590D01*
X162449520Y-119763857D01*
X162455429Y-119784194D01*
X162455276Y-119853905D01*
X162417537Y-119912517D01*
X162354139Y-119941506D01*
X160893636Y-120153198D01*
X160862595Y-120153770D01*
X160826162Y-120149853D01*
X160826150Y-120149852D01*
X160822873Y-120149500D01*
X160819563Y-120149500D01*
X160707269Y-120149500D01*
X160684035Y-120147304D01*
X160683196Y-120147143D01*
X160683188Y-120147142D01*
X160675537Y-120145683D01*
X160667757Y-120146172D01*
X160667752Y-120146172D01*
X160618751Y-120149255D01*
X160610967Y-120149500D01*
X160450439Y-120149500D01*
X160450420Y-120149500D01*
X160447128Y-120149501D01*
X160443855Y-120149852D01*
X160443833Y-120149854D01*
X160395906Y-120155006D01*
X160369403Y-120155006D01*
X160326121Y-120150353D01*
X160319518Y-120150000D01*
X160308867Y-120150000D01*
X160260814Y-120140311D01*
X160220271Y-120112757D01*
X160193574Y-120071645D01*
X160190356Y-120063517D01*
X160187486Y-120056268D01*
X160161808Y-120020925D01*
X160155401Y-120011171D01*
X160137142Y-119980296D01*
X160137141Y-119980294D01*
X160133170Y-119973580D01*
X160119005Y-119959415D01*
X160106370Y-119944622D01*
X160094594Y-119928413D01*
X160088583Y-119923440D01*
X160088581Y-119923438D01*
X160060941Y-119900573D01*
X160052300Y-119892710D01*
X159940327Y-119780737D01*
X159913866Y-119741508D01*
X159904027Y-119695228D01*
X159896198Y-119247409D01*
X162448945Y-119247409D01*
X162459925Y-119250000D01*
X162983674Y-119250000D01*
X162996549Y-119246549D01*
X163000000Y-119233674D01*
X163500000Y-119233674D01*
X163503450Y-119246549D01*
X163516326Y-119250000D01*
X164040075Y-119250000D01*
X164051054Y-119247409D01*
X164050479Y-119236142D01*
X164014207Y-119111293D01*
X164008061Y-119097091D01*
X163933691Y-118971339D01*
X163924200Y-118959103D01*
X163820896Y-118855799D01*
X163808660Y-118846308D01*
X163682909Y-118771939D01*
X163668702Y-118765791D01*
X163527002Y-118724623D01*
X163516415Y-118722689D01*
X163503706Y-118725217D01*
X163500000Y-118738359D01*
X163500000Y-119233674D01*
X163000000Y-119233674D01*
X163000000Y-118738363D01*
X162996293Y-118725218D01*
X162983585Y-118722690D01*
X162972994Y-118724624D01*
X162831297Y-118765791D01*
X162817090Y-118771939D01*
X162691339Y-118846308D01*
X162679103Y-118855799D01*
X162575799Y-118959103D01*
X162566308Y-118971339D01*
X162491938Y-119097091D01*
X162485792Y-119111293D01*
X162449520Y-119236142D01*
X162448945Y-119247409D01*
X159896198Y-119247409D01*
X159849334Y-116566928D01*
X159151626Y-116033387D01*
X158874299Y-115821313D01*
X158838092Y-115777006D01*
X158825634Y-115721162D01*
X158828134Y-115533674D01*
X165425000Y-115533674D01*
X165428450Y-115546549D01*
X165441326Y-115550000D01*
X166733674Y-115550000D01*
X166746549Y-115546549D01*
X166750000Y-115533674D01*
X166750000Y-114216326D01*
X166746549Y-114203450D01*
X166733674Y-114200000D01*
X165880482Y-114200000D01*
X165873885Y-114200353D01*
X165825332Y-114205573D01*
X165810358Y-114209111D01*
X165691222Y-114253547D01*
X165675810Y-114261962D01*
X165574907Y-114337498D01*
X165562498Y-114349907D01*
X165486962Y-114450810D01*
X165478547Y-114466222D01*
X165434111Y-114585358D01*
X165430573Y-114600332D01*
X165425353Y-114648885D01*
X165425000Y-114655482D01*
X165425000Y-115533674D01*
X158828134Y-115533674D01*
X158839895Y-114651573D01*
X158855771Y-114592502D01*
X158897955Y-114548206D01*
X158956181Y-114529466D01*
X161814760Y-114351554D01*
X163275445Y-112899669D01*
X165721414Y-112899669D01*
X165722335Y-112911379D01*
X165724601Y-112923783D01*
X165765417Y-113064271D01*
X165771565Y-113078478D01*
X165845291Y-113203142D01*
X165854782Y-113215378D01*
X165957192Y-113317788D01*
X165969428Y-113327279D01*
X166094092Y-113401005D01*
X166108299Y-113407153D01*
X166226143Y-113441390D01*
X166237409Y-113441965D01*
X166240000Y-113430986D01*
X166240000Y-112898897D01*
X166236549Y-112886021D01*
X166223674Y-112882571D01*
X165737221Y-112882571D01*
X165724078Y-112886277D01*
X165721414Y-112899669D01*
X163275445Y-112899669D01*
X163482132Y-112694227D01*
X163596764Y-112365472D01*
X165721414Y-112365472D01*
X165724078Y-112378864D01*
X165737221Y-112382571D01*
X166223674Y-112382571D01*
X166236549Y-112379120D01*
X166240000Y-112366245D01*
X166240000Y-111834156D01*
X166237409Y-111823176D01*
X166226143Y-111823751D01*
X166108299Y-111857988D01*
X166094092Y-111864136D01*
X165969428Y-111937862D01*
X165957192Y-111947353D01*
X165854782Y-112049763D01*
X165845291Y-112061999D01*
X165771565Y-112186663D01*
X165765417Y-112200870D01*
X165724601Y-112341358D01*
X165722335Y-112353762D01*
X165721414Y-112365472D01*
X163596764Y-112365472D01*
X166108390Y-105162315D01*
X166118098Y-104236551D01*
X166138306Y-104169995D01*
X166191172Y-104124790D01*
X166260060Y-104115162D01*
X166323294Y-104144140D01*
X166354573Y-104171243D01*
X166364149Y-104178062D01*
X166535846Y-104277191D01*
X166546549Y-104282079D01*
X166733904Y-104346924D01*
X166739488Y-104348279D01*
X166747681Y-104347693D01*
X166750000Y-104337036D01*
X166750000Y-104332181D01*
X167250000Y-104332181D01*
X167252505Y-104343072D01*
X167263679Y-104342939D01*
X167355670Y-104320622D01*
X167366788Y-104316774D01*
X167547121Y-104234419D01*
X167557319Y-104228531D01*
X167718806Y-104113536D01*
X167727703Y-104105827D01*
X167864517Y-103962341D01*
X167871784Y-103953100D01*
X167978971Y-103786314D01*
X167984363Y-103775856D01*
X168058049Y-103591798D01*
X168061362Y-103580515D01*
X168098882Y-103385834D01*
X168100000Y-103374134D01*
X168100000Y-103266326D01*
X168096549Y-103253450D01*
X168083674Y-103250000D01*
X167266326Y-103250000D01*
X167253450Y-103253450D01*
X167250000Y-103266326D01*
X167250000Y-104332181D01*
X166750000Y-104332181D01*
X166750000Y-102733674D01*
X167250000Y-102733674D01*
X167253450Y-102746549D01*
X167266326Y-102750000D01*
X168083674Y-102750000D01*
X168096549Y-102746549D01*
X168100000Y-102733674D01*
X168100000Y-102675550D01*
X168099719Y-102669660D01*
X168085596Y-102521757D01*
X168083369Y-102510206D01*
X168027512Y-102319973D01*
X168023146Y-102309067D01*
X167932295Y-102132840D01*
X167925935Y-102122944D01*
X167803382Y-101967105D01*
X167795264Y-101958591D01*
X167645427Y-101828756D01*
X167635850Y-101821937D01*
X167464153Y-101722808D01*
X167453450Y-101717920D01*
X167266095Y-101653075D01*
X167260511Y-101651720D01*
X167252318Y-101652306D01*
X167250000Y-101662964D01*
X167250000Y-102733674D01*
X166750000Y-102733674D01*
X166750000Y-101667819D01*
X166747494Y-101656927D01*
X166736320Y-101657060D01*
X166644329Y-101679377D01*
X166633211Y-101683225D01*
X166452878Y-101765580D01*
X166442687Y-101771464D01*
X166340176Y-101844462D01*
X166276770Y-101867161D01*
X166210852Y-101853370D01*
X166161863Y-101807157D01*
X166144257Y-101742159D01*
X166180507Y-98285504D01*
X166197604Y-98223964D01*
X166243064Y-98179096D01*
X166304825Y-98162807D01*
X166366500Y-98179420D01*
X166535846Y-98277191D01*
X166546549Y-98282079D01*
X166733904Y-98346924D01*
X166739488Y-98348279D01*
X166747681Y-98347693D01*
X166750000Y-98337036D01*
X166750000Y-98332181D01*
X167250000Y-98332181D01*
X167252505Y-98343072D01*
X167263679Y-98342939D01*
X167355670Y-98320622D01*
X167366788Y-98316774D01*
X167547121Y-98234419D01*
X167557319Y-98228531D01*
X167718806Y-98113536D01*
X167727703Y-98105827D01*
X167864517Y-97962341D01*
X167871784Y-97953100D01*
X167978971Y-97786314D01*
X167984363Y-97775856D01*
X168058049Y-97591798D01*
X168061362Y-97580515D01*
X168098882Y-97385834D01*
X168100000Y-97374134D01*
X168100000Y-97266326D01*
X168096549Y-97253450D01*
X168083674Y-97250000D01*
X167266326Y-97250000D01*
X167253450Y-97253450D01*
X167250000Y-97266326D01*
X167250000Y-98332181D01*
X166750000Y-98332181D01*
X166750000Y-96733674D01*
X167250000Y-96733674D01*
X167253450Y-96746549D01*
X167266326Y-96750000D01*
X168083674Y-96750000D01*
X168096549Y-96746549D01*
X168100000Y-96733674D01*
X168100000Y-96675550D01*
X168099719Y-96669660D01*
X168085596Y-96521757D01*
X168083369Y-96510206D01*
X168027512Y-96319973D01*
X168023146Y-96309067D01*
X167932295Y-96132840D01*
X167925935Y-96122944D01*
X167803382Y-95967105D01*
X167795264Y-95958591D01*
X167645427Y-95828756D01*
X167635850Y-95821937D01*
X167464153Y-95722808D01*
X167453450Y-95717920D01*
X167266095Y-95653075D01*
X167260511Y-95651720D01*
X167252318Y-95652306D01*
X167250000Y-95662964D01*
X167250000Y-96733674D01*
X166750000Y-96733674D01*
X166750000Y-95667819D01*
X166747494Y-95656927D01*
X166736320Y-95657060D01*
X166644329Y-95679377D01*
X166633211Y-95683225D01*
X166452878Y-95765580D01*
X166442680Y-95771468D01*
X166281193Y-95886463D01*
X166272296Y-95894172D01*
X166229193Y-95939377D01*
X166170507Y-95973854D01*
X166102464Y-95972161D01*
X166045564Y-95934808D01*
X166016954Y-95873052D01*
X165943593Y-95406054D01*
X165886074Y-95374680D01*
X164466959Y-94600616D01*
X164466957Y-94600615D01*
X164451998Y-94592456D01*
X164434975Y-94593257D01*
X162582551Y-94680461D01*
X162582545Y-94680462D01*
X162572543Y-94680933D01*
X162564834Y-94687323D01*
X162564829Y-94687327D01*
X160571480Y-96339937D01*
X160514598Y-96366463D01*
X160452012Y-96361737D01*
X158169937Y-95576932D01*
X158125087Y-95549789D01*
X158095461Y-95506539D01*
X158086354Y-95454912D01*
X158089319Y-95377722D01*
X158108146Y-95316650D01*
X158154886Y-95273065D01*
X158217123Y-95258543D01*
X158278325Y-95276943D01*
X158324733Y-95305567D01*
X158337732Y-95311629D01*
X158490874Y-95362375D01*
X158504041Y-95365194D01*
X158596890Y-95374680D01*
X158603168Y-95375000D01*
X158733674Y-95375000D01*
X158746549Y-95371549D01*
X158750000Y-95358674D01*
X158750000Y-95358673D01*
X159250000Y-95358673D01*
X159253450Y-95371548D01*
X159266326Y-95374999D01*
X159396829Y-95374999D01*
X159403111Y-95374678D01*
X159495959Y-95365194D01*
X159509122Y-95362376D01*
X159662267Y-95311629D01*
X159675266Y-95305567D01*
X159812194Y-95221109D01*
X159823455Y-95212205D01*
X159937205Y-95098455D01*
X159946109Y-95087194D01*
X160030567Y-94950266D01*
X160036629Y-94937267D01*
X160087375Y-94784125D01*
X160090194Y-94770958D01*
X160099680Y-94678109D01*
X160100000Y-94671832D01*
X160100000Y-94266326D01*
X160096549Y-94253450D01*
X160083674Y-94250000D01*
X159266326Y-94250000D01*
X159253450Y-94253450D01*
X159250000Y-94266326D01*
X159250000Y-95358673D01*
X158750000Y-95358673D01*
X158750000Y-93733674D01*
X159250000Y-93733674D01*
X159253450Y-93746549D01*
X159266326Y-93750000D01*
X160083673Y-93750000D01*
X160096548Y-93746549D01*
X160099999Y-93733674D01*
X160099999Y-93328171D01*
X160099678Y-93321888D01*
X160090194Y-93229040D01*
X160087376Y-93215877D01*
X160036629Y-93062732D01*
X160030567Y-93049733D01*
X159946109Y-92912805D01*
X159937205Y-92901544D01*
X159823455Y-92787794D01*
X159812194Y-92778890D01*
X159675266Y-92694432D01*
X159662267Y-92688370D01*
X159509125Y-92637624D01*
X159495958Y-92634805D01*
X159403109Y-92625319D01*
X159396832Y-92625000D01*
X159266326Y-92625000D01*
X159253450Y-92628450D01*
X159250000Y-92641326D01*
X159250000Y-93733674D01*
X158750000Y-93733674D01*
X158750000Y-92641327D01*
X158746549Y-92628451D01*
X158733674Y-92625001D01*
X158603171Y-92625001D01*
X158596888Y-92625321D01*
X158504040Y-92634805D01*
X158490877Y-92637623D01*
X158360527Y-92680817D01*
X158301484Y-92685481D01*
X158247013Y-92662229D01*
X158209541Y-92616365D01*
X158197614Y-92558355D01*
X158224742Y-91852125D01*
X158246376Y-91786774D01*
X158299532Y-91743032D01*
X160509267Y-90789813D01*
X160558706Y-90779672D01*
X166544496Y-90795524D01*
G37*
%TD.AperFunction*%
%TD*%
%TA.AperFunction,Conductor*%
%TO.N,3.3V_Board*%
G36*
X157906315Y-102622396D02*
G01*
X157937262Y-102638059D01*
X157950087Y-102670287D01*
X157979723Y-104418846D01*
X157979724Y-104418865D01*
X157979741Y-104419859D01*
X157979840Y-104420849D01*
X157979842Y-104420871D01*
X158407866Y-108671243D01*
X158403294Y-108697344D01*
X158385802Y-108717247D01*
X158360505Y-108725133D01*
X156593302Y-108775338D01*
X156593290Y-108775338D01*
X156592055Y-108775374D01*
X156590836Y-108775533D01*
X156590819Y-108775535D01*
X155036826Y-108979095D01*
X155009440Y-108974771D01*
X154988784Y-108956277D01*
X154981472Y-108929535D01*
X155112139Y-102376571D01*
X155119941Y-102351006D01*
X155140001Y-102333339D01*
X155166349Y-102328829D01*
X157906315Y-102622396D01*
G37*
%TD.AperFunction*%
%TD*%
M02*
