%TF.GenerationSoftware,KiCad,Pcbnew,(7.0.0)*%
%TF.CreationDate,2023-09-18T04:22:57-04:00*%
%TF.ProjectId,Rangefinder,52616e67-6566-4696-9e64-65722e6b6963,rev?*%
%TF.SameCoordinates,Original*%
%TF.FileFunction,Soldermask,Top*%
%TF.FilePolarity,Negative*%
%FSLAX46Y46*%
G04 Gerber Fmt 4.6, Leading zero omitted, Abs format (unit mm)*
G04 Created by KiCad (PCBNEW (7.0.0)) date 2023-09-18 04:22:57*
%MOMM*%
%LPD*%
G01*
G04 APERTURE LIST*
G04 Aperture macros list*
%AMRoundRect*
0 Rectangle with rounded corners*
0 $1 Rounding radius*
0 $2 $3 $4 $5 $6 $7 $8 $9 X,Y pos of 4 corners*
0 Add a 4 corners polygon primitive as box body*
4,1,4,$2,$3,$4,$5,$6,$7,$8,$9,$2,$3,0*
0 Add four circle primitives for the rounded corners*
1,1,$1+$1,$2,$3*
1,1,$1+$1,$4,$5*
1,1,$1+$1,$6,$7*
1,1,$1+$1,$8,$9*
0 Add four rect primitives between the rounded corners*
20,1,$1+$1,$2,$3,$4,$5,0*
20,1,$1+$1,$4,$5,$6,$7,0*
20,1,$1+$1,$6,$7,$8,$9,0*
20,1,$1+$1,$8,$9,$2,$3,0*%
G04 Aperture macros list end*
%ADD10RoundRect,0.140000X-0.140000X-0.170000X0.140000X-0.170000X0.140000X0.170000X-0.140000X0.170000X0*%
%ADD11R,0.600000X1.050000*%
%ADD12RoundRect,0.135000X-0.135000X-0.185000X0.135000X-0.185000X0.135000X0.185000X-0.135000X0.185000X0*%
%ADD13RoundRect,0.250000X0.350000X0.625000X-0.350000X0.625000X-0.350000X-0.625000X0.350000X-0.625000X0*%
%ADD14O,1.200000X1.750000*%
%ADD15RoundRect,0.135000X0.185000X-0.135000X0.185000X0.135000X-0.185000X0.135000X-0.185000X-0.135000X0*%
%ADD16RoundRect,0.140000X0.170000X-0.140000X0.170000X0.140000X-0.170000X0.140000X-0.170000X-0.140000X0*%
%ADD17R,0.300000X0.750000*%
%ADD18R,1.750000X1.900000*%
%ADD19RoundRect,0.140000X0.140000X0.170000X-0.140000X0.170000X-0.140000X-0.170000X0.140000X-0.170000X0*%
%ADD20RoundRect,0.135000X0.135000X0.185000X-0.135000X0.185000X-0.135000X-0.185000X0.135000X-0.185000X0*%
%ADD21R,2.150000X2.200000*%
%ADD22RoundRect,0.140000X-0.170000X0.140000X-0.170000X-0.140000X0.170000X-0.140000X0.170000X0.140000X0*%
%ADD23RoundRect,0.075000X-0.700000X-0.075000X0.700000X-0.075000X0.700000X0.075000X-0.700000X0.075000X0*%
%ADD24RoundRect,0.075000X-0.075000X-0.700000X0.075000X-0.700000X0.075000X0.700000X-0.075000X0.700000X0*%
%ADD25RoundRect,0.250000X-0.350000X-0.625000X0.350000X-0.625000X0.350000X0.625000X-0.350000X0.625000X0*%
%ADD26RoundRect,0.250000X-0.625000X0.350000X-0.625000X-0.350000X0.625000X-0.350000X0.625000X0.350000X0*%
%ADD27O,1.750000X1.200000*%
%ADD28R,0.700000X1.200000*%
%ADD29R,0.760000X1.200000*%
%ADD30R,0.800000X1.200000*%
%ADD31C,2.010000*%
%ADD32R,1.050000X0.600000*%
%ADD33R,0.950000X0.900000*%
%ADD34R,0.800000X2.700000*%
%ADD35RoundRect,0.070000X-0.140000X0.140000X-0.140000X-0.140000X0.140000X-0.140000X0.140000X0.140000X0*%
%ADD36O,0.420000X0.990000*%
%ADD37C,0.600000*%
%ADD38R,1.050000X0.680000*%
%ADD39R,0.500000X0.260000*%
%ADD40R,0.700000X0.280000*%
%ADD41R,2.400000X1.650000*%
%ADD42RoundRect,0.218750X-0.381250X0.218750X-0.381250X-0.218750X0.381250X-0.218750X0.381250X0.218750X0*%
%ADD43RoundRect,0.135000X-0.185000X0.135000X-0.185000X-0.135000X0.185000X-0.135000X0.185000X0.135000X0*%
%ADD44R,0.800000X0.250000*%
%ADD45R,1.100000X0.250000*%
%ADD46R,0.500000X0.250000*%
%ADD47R,0.250000X0.700000*%
%ADD48R,0.250000X1.100000*%
%ADD49R,0.600000X1.950000*%
G04 APERTURE END LIST*
D10*
%TO.C,C5*%
X143520000Y-115000000D03*
X144480000Y-115000000D03*
%TD*%
D11*
%TO.C,Q1*%
X151049999Y-96099999D03*
X152949999Y-96099999D03*
X151999999Y-93899999D03*
%TD*%
D12*
%TO.C,R1*%
X149463157Y-120153463D03*
X150483157Y-120153463D03*
%TD*%
D13*
%TO.C,J5*%
X159000000Y-94000000D03*
D14*
X156999999Y-93999999D03*
%TD*%
D15*
%TO.C,R9*%
X162470505Y-110494308D03*
X162470505Y-109474308D03*
%TD*%
D16*
%TO.C,C2*%
X139595765Y-103170126D03*
X139595765Y-102210126D03*
%TD*%
%TO.C,C3*%
X154508097Y-103685388D03*
X154508097Y-102725388D03*
%TD*%
D17*
%TO.C,IC1*%
X139749999Y-124499999D03*
X139249999Y-124499999D03*
X138749999Y-124499999D03*
X138249999Y-124499999D03*
X138249999Y-127499999D03*
X138749999Y-127499999D03*
X139249999Y-127499999D03*
X139749999Y-127499999D03*
D18*
X138999999Y-125999999D03*
%TD*%
D19*
%TO.C,C9*%
X142960000Y-123000000D03*
X142000000Y-123000000D03*
%TD*%
D12*
%TO.C,R2*%
X152490000Y-120146374D03*
X153510000Y-120146374D03*
%TD*%
D20*
%TO.C,R11*%
X160979636Y-113478667D03*
X159959636Y-113478667D03*
%TD*%
D19*
%TO.C,C10*%
X160490000Y-128000000D03*
X159530000Y-128000000D03*
%TD*%
D21*
%TO.C,D3*%
X166999999Y-115799999D03*
X166999999Y-120199999D03*
%TD*%
D19*
%TO.C,C8*%
X142960000Y-122000000D03*
X142000000Y-122000000D03*
%TD*%
D22*
%TO.C,C12*%
X163250000Y-119500000D03*
X163250000Y-120460000D03*
%TD*%
D23*
%TO.C,STM32F411*%
X141325000Y-103250000D03*
X141325000Y-103750000D03*
X141325000Y-104250000D03*
X141325000Y-104750000D03*
X141325000Y-105250000D03*
X141325000Y-105750000D03*
X141325000Y-106250000D03*
X141325000Y-106750000D03*
X141325000Y-107250000D03*
X141325000Y-107750000D03*
X141325000Y-108250000D03*
X141325000Y-108750000D03*
X141325000Y-109250000D03*
X141325000Y-109750000D03*
X141325000Y-110250000D03*
X141325000Y-110750000D03*
D24*
X143250000Y-112675000D03*
X143750000Y-112675000D03*
X144250000Y-112675000D03*
X144750000Y-112675000D03*
X145250000Y-112675000D03*
X145750000Y-112675000D03*
X146250000Y-112675000D03*
X146750000Y-112675000D03*
X147250000Y-112675000D03*
X147750000Y-112675000D03*
X148250000Y-112675000D03*
X148750000Y-112675000D03*
X149250000Y-112675000D03*
X149750000Y-112675000D03*
X150250000Y-112675000D03*
X150750000Y-112675000D03*
D23*
X152675000Y-110750000D03*
X152675000Y-110250000D03*
X152675000Y-109750000D03*
X152675000Y-109250000D03*
X152675000Y-108750000D03*
X152675000Y-108250000D03*
X152675000Y-107750000D03*
X152675000Y-107250000D03*
X152675000Y-106750000D03*
X152675000Y-106250000D03*
X152675000Y-105750000D03*
X152675000Y-105250000D03*
X152675000Y-104750000D03*
X152675000Y-104250000D03*
X152675000Y-103750000D03*
X152675000Y-103250000D03*
D24*
X150750000Y-101325000D03*
X150250000Y-101325000D03*
X149750000Y-101325000D03*
X149250000Y-101325000D03*
X148750000Y-101325000D03*
X148250000Y-101325000D03*
X147750000Y-101325000D03*
X147250000Y-101325000D03*
X146750000Y-101325000D03*
X146250000Y-101325000D03*
X145750000Y-101325000D03*
X145250000Y-101325000D03*
X144750000Y-101325000D03*
X144250000Y-101325000D03*
X143750000Y-101325000D03*
X143250000Y-101325000D03*
%TD*%
D20*
%TO.C,R8*%
X139443993Y-118438713D03*
X138423993Y-118438713D03*
%TD*%
%TO.C,R13*%
X167510000Y-112632571D03*
X166490000Y-112632571D03*
%TD*%
D19*
%TO.C,C14*%
X158798281Y-113486453D03*
X157838281Y-113486453D03*
%TD*%
D13*
%TO.C,J6*%
X146000000Y-94000000D03*
D14*
X143999999Y-93999999D03*
X141999999Y-93999999D03*
X139999999Y-93999999D03*
%TD*%
D16*
%TO.C,C13*%
X155470107Y-109774687D03*
X155470107Y-108814687D03*
%TD*%
D25*
%TO.C,J10*%
X165000000Y-103000000D03*
D14*
X166999999Y-102999999D03*
%TD*%
D10*
%TO.C,C6*%
X150520000Y-115000000D03*
X151480000Y-115000000D03*
%TD*%
D12*
%TO.C,R5*%
X142000000Y-121000000D03*
X143020000Y-121000000D03*
%TD*%
D26*
%TO.C,J8*%
X134000000Y-118000000D03*
D27*
X133999999Y-119999999D03*
%TD*%
D16*
%TO.C,C7*%
X137000000Y-125960000D03*
X137000000Y-125000000D03*
%TD*%
D20*
%TO.C,R10*%
X158510000Y-105000000D03*
X157490000Y-105000000D03*
%TD*%
D22*
%TO.C,C11*%
X162293743Y-121330328D03*
X162293743Y-122290328D03*
%TD*%
D20*
%TO.C,R4*%
X142510000Y-129000000D03*
X141490000Y-129000000D03*
%TD*%
D25*
%TO.C,J4*%
X165000000Y-97000000D03*
D14*
X166999999Y-96999999D03*
%TD*%
D28*
%TO.C,J1*%
X149499999Y-122919999D03*
D29*
X151519999Y-122919999D03*
D30*
X152749999Y-122919999D03*
D28*
X150499999Y-122919999D03*
D29*
X148479999Y-122919999D03*
D30*
X147249999Y-122919999D03*
D31*
X145680000Y-123000000D03*
X145680000Y-126800000D03*
X154320000Y-126800000D03*
X154320000Y-123000000D03*
%TD*%
D26*
%TO.C,J9*%
X167000000Y-125000000D03*
D27*
X166999999Y-126999999D03*
%TD*%
D32*
%TO.C,Q2*%
X137287045Y-120515439D03*
X137287045Y-122415439D03*
X139487045Y-121465439D03*
%TD*%
D33*
%TO.C,LED2*%
X160999999Y-102999999D03*
X160999999Y-101499999D03*
%TD*%
D19*
%TO.C,C4*%
X144000000Y-99000000D03*
X143040000Y-99000000D03*
%TD*%
D26*
%TO.C,J11*%
X134000000Y-111000000D03*
D27*
X133999999Y-112999999D03*
%TD*%
D20*
%TO.C,R3*%
X139527612Y-128982987D03*
X138507612Y-128982987D03*
%TD*%
D34*
%TO.C,L3*%
X156229984Y-118395034D03*
X158429984Y-118395034D03*
%TD*%
D20*
%TO.C,R12*%
X158510000Y-103414193D03*
X157490000Y-103414193D03*
%TD*%
D16*
%TO.C,C1*%
X139000000Y-109000000D03*
X139000000Y-108040000D03*
%TD*%
D35*
%TO.C,U2*%
X160635000Y-120790000D03*
D36*
X160634999Y-121074999D03*
D35*
X160135000Y-120790000D03*
D36*
X160134999Y-121074999D03*
D35*
X159635000Y-120790000D03*
D36*
X159634999Y-121074999D03*
D35*
X159135000Y-120790000D03*
D36*
X159134999Y-121074999D03*
D35*
X158635000Y-120790000D03*
D36*
X158634999Y-121074999D03*
X158634999Y-124024999D03*
D35*
X158635000Y-124310000D03*
D36*
X159134999Y-124024999D03*
D35*
X159135000Y-124310000D03*
D36*
X159634999Y-124024999D03*
D35*
X159635000Y-124310000D03*
D36*
X160134999Y-124024999D03*
D35*
X160135000Y-124310000D03*
D36*
X160634999Y-124024999D03*
D35*
X160635000Y-124310000D03*
D37*
X160385000Y-122050000D03*
X158885000Y-122050000D03*
D38*
X160269999Y-122099999D03*
X158999999Y-122099999D03*
D39*
X161264999Y-122299999D03*
D40*
X161184999Y-122299999D03*
X158084999Y-122299999D03*
D39*
X158004999Y-122299999D03*
D37*
X159635000Y-122550000D03*
D41*
X159634999Y-122549999D03*
D39*
X161264999Y-122799999D03*
D40*
X161184999Y-122799999D03*
X158084999Y-122799999D03*
D39*
X158004999Y-122799999D03*
D38*
X160269999Y-122999999D03*
X158999999Y-122999999D03*
D37*
X160385000Y-123050000D03*
X158885000Y-123050000D03*
%TD*%
D33*
%TO.C,LED3*%
X168526961Y-109170502D03*
X168526961Y-110670502D03*
%TD*%
D42*
%TO.C,L1*%
X138931486Y-104444504D03*
X138931486Y-106569504D03*
%TD*%
D33*
%TO.C,LED1*%
X141999999Y-126749999D03*
X141999999Y-125249999D03*
%TD*%
D10*
%TO.C,C15*%
X148520000Y-115000000D03*
X149480000Y-115000000D03*
%TD*%
D43*
%TO.C,R7*%
X158000000Y-126490000D03*
X158000000Y-127510000D03*
%TD*%
D26*
%TO.C,J3*%
X134000000Y-98000000D03*
D27*
X133999999Y-99999999D03*
X133999999Y-101999999D03*
X133999999Y-103999999D03*
X133999999Y-105999999D03*
%TD*%
D44*
%TO.C,IC2*%
X160399999Y-110549999D03*
D45*
X160249999Y-109899999D03*
X160249999Y-109249999D03*
D46*
X160549999Y-108599999D03*
X160549999Y-107749999D03*
X160549999Y-106899999D03*
X157449999Y-106899999D03*
X157449999Y-107749999D03*
X157449999Y-108599999D03*
D45*
X157749999Y-109249999D03*
X157749999Y-109899999D03*
D44*
X157599999Y-110549999D03*
D47*
X157749999Y-111449999D03*
X158249999Y-111449999D03*
D48*
X158749999Y-111249999D03*
X159249999Y-111249999D03*
D47*
X159749999Y-111449999D03*
X160249999Y-111449999D03*
D49*
X159999999Y-107749999D03*
X157999999Y-107749999D03*
%TD*%
D26*
%TO.C,J7*%
X134000000Y-125000000D03*
D27*
X133999999Y-126999999D03*
%TD*%
D20*
%TO.C,R6*%
X160510000Y-126000000D03*
X159490000Y-126000000D03*
%TD*%
M02*
