M48
; DRILL file {KiCad (7.0.0)} date Mon Sep 18 04:23:14 2023
; FORMAT={-:-/ absolute / metric / decimal}
; #@! TF.CreationDate,2023-09-18T04:23:14-04:00
; #@! TF.GenerationSoftware,Kicad,Pcbnew,(7.0.0)
; #@! TF.FileFunction,Plated,1,2,PTH
FMAT,2
METRIC
; #@! TA.AperFunction,Plated,PTH,ComponentDrill
T1C0.300
; #@! TA.AperFunction,Plated,PTH,ViaDrill
T2C0.400
; #@! TA.AperFunction,Plated,PTH,ComponentDrill
T3C0.750
; #@! TA.AperFunction,Plated,PTH,ComponentDrill
T4C1.340
; #@! TA.AperFunction,Plated,PTH,ViaDrill
T5C3.000
%
G90
G05
T1
X158.885Y-122.05
X158.885Y-123.05
X159.635Y-122.55
X160.385Y-122.05
X160.385Y-123.05
T2
X136.0Y-99.0
X136.0Y-103.0
X136.0Y-106.0
X136.0Y-108.0
X136.282Y-101.859
X136.785Y-110.392
X137.0Y-127.0
X137.0Y-129.0
X140.0Y-101.0
X141.0Y-128.0
X142.0Y-115.0
X142.851Y-105.012
X142.952Y-103.002
X143.0Y-104.0
X143.0Y-106.0
X143.0Y-108.0
X144.0Y-125.0
X144.851Y-96.115
X145.0Y-99.0
X145.0Y-103.0
X145.0Y-111.0
X145.073Y-110.003
X145.808Y-107.525
X147.0Y-105.0
X148.0Y-126.0
X150.0Y-96.0
X150.0Y-116.0
X151.536Y-119.056
X152.0Y-126.0
X154.354Y-104.805
X154.981Y-101.22
X155.0Y-97.0
X155.575Y-111.845
X155.635Y-113.425
X158.0Y-125.0
X158.0Y-129.0
X159.993Y-125.049
X160.0Y-105.0
X162.0Y-112.0
X162.0Y-120.0
X162.0Y-125.0
X163.0Y-108.0
X169.0Y-107.0
T3
X134.0Y-98.0
X134.0Y-100.0
X134.0Y-102.0
X134.0Y-104.0
X134.0Y-106.0
X134.0Y-111.0
X134.0Y-113.0
X134.0Y-118.0
X134.0Y-120.0
X134.0Y-125.0
X134.0Y-127.0
X140.0Y-94.0
X142.0Y-94.0
X144.0Y-94.0
X146.0Y-94.0
X157.0Y-94.0
X159.0Y-94.0
X165.0Y-97.0
X165.0Y-103.0
X167.0Y-97.0
X167.0Y-103.0
X167.0Y-125.0
X167.0Y-127.0
T4
X145.68Y-123.0
X145.68Y-126.8
X154.32Y-123.0
X154.32Y-126.8
T5
X133.0Y-93.0
X139.0Y-115.0
X157.543Y-99.305
T0
M30
